<?xml version="1.0" encoding="UTF-8" standalone="no"?>
<svg
   width="460.8pt"
   height="345.6pt"
   viewBox="0 0 460.8 345.6"
   version="1.1"
   id="svg115"
   sodipodi:docname="gamma_4_threshold.svg"
   inkscape:version="1.3 (0e150ed6c4, 2023-07-21)"
   inkscape:export-filename="gamma_4_threshold.pdf"
   inkscape:export-xdpi="96"
   inkscape:export-ydpi="96"
   xmlns:inkscape="http://www.inkscape.org/namespaces/inkscape"
   xmlns:sodipodi="http://sodipodi.sourceforge.net/DTD/sodipodi-0.dtd"
   xmlns:xlink="http://www.w3.org/1999/xlink"
   xmlns="http://www.w3.org/2000/svg"
   xmlns:svg="http://www.w3.org/2000/svg"
   xmlns:rdf="http://www.w3.org/1999/02/22-rdf-syntax-ns#"
   xmlns:cc="http://creativecommons.org/ns#"
   xmlns:dc="http://purl.org/dc/elements/1.1/">
  <sodipodi:namedview
     id="namedview115"
     pagecolor="#505050"
     bordercolor="#ffffff"
     borderopacity="1"
     inkscape:showpageshadow="0"
     inkscape:pageopacity="0"
     inkscape:pagecheckerboard="1"
     inkscape:deskcolor="#505050"
     inkscape:document-units="pt"
     inkscape:zoom="1.2598408"
     inkscape:cx="153.59083"
     inkscape:cy="271.06599"
     inkscape:window-width="1920"
     inkscape:window-height="1017"
     inkscape:window-x="-8"
     inkscape:window-y="-8"
     inkscape:window-maximized="1"
     inkscape:current-layer="svg115" />
  <metadata
     id="metadata1">
    <rdf:RDF>
      <cc:Work>
        <dc:type
           rdf:resource="http://purl.org/dc/dcmitype/StillImage" />
        <dc:date>2023-11-13T02:00:47.695195</dc:date>
        <dc:format>image/svg+xml</dc:format>
        <dc:creator>
          <cc:Agent>
            <dc:title>Matplotlib v3.7.2, https://matplotlib.org/</dc:title>
          </cc:Agent>
        </dc:creator>
      </cc:Work>
    </rdf:RDF>
  </metadata>
  <defs
     id="defs1">
    <style
       type="text/css"
       id="style1">*{stroke-linejoin: round; stroke-linecap: butt}</style>
  </defs>
  <g
     id="figure_1"
     style="display:inline">
    <g
       id="patch_1">
      <path
         d="M 0,345.6 H 460.8 V 0 H 0 Z"
         style="fill:#ffffff"
         id="path1" />
    </g>
    <g
       id="axes_1">
      <g
         id="patch_2">
        <path
           d="M 57.6,307.584 H 414.72 V 41.472 H 57.6 Z"
           style="fill:#ffffff"
           id="path2" />
      </g>
      <g
         id="matplotlib.axis_1">
        <g
           id="xtick_1">
          <g
             id="line2d_1">
            <defs
               id="defs2">
              <path
                 id="m0129eab424"
                 d="M 0,0 V 3.5"
                 style="stroke:#000000;stroke-width:0.8" />
            </defs>
            <g
               id="g2">
              <use
                 xlink:href="#m0129eab424"
                 x="73.832726"
                 y="307.58401"
                 style="stroke:#000000;stroke-width:0.8"
                 id="use2" />
            </g>
          </g>
          <g
             id="text_1">
            <!-- 0 -->
            <g
               transform="matrix(0.1,0,0,-0.1,70.651477,322.18244)"
               id="g3">
              <defs
                 id="defs3">
                <path
                   id="DejaVuSans-30"
                   d="m 2034,4250 q -487,0 -733,-480 -245,-479 -245,-1442 0,-959 245,-1439 246,-480 733,-480 491,0 736,480 246,480 246,1439 0,963 -246,1442 -245,480 -736,480 z m 0,500 q 785,0 1199,-621 414,-620 414,-1801 0,-1178 -414,-1799 -414,-620 -1199,-620 -784,0 -1198,620 -414,621 -414,1799 0,1181 414,1801 414,621 1198,621 z"
                   transform="scale(0.015625)" />
              </defs>
              <use
                 xlink:href="#DejaVuSans-30"
                 id="use3" />
            </g>
          </g>
        </g>
        <g
           id="xtick_2">
          <g
             id="line2d_2">
            <g
               id="g4">
              <use
                 xlink:href="#m0129eab424"
                 x="124.75893"
                 y="307.58401"
                 style="stroke:#000000;stroke-width:0.8"
                 id="use4" />
            </g>
          </g>
          <g
             id="text_2">
            <!-- 2 -->
            <g
               transform="matrix(0.1,0,0,-0.1,121.57768,322.18244)"
               id="g5">
              <defs
                 id="defs4">
                <path
                   id="DejaVuSans-32"
                   d="M 1228,531 H 3431 V 0 H 469 v 531 q 359,372 979,998 621,627 780,809 303,340 423,576 121,236 121,464 0,372 -261,606 -261,235 -680,235 -297,0 -627,-103 -329,-103 -704,-313 v 638 q 381,153 712,231 332,78 607,78 725,0 1156,-363 431,-362 431,-968 0,-288 -108,-546 -107,-257 -392,-607 -78,-91 -497,-524 Q 1991,1309 1228,531 Z"
                   transform="scale(0.015625)" />
              </defs>
              <use
                 xlink:href="#DejaVuSans-32"
                 id="use5" />
            </g>
          </g>
        </g>
        <g
           id="xtick_3">
          <g
             id="line2d_3">
            <g
               id="g6">
              <use
                 xlink:href="#m0129eab424"
                 x="175.68513"
                 y="307.58401"
                 style="stroke:#000000;stroke-width:0.8"
                 id="use6" />
            </g>
          </g>
          <g
             id="text_3">
            <!-- 4 -->
            <g
               transform="matrix(0.1,0,0,-0.1,172.50388,322.18244)"
               id="g7">
              <defs
                 id="defs6">
                <path
                   id="DejaVuSans-34"
                   d="M 2419,4116 825,1625 h 1594 z m -166,550 h 794 V 1625 h 666 V 1100 H 3047 V 0 H 2419 V 1100 H 313 v 609 z"
                   transform="scale(0.015625)" />
              </defs>
              <use
                 xlink:href="#DejaVuSans-34"
                 id="use7" />
            </g>
          </g>
        </g>
        <g
           id="xtick_4">
          <g
             id="line2d_4">
            <g
               id="g8">
              <use
                 xlink:href="#m0129eab424"
                 x="226.61134"
                 y="307.58401"
                 style="stroke:#000000;stroke-width:0.8"
                 id="use8" />
            </g>
          </g>
          <g
             id="text_4">
            <!-- 6 -->
            <g
               transform="matrix(0.1,0,0,-0.1,223.43009,322.18244)"
               id="g9">
              <defs
                 id="defs8">
                <path
                   id="DejaVuSans-36"
                   d="m 2113,2584 q -425,0 -674,-291 -248,-290 -248,-796 0,-503 248,-796 249,-292 674,-292 425,0 673,292 248,293 248,796 0,506 -248,796 -248,291 -673,291 z m 1253,1979 v -575 q -238,112 -480,171 -242,60 -480,60 -625,0 -955,-422 -329,-422 -376,-1275 184,272 462,417 279,145 613,145 703,0 1111,-427 408,-426 408,-1160 0,-719 -425,-1154 -425,-434 -1131,-434 -810,0 -1238,620 -428,621 -428,1799 0,1106 525,1764 525,658 1409,658 238,0 480,-47 242,-47 505,-140 z"
                   transform="scale(0.015625)" />
              </defs>
              <use
                 xlink:href="#DejaVuSans-36"
                 id="use9" />
            </g>
          </g>
        </g>
        <g
           id="xtick_5">
          <g
             id="line2d_5">
            <g
               id="g10">
              <use
                 xlink:href="#m0129eab424"
                 x="277.53754"
                 y="307.58401"
                 style="stroke:#000000;stroke-width:0.8"
                 id="use10" />
            </g>
          </g>
          <g
             id="text_5">
            <!-- 8 -->
            <g
               transform="matrix(0.1,0,0,-0.1,274.35629,322.18244)"
               id="g11">
              <defs
                 id="defs10">
                <path
                   id="DejaVuSans-38"
                   d="m 2034,2216 q -450,0 -708,-241 -257,-241 -257,-662 0,-422 257,-663 258,-241 708,-241 450,0 709,242 260,243 260,662 0,421 -258,662 -257,241 -711,241 z m -631,268 q -406,100 -633,378 -226,279 -226,679 0,559 398,884 399,325 1092,325 697,0 1094,-325 397,-325 397,-884 0,-400 -227,-679 -226,-278 -629,-378 456,-106 710,-416 255,-309 255,-755 Q 3634,634 3220,271 2806,-91 2034,-91 1263,-91 848,271 434,634 434,1313 q 0,446 256,755 257,310 713,416 z m -231,997 q 0,-362 226,-565 227,-203 636,-203 407,0 636,203 230,203 230,565 0,363 -230,566 -229,203 -636,203 -409,0 -636,-203 -226,-203 -226,-566 z"
                   transform="scale(0.015625)" />
              </defs>
              <use
                 xlink:href="#DejaVuSans-38"
                 id="use11" />
            </g>
          </g>
        </g>
        <g
           id="xtick_6">
          <g
             id="line2d_6">
            <g
               id="g12">
              <use
                 xlink:href="#m0129eab424"
                 x="328.46375"
                 y="307.58401"
                 style="stroke:#000000;stroke-width:0.8"
                 id="use12" />
            </g>
          </g>
          <g
             id="text_6">
            <!-- 10 -->
            <g
               transform="matrix(0.1,0,0,-0.1,322.10124,322.18244)"
               id="g14">
              <defs
                 id="defs12">
                <path
                   id="DejaVuSans-31"
                   d="M 794,531 H 1825 V 4091 L 703,3866 v 575 l 1116,225 h 631 V 531 H 3481 V 0 H 794 Z"
                   transform="scale(0.015625)" />
              </defs>
              <use
                 xlink:href="#DejaVuSans-31"
                 id="use13" />
              <use
                 xlink:href="#DejaVuSans-30"
                 x="63.623047"
                 id="use14" />
            </g>
          </g>
        </g>
        <g
           id="xtick_7">
          <g
             id="line2d_7">
            <g
               id="g15">
              <use
                 xlink:href="#m0129eab424"
                 x="379.38995"
                 y="307.58401"
                 style="stroke:#000000;stroke-width:0.8"
                 id="use15" />
            </g>
          </g>
          <g
             id="text_7">
            <!-- 12 -->
            <g
               transform="matrix(0.1,0,0,-0.1,373.02745,322.18244)"
               id="g17">
              <use
                 xlink:href="#DejaVuSans-31"
                 id="use16" />
              <use
                 xlink:href="#DejaVuSans-32"
                 x="63.623047"
                 id="use17" />
            </g>
          </g>
        </g>
        <g
           id="text_8">
          <!-- t -->
          <g
             transform="matrix(0.1,0,0,-0.1,234.19984,335.86056)"
             id="g18">
            <defs
               id="defs17">
              <path
                 id="DejaVuSans-74"
                 d="M 1172,4494 V 3500 H 2356 V 3053 H 1172 V 1153 q 0,-428 117,-550 117,-122 477,-122 h 590 V 0 H 1766 Q 1100,0 847,248 594,497 594,1153 V 3053 H 172 v 447 h 422 v 994 z"
                 transform="scale(0.015625)" />
            </defs>
            <use
               xlink:href="#DejaVuSans-74"
               id="use18" />
          </g>
        </g>
      </g>
      <g
         id="matplotlib.axis_2">
        <g
           id="ytick_1">
          <g
             id="line2d_8">
            <defs
               id="defs18">
              <path
                 id="mf3ac1385f5"
                 d="M 0,0 H -3.5"
                 style="stroke:#000000;stroke-width:0.8" />
            </defs>
            <g
               id="g19">
              <use
                 xlink:href="#mf3ac1385f5"
                 x="57.599998"
                 y="295.48801"
                 style="stroke:#000000;stroke-width:0.8"
                 id="use19" />
            </g>
          </g>
          <g
             id="text_9">
            <!-- 0 -->
            <g
               transform="matrix(0.1,0,0,-0.1,44.2375,299.28722)"
               id="g20">
              <use
                 xlink:href="#DejaVuSans-30"
                 id="use20" />
            </g>
          </g>
        </g>
        <g
           id="ytick_2">
          <g
             id="line2d_9">
            <g
               id="g21">
              <use
                 xlink:href="#mf3ac1385f5"
                 x="57.599998"
                 y="243.25764"
                 style="stroke:#000000;stroke-width:0.8"
                 id="use21" />
            </g>
          </g>
          <g
             id="text_10">
            <!-- 50 -->
            <g
               transform="matrix(0.1,0,0,-0.1,37.875,247.05686)"
               id="g23">
              <defs
                 id="defs21">
                <path
                   id="DejaVuSans-35"
                   d="M 691,4666 H 3169 V 4134 H 1269 V 2991 q 137,47 274,70 138,23 276,23 781,0 1237,-428 457,-428 457,-1159 Q 3513,744 3044,326 2575,-91 1722,-91 1428,-91 1123,-41 819,9 494,109 v 635 q 281,-153 581,-228 300,-75 634,-75 541,0 856,284 316,284 316,772 0,487 -316,771 -315,285 -856,285 -253,0 -505,-56 -251,-56 -513,-175 z"
                   transform="scale(0.015625)" />
              </defs>
              <use
                 xlink:href="#DejaVuSans-35"
                 id="use22" />
              <use
                 xlink:href="#DejaVuSans-30"
                 x="63.623047"
                 id="use23" />
            </g>
          </g>
        </g>
        <g
           id="ytick_3">
          <g
             id="line2d_10">
            <g
               id="g24">
              <use
                 xlink:href="#mf3ac1385f5"
                 x="57.599998"
                 y="191.02728"
                 style="stroke:#000000;stroke-width:0.8"
                 id="use24" />
            </g>
          </g>
          <g
             id="text_11">
            <!-- 100 -->
            <g
               transform="matrix(0.1,0,0,-0.1,31.5125,194.8265)"
               id="g27">
              <use
                 xlink:href="#DejaVuSans-31"
                 id="use25" />
              <use
                 xlink:href="#DejaVuSans-30"
                 x="63.623047"
                 id="use26" />
              <use
                 xlink:href="#DejaVuSans-30"
                 x="127.24609"
                 id="use27" />
            </g>
          </g>
        </g>
        <g
           id="ytick_4">
          <g
             id="line2d_11">
            <g
               id="g28">
              <use
                 xlink:href="#mf3ac1385f5"
                 x="57.599998"
                 y="138.79692"
                 style="stroke:#000000;stroke-width:0.8"
                 id="use28" />
            </g>
          </g>
          <g
             id="text_12">
            <!-- 150 -->
            <g
               transform="matrix(0.1,0,0,-0.1,31.5125,142.59614)"
               id="g31">
              <use
                 xlink:href="#DejaVuSans-31"
                 id="use29" />
              <use
                 xlink:href="#DejaVuSans-35"
                 x="63.623047"
                 id="use30" />
              <use
                 xlink:href="#DejaVuSans-30"
                 x="127.24609"
                 id="use31" />
            </g>
          </g>
        </g>
        <g
           id="ytick_5">
          <g
             id="line2d_12">
            <g
               id="g32">
              <use
                 xlink:href="#mf3ac1385f5"
                 x="57.599998"
                 y="86.566559"
                 style="stroke:#000000;stroke-width:0.8"
                 id="use32" />
            </g>
          </g>
          <g
             id="text_13">
            <!-- 200 -->
            <g
               transform="matrix(0.1,0,0,-0.1,31.5125,90.365778)"
               id="g35">
              <use
                 xlink:href="#DejaVuSans-32"
                 id="use33" />
              <use
                 xlink:href="#DejaVuSans-30"
                 x="63.623047"
                 id="use34" />
              <use
                 xlink:href="#DejaVuSans-30"
                 x="127.24609"
                 id="use35" />
            </g>
          </g>
        </g>
        <g
           id="text_14">
          <!-- Pavement degradation -->
          <g
             transform="matrix(0,-0.1,-0.1,0,25.432812,231.44284)"
             id="g55">
            <defs
               id="defs35">
              <path
                 id="DejaVuSans-50"
                 d="M 1259,4147 V 2394 h 794 q 441,0 681,228 241,228 241,650 0,419 -241,647 -240,228 -681,228 z m -631,519 h 1425 q 785,0 1186,-355 402,-355 402,-1039 0,-691 -402,-1044 -401,-353 -1186,-353 H 1259 V 0 H 628 Z"
                 transform="scale(0.015625)" />
              <path
                 id="DejaVuSans-61"
                 d="m 2194,1759 q -697,0 -966,-159 -269,-159 -269,-544 0,-306 202,-486 202,-179 548,-179 479,0 768,339 289,339 289,901 v 128 z m 1147,238 V 0 H 2766 V 531 Q 2569,213 2275,61 1981,-91 1556,-91 q -537,0 -855,302 -317,302 -317,808 0,590 395,890 396,300 1180,300 h 807 v 57 q 0,397 -261,614 -261,217 -733,217 -300,0 -585,-72 -284,-72 -546,-216 v 532 q 315,122 612,182 297,61 578,61 760,0 1135,-394 375,-393 375,-1193 z"
                 transform="scale(0.015625)" />
              <path
                 id="DejaVuSans-76"
                 d="M 191,3500 H 800 L 1894,563 2988,3500 h 609 L 2284,0 h -781 z"
                 transform="scale(0.015625)" />
              <path
                 id="DejaVuSans-65"
                 d="M 3597,1894 V 1613 H 953 q 38,-594 358,-905 320,-311 892,-311 331,0 642,81 311,81 618,244 V 178 Q 3153,47 2828,-22 2503,-91 2169,-91 1331,-91 842,396 353,884 353,1716 q 0,859 464,1363 464,505 1252,505 706,0 1117,-455 411,-454 411,-1235 z m -575,169 q -6,471 -264,752 -258,282 -683,282 -481,0 -770,-272 -289,-272 -333,-766 z"
                 transform="scale(0.015625)" />
              <path
                 id="DejaVuSans-6d"
                 d="m 3328,2828 q 216,388 516,572 300,184 706,184 547,0 844,-383 297,-382 297,-1088 V 0 h -578 v 2094 q 0,503 -179,746 -178,244 -543,244 -447,0 -707,-297 -259,-296 -259,-809 V 0 h -578 v 2094 q 0,506 -178,748 -178,242 -550,242 -441,0 -701,-298 -259,-298 -259,-808 V 0 H 581 v 3500 h 578 v -544 q 197,322 472,475 275,153 653,153 382,0 649,-194 267,-193 395,-562 z"
                 transform="scale(0.015625)" />
              <path
                 id="DejaVuSans-6e"
                 d="M 3513,2113 V 0 h -575 v 2094 q 0,497 -194,743 -194,247 -581,247 -466,0 -735,-297 -269,-296 -269,-809 V 0 H 581 v 3500 h 578 v -544 q 207,316 486,472 280,156 646,156 603,0 912,-373 310,-373 310,-1098 z"
                 transform="scale(0.015625)" />
              <path
                 id="DejaVuSans-20"
                 transform="scale(0.015625)"
                 d="" />
              <path
                 id="DejaVuSans-64"
                 d="m 2906,2969 v 1894 h 575 V 0 H 2906 V 525 Q 2725,213 2448,61 2172,-91 1784,-91 1150,-91 751,415 353,922 353,1747 q 0,825 398,1331 399,506 1033,506 388,0 664,-152 277,-151 458,-463 z M 947,1747 q 0,-634 261,-995 261,-361 717,-361 456,0 718,361 263,361 263,995 0,634 -263,995 -262,361 -718,361 -456,0 -717,-361 -261,-361 -261,-995 z"
                 transform="scale(0.015625)" />
              <path
                 id="DejaVuSans-67"
                 d="m 2906,1791 q 0,625 -258,968 -257,344 -723,344 -462,0 -720,-344 -258,-343 -258,-968 0,-622 258,-966 258,-344 720,-344 466,0 723,344 258,344 258,966 z M 3481,434 q 0,-893 -397,-1329 -396,-436 -1215,-436 -303,0 -572,45 -269,45 -522,139 v 559 q 253,-137 500,-202 247,-66 503,-66 566,0 847,295 281,295 281,892 V 616 Q 2728,306 2450,153 2172,0 1784,0 1141,0 747,490 353,981 353,1791 q 0,812 394,1302 394,491 1037,491 388,0 666,-153 278,-153 456,-462 v 531 h 575 z"
                 transform="scale(0.015625)" />
              <path
                 id="DejaVuSans-72"
                 d="m 2631,2963 q -97,56 -211,82 -114,27 -251,27 -488,0 -749,-317 -261,-317 -261,-911 V 0 H 581 v 3500 h 578 v -544 q 182,319 472,473 291,155 707,155 59,0 131,-8 72,-7 159,-23 z"
                 transform="scale(0.015625)" />
              <path
                 id="DejaVuSans-69"
                 d="m 603,3500 h 575 V 0 H 603 Z m 0,1363 h 575 V 4134 H 603 Z"
                 transform="scale(0.015625)" />
              <path
                 id="DejaVuSans-6f"
                 d="m 1959,3097 q -462,0 -731,-361 -269,-361 -269,-989 0,-628 267,-989 268,-361 733,-361 460,0 728,362 269,363 269,988 0,622 -269,986 -268,364 -728,364 z m 0,487 q 750,0 1178,-488 429,-487 429,-1349 Q 3566,888 3137,398 2709,-91 1959,-91 1206,-91 779,398 353,888 353,1747 q 0,862 426,1349 427,488 1180,488 z"
                 transform="scale(0.015625)" />
            </defs>
            <use
               xlink:href="#DejaVuSans-50"
               id="use36" />
            <use
               xlink:href="#DejaVuSans-61"
               x="55.802734"
               id="use37" />
            <use
               xlink:href="#DejaVuSans-76"
               x="117.08203"
               id="use38" />
            <use
               xlink:href="#DejaVuSans-65"
               x="176.26172"
               id="use39" />
            <use
               xlink:href="#DejaVuSans-6d"
               x="237.78516"
               id="use40" />
            <use
               xlink:href="#DejaVuSans-65"
               x="335.19727"
               id="use41" />
            <use
               xlink:href="#DejaVuSans-6e"
               x="396.7207"
               id="use42" />
            <use
               xlink:href="#DejaVuSans-74"
               x="460.09961"
               id="use43" />
            <use
               xlink:href="#DejaVuSans-20"
               x="499.30859"
               id="use44" />
            <use
               xlink:href="#DejaVuSans-64"
               x="531.0957"
               id="use45" />
            <use
               xlink:href="#DejaVuSans-65"
               x="594.57227"
               id="use46" />
            <use
               xlink:href="#DejaVuSans-67"
               x="656.0957"
               id="use47" />
            <use
               xlink:href="#DejaVuSans-72"
               x="719.57227"
               id="use48" />
            <use
               xlink:href="#DejaVuSans-61"
               x="760.68555"
               id="use49" />
            <use
               xlink:href="#DejaVuSans-64"
               x="821.96484"
               id="use50" />
            <use
               xlink:href="#DejaVuSans-61"
               x="885.44141"
               id="use51" />
            <use
               xlink:href="#DejaVuSans-74"
               x="946.7207"
               id="use52" />
            <use
               xlink:href="#DejaVuSans-69"
               x="985.92969"
               id="use53" />
            <use
               xlink:href="#DejaVuSans-6f"
               x="1013.7129"
               id="use54" />
            <use
               xlink:href="#DejaVuSans-6e"
               x="1074.8945"
               id="use55" />
          </g>
        </g>
      </g>
      <g
         id="line2d_13">
        <path
           d="m 73.832727,295.488 v -0.0384 h 6.365776 v -0.27561 h 6.365775 v -0.27155 h 6.365775 v -0.38355 h 6.365776 v -0.906 h 6.365771 v -0.0912 h 6.36578 v -0.0559 h 6.36577 v -0.2153 h 6.36578 v -2.19057 h 6.36578 v -3.54829 h 6.36577 v -4.83497 h 6.36578 v -1.31105 h 6.36577 v -0.66635 h 6.36578 v -1.83686 h 6.36577 v -1.89388 h 6.36578 v -2.09023 h 6.36577 v -1.93257 h 6.36578 v -2.81583 h 6.36577 v -1.57881 h 6.36578 v -4.67125 h 6.36577 v -1.58202 h 6.36578 v -2.59237 h 6.36578 v -7.56904 h 6.36577 v -1.20155 h 6.36578 v -3.44827 h 6.36577 v -2.99166 h 6.36578 v -6.00798 h 6.36577 v -1.55472 h 6.36578 v -5.23609 h 6.36577 v -3.13021 h 6.36578 v -3.57785 h 6.36577 v -5.30379 h 6.36578 v -3.89808 h 6.36578 v -2.82783 h 6.36577 v -2.77201 h 6.36578 v -5.25181 h 6.36577 v -4.94223 h 6.36578 v -4.18249 h 6.36577 v -7.11194 h 6.36578 v -7.74332 h 6.36577 v -5.76671 h 6.36578 v -6.27829 h 6.36577 v -4.61742 h 6.36578 v -5.42168 h 6.36578 v -5.43048 h 6.36577 v -8.97702 h 6.36578 v -12.54015 h 6.36577 v -7.7795 h 6.36578 V 113.3108 h 6.36577 v -6.53044 h 6.36578 v -4.57571 h 6.36577"
           clip-path="url(#pdcb012d680)"
           style="fill:none;stroke:#1f77b4;stroke-width:1.5;stroke-linecap:square"
           id="path55" />
      </g>
      <g
         id="line2d_14">
        <path
           d="m 73.832727,295.488 v -3.4e-4 h 6.365776 v -0.0272 h 6.365775 v -0.0754 h 6.365775 v -0.19094 h 6.365776 v -0.004 h 6.365771 v -0.0172 h 6.36578 v -0.22846 h 6.36577 v -0.0238 h 6.36578 V 293.962 h 6.36578 v -0.65157 h 6.36577 v -0.56878 h 6.36578 v -0.6142 h 6.36577 v -0.0745 h 6.36578 v -0.26083 h 6.36577 v -0.28961 h 6.36578 v -0.13575 h 6.36577 v -0.78827 h 6.36578 v -1.14102 h 6.36577 v -1.52185 h 6.36578 v -0.71027 h 6.36577 v -0.48655 h 6.36578 v -0.2687 h 6.36578 v -0.29164 h 6.36577 v -0.55094 h 6.36578 v -2.24182 h 6.36577 v -0.2272 h 6.36578 v -0.78879 h 6.36577 v -1.87621 h 6.36578 v -2.00774 h 6.36577 v -1.9116 h 6.36578 v -1.36595 h 6.36577 v -0.15676 h 6.36578 v -1.33409 h 6.36578 v -1.98645 h 6.36577 v -1.85811 h 6.36578 v -1.20189 h 6.36577 v -0.96757 h 6.36578 v -2.35666 h 6.36577 v -0.71991 h 6.36578 v -1.15803 h 6.36577 v -1.5472 h 6.36578 v -1.05424 h 6.36577 v -2.59885 h 6.36578 v -0.686 h 6.36578 v -3.04346 h 6.36577 v -2.28056 h 6.36578 v -2.2066 h 6.36577 v -2.72033 h 6.36578 v -0.95918 h 6.36577 v -2.6726 h 6.36578 v -2.53363 h 6.36577"
           clip-path="url(#pdcb012d680)"
           style="fill:none;stroke:#ff7f0e;stroke-width:1.5;stroke-linecap:square"
           id="path56" />
      </g>
      <g
         id="line2d_15">
        <path
           d="m 73.832727,295.488 v -0.0786 h 6.365776 v -0.19767 h 6.365775 v -0.44118 h 6.365775 v -0.0588 h 6.365776 v -0.40226 h 6.365771 v -1.60093 h 6.36578 v -0.61771 h 6.36577 v -0.28638 h 6.36578 v -1.51339 h 6.36578 v -2.66938 h 6.36577 v -1.89287 h 6.36578 v -2.69513 h 6.36577 v -1.89597 h 6.36578 v -1.72505 h 6.36577 v -2.68061 h 6.36578 v -1.65823 h 6.36577 v -2.97017 h 6.36578 v -3.25235 h 6.36577 v -2.91126 h 6.36578 V 256.928 h 6.36577 v -6.63588 h 6.36578 v -6.14922 h 6.36578 v -5.10356 h 6.36577 v -5.42645 h 6.36578 v -4.04385 h 6.36577 v -4.79063 h 6.36578 v -4.35617 h 6.36577 v -4.99431 h 6.36578 V 210.007 h 6.36577 v -5.09852 h 6.36578 v -5.65794 h 6.36577 v -5.92448 h 6.36578 v -5.64199 h 6.36578 v -6.18216 h 6.36577 v -6.29424 h 6.36578 v -6.28813 h 6.36577 v -5.6818 h 6.36578 v -6.43371 h 6.36577 v -7.04366 h 6.36578 v -10.36759 h 6.36577 v -8.0354 h 6.36578 v -6.71421 h 6.36577 v -10.37471 h 6.36578 v -7.32542 h 6.36578 v -6.08303 h 6.36577 V 90.596789 h 6.36578 v -7.181996 h 6.36577 v -5.866544 h 6.36578 v -9.891607 h 6.36577 v -6.680929 h 6.36578 V 53.568 h 6.36577"
           clip-path="url(#pdcb012d680)"
           style="fill:none;stroke:#2ca02c;stroke-width:1.5;stroke-linecap:square"
           id="path57" />
      </g>
      <g
         id="line2d_16">
        <path
           d="m 73.832727,295.488 v -0.0661 h 6.365776 v -0.66727 h 6.365775 v -0.22493 h 6.365775 v -0.21621 h 6.365776 v -0.0423 h 6.365771 v -0.33599 h 6.36578 v -0.65072 h 6.36577 v -0.3082 h 6.36578 v -0.985 h 6.36578 v -2.37109 h 6.36577 V 288.456 h 6.36578 v -1.55998 h 6.36577 v -1.02662 h 6.36578 v -1.72023 h 6.36577 v -0.38447 h 6.36578 v -1.27268 h 6.36577 v -0.86663 h 6.36578 v -1.85935 h 6.36577 v -2.15844 h 6.36578 v -3.56268 h 6.36577 v -1.35366 h 6.36578 v -2.44647 h 6.36578 v -2.62901 h 6.36577 v -2.77782 h 6.36578 v -3.38262 h 6.36577 v -1.59052 h 6.36578 v -1.82348 h 6.36577 v -1.84487 h 6.36578 v -3.11259 h 6.36577 v -2.08036 h 6.36578 v -4.67645 h 6.36577 v -5.01756 h 6.36578 v -4.35294 h 6.36578 v -3.77276 h 6.36577 v -4.62479 h 6.36578 v -5.62392 h 6.36577 v -2.80246 h 6.36578 v -2.4701 h 6.36577 v -5.07051 h 6.36578 v -3.64173 h 6.36577 v -4.35024 h 6.36578 v -3.37445 h 6.36577 v -4.49597 h 6.36578 v -3.8686 h 6.36578 v -5.42525 h 6.36577 v -2.91925 h 6.36578 v -4.1306 h 6.36577 v -6.51681 h 6.36578 v -5.03209 h 6.36577 v -7.22776 h 6.36578 v -5.98471 h 6.36577"
           clip-path="url(#pdcb012d680)"
           style="fill:none;stroke:#d62728;stroke-width:1.5;stroke-linecap:square"
           id="path58" />
      </g>
      <g
         id="patch_3">
        <path
           d="M 57.6,307.584 V 41.472"
           style="fill:none;stroke:#000000;stroke-width:0.8;stroke-linecap:square;stroke-linejoin:miter"
           id="path59" />
      </g>
      <g
         id="patch_4">
        <path
           d="M 414.72,307.584 V 41.472"
           style="fill:none;stroke:#000000;stroke-width:0.8;stroke-linecap:square;stroke-linejoin:miter"
           id="path60" />
      </g>
      <g
         id="patch_5">
        <path
           d="M 57.6,307.584 H 414.72"
           style="fill:none;stroke:#000000;stroke-width:0.8;stroke-linecap:square;stroke-linejoin:miter"
           id="path61" />
      </g>
      <g
         id="patch_6">
        <path
           d="M 57.6,41.472 H 414.72"
           style="fill:none;stroke:#000000;stroke-width:0.8;stroke-linecap:square;stroke-linejoin:miter"
           id="path62" />
      </g>
      <g
         id="legend_1">
        <g
           id="patch_7">
          <path
             d="m 64.6,110.22825 h 95.6 q 2,0 2,-2 V 48.472 q 0,-2 -2,-2 H 64.6 q -2,0 -2,2 v 59.75625 q 0,2 2,2 z"
             style="opacity:0.8;fill:#ffffff;stroke:#cccccc;stroke-linejoin:miter"
             id="path63" />
        </g>
        <g
           id="line2d_17">
          <path
             d="m 66.6,54.570438 v 0 h 10 v 0 h 10"
             style="fill:none;stroke:#1f77b4;stroke-width:1.5;stroke-linecap:square"
             id="path64" />
        </g>
        <g
           id="text_15">
          <!-- $X_{traffic}(t)$ -->
          <g
             transform="matrix(0.1,0,0,-0.1,94.6,58.070438)"
             id="g74">
            <defs
               id="defs64">
              <path
                 id="DejaVuSans-Oblique-58"
                 d="m 878,4666 h 638 l 800,-1685 1447,1685 h 737 L 2578,2438 3738,0 H 3103 L 2163,1966 459,0 h -734 l 2181,2509 z"
                 transform="scale(0.015625)" />
              <path
                 id="DejaVuSans-Oblique-74"
                 d="m 2706,3500 -87,-447 H 1472 L 1100,1153 q -19,-106 -28,-178 -9,-72 -9,-112 0,-200 120,-291 120,-91 386,-91 h 581 L 2053,0 H 1503 Q 991,0 739,200 488,400 488,806 q 0,72 9,158 9,86 28,189 L 897,3053 H 409 l 91,447 h 478 l 194,994 h 575 l -191,-994 z"
                 transform="scale(0.015625)" />
              <path
                 id="DejaVuSans-Oblique-72"
                 d="m 2853,2969 q -87,47 -200,72 -112,25 -240,25 -460,0 -804,-349 -343,-348 -456,-933 L 800,0 H 225 l 684,3500 h 575 l -109,-544 q 228,303 545,465 318,163 677,163 94,0 184,-11 91,-10 182,-35 z"
                 transform="scale(0.015625)" />
              <path
                 id="DejaVuSans-Oblique-61"
                 d="M 3438,1997 3047,0 h -575 l 106,531 Q 2325,219 2001,64 1678,-91 1281,-91 834,-91 548,182 263,456 263,884 q 0,613 489,969 489,356 1348,356 h 800 l 31,154 q 7,25 10,54 3,30 3,92 0,279 -227,433 -226,155 -636,155 -281,0 -577,-72 -295,-72 -607,-216 l 100,532 q 325,122 636,182 311,61 601,61 619,0 942,-269 324,-268 324,-781 0,-103 -16,-242 -15,-139 -46,-295 z m -622,-238 h -575 q -707,0 -1046,-189 -339,-189 -339,-586 0,-275 173,-431 174,-156 480,-156 469,0 819,336 350,336 463,898 z"
                 transform="scale(0.015625)" />
              <path
                 id="DejaVuSans-Oblique-66"
                 d="m 3059,4863 -90,-479 h -550 q -313,0 -455,-123 -142,-123 -211,-452 l -62,-309 h 947 l -85,-447 H 1606 L 1013,0 H 434 l 597,3053 H 481 l 82,447 h 550 l 46,244 q 119,619 417,869 299,250 940,250 z"
                 transform="scale(0.015625)" />
              <path
                 id="DejaVuSans-Oblique-69"
                 d="m 1172,4863 h 575 L 1606,4134 H 1031 Z M 909,3500 h 575 L 800,0 H 225 Z"
                 transform="scale(0.015625)" />
              <path
                 id="DejaVuSans-Oblique-63"
                 d="m 3431,3366 -115,-569 q -207,150 -440,225 -232,75 -482,75 -275,0 -524,-97 -248,-97 -417,-275 -269,-272 -416,-638 -146,-365 -146,-756 0,-472 236,-703 236,-231 717,-231 237,0 504,72 268,72 558,215 L 2797,116 Q 2547,13 2283,-39 2019,-91 1741,-91 1044,-91 669,257 294,606 294,1253 q 0,544 195,1002 195,458 580,823 262,250 615,378 354,128 772,128 244,0 484,-55 241,-54 491,-163 z"
                 transform="scale(0.015625)" />
              <path
                 id="DejaVuSans-28"
                 d="m 1984,4856 q -418,-718 -622,-1422 -203,-703 -203,-1425 0,-721 205,-1429 205,-708 620,-1424 h -500 q -468,735 -701,1444 -233,709 -233,1409 0,697 231,1403 232,707 703,1444 z"
                 transform="scale(0.015625)" />
              <path
                 id="DejaVuSans-29"
                 d="m 513,4856 h 500 q 468,-737 701,-1444 233,-706 233,-1403 0,-700 -233,-1409 -233,-709 -701,-1444 H 513 q 415,716 620,1424 205,708 205,1429 0,722 -205,1425 -205,704 -620,1422 z"
                 transform="scale(0.015625)" />
            </defs>
            <use
               xlink:href="#DejaVuSans-Oblique-58"
               transform="translate(0,0.125)"
               id="use64" />
            <use
               xlink:href="#DejaVuSans-Oblique-74"
               transform="matrix(0.7,0,0,0.7,68.505859,-16.28125)"
               id="use65" />
            <use
               xlink:href="#DejaVuSans-Oblique-72"
               transform="matrix(0.7,0,0,0.7,95.952148,-16.28125)"
               id="use66" />
            <use
               xlink:href="#DejaVuSans-Oblique-61"
               transform="matrix(0.7,0,0,0.7,124.73144,-16.28125)"
               id="use67" />
            <use
               xlink:href="#DejaVuSans-Oblique-66"
               transform="matrix(0.7,0,0,0.7,167.62695,-16.28125)"
               id="use68" />
            <use
               xlink:href="#DejaVuSans-Oblique-66"
               transform="matrix(0.7,0,0,0.7,192.27051,-16.28125)"
               id="use69" />
            <use
               xlink:href="#DejaVuSans-Oblique-69"
               transform="matrix(0.7,0,0,0.7,216.91406,-16.28125)"
               id="use70" />
            <use
               xlink:href="#DejaVuSans-Oblique-63"
               transform="matrix(0.7,0,0,0.7,236.3623,-16.28125)"
               id="use71" />
            <use
               xlink:href="#DejaVuSans-28"
               transform="translate(277.58301,0.125)"
               id="use72" />
            <use
               xlink:href="#DejaVuSans-Oblique-74"
               transform="translate(316.59668,0.125)"
               id="use73" />
            <use
               xlink:href="#DejaVuSans-29"
               transform="translate(355.80566,0.125)"
               id="use74" />
          </g>
        </g>
        <g
           id="line2d_18">
          <path
             d="m 66.6,69.248563 v 0 h 10 v 0 h 10"
             style="fill:none;stroke:#ff7f0e;stroke-width:1.5;stroke-linecap:square"
             id="path74" />
        </g>
        <g
           id="text_16">
          <!-- $X_{environment}(t)$ -->
          <g
             transform="matrix(0.1,0,0,-0.1,94.6,72.748563)"
             id="g89">
            <defs
               id="defs74">
              <path
                 id="DejaVuSans-Oblique-65"
                 d="m 3078,2063 q 10,50 14,103 5,53 5,106 0,381 -224,603 -223,222 -607,222 -428,0 -757,-271 -328,-270 -496,-767 z m 500,-450 H 903 q -19,-119 -25,-188 -6,-69 -6,-119 0,-434 267,-672 267,-237 755,-237 375,0 709,84 335,85 622,247 L 3116,159 Q 2806,34 2476,-28 2147,-91 1806,-91 1078,-91 686,257 294,606 294,1247 q 0,547 195,1017 195,470 574,839 243,231 579,356 336,125 714,125 594,0 945,-356 352,-356 352,-956 0,-144 -19,-308 -18,-164 -56,-351 z"
                 transform="scale(0.015625)" />
              <path
                 id="DejaVuSans-Oblique-6e"
                 d="M 3566,2113 3156,0 h -578 l 410,2091 q 28,147 43,259 16,113 16,178 0,263 -166,409 -165,147 -462,147 -463,0 -797,-308 -334,-307 -438,-835 L 800,0 H 225 l 678,3500 h 575 l -115,-550 q 240,303 577,468 338,166 710,166 463,0 717,-250 255,-250 255,-703 0,-112 -14,-240 -14,-128 -42,-278 z"
                 transform="scale(0.015625)" />
              <path
                 id="DejaVuSans-Oblique-76"
                 d="m 459,3500 h 610 L 1581,525 3256,3500 h 610 L 1875,0 h -775 z"
                 transform="scale(0.015625)" />
              <path
                 id="DejaVuSans-Oblique-6f"
                 d="m 1625,-91 q -616,0 -974,380 -357,380 -357,1036 0,381 123,776 124,396 321,665 309,418 690,618 381,200 863,200 597,0 964,-372 367,-371 367,-971 0,-416 -122,-829 Q 3378,1000 3181,728 2875,309 2494,109 2113,-91 1625,-91 Z M 891,1344 q 0,-475 198,-711 199,-236 602,-236 578,0 957,504 380,505 380,1280 0,453 -203,684 -203,232 -597,232 -325,0 -578,-152 -253,-151 -453,-461 -147,-231 -227,-528 -79,-297 -79,-612 z"
                 transform="scale(0.015625)" />
              <path
                 id="DejaVuSans-Oblique-6d"
                 d="M 5747,2113 5338,0 h -575 l 403,2094 q 25,134 37,231 13,97 13,166 0,281 -157,437 -156,156 -437,156 -419,0 -747,-314 -328,-314 -425,-817 L 3066,0 h -575 l 409,2094 q 25,115 37,213 13,99 13,177 0,285 -156,442 -156,158 -431,158 -425,0 -754,-314 -328,-314 -425,-817 L 800,0 H 225 l 684,3500 h 575 l -109,-544 q 234,307 548,467 315,161 674,161 381,0 626,-200 246,-200 296,-556 262,369 607,562 346,194 730,194 450,0 695,-259 246,-259 246,-734 0,-103 -13,-227 -12,-123 -37,-251 z"
                 transform="scale(0.015625)" />
            </defs>
            <use
               xlink:href="#DejaVuSans-Oblique-58"
               transform="translate(0,0.125)"
               id="use75" />
            <use
               xlink:href="#DejaVuSans-Oblique-65"
               transform="matrix(0.7,0,0,0.7,68.505859,-16.28125)"
               id="use76" />
            <use
               xlink:href="#DejaVuSans-Oblique-6e"
               transform="matrix(0.7,0,0,0.7,111.57227,-16.28125)"
               id="use77" />
            <use
               xlink:href="#DejaVuSans-Oblique-76"
               transform="matrix(0.7,0,0,0.7,155.9375,-16.28125)"
               id="use78" />
            <use
               xlink:href="#DejaVuSans-Oblique-69"
               transform="matrix(0.7,0,0,0.7,197.36328,-16.28125)"
               id="use79" />
            <use
               xlink:href="#DejaVuSans-Oblique-72"
               transform="matrix(0.7,0,0,0.7,216.81152,-16.28125)"
               id="use80" />
            <use
               xlink:href="#DejaVuSans-Oblique-6f"
               transform="matrix(0.7,0,0,0.7,245.59082,-16.28125)"
               id="use81" />
            <use
               xlink:href="#DejaVuSans-Oblique-6e"
               transform="matrix(0.7,0,0,0.7,288.41797,-16.28125)"
               id="use82" />
            <use
               xlink:href="#DejaVuSans-Oblique-6d"
               transform="matrix(0.7,0,0,0.7,332.7832,-16.28125)"
               id="use83" />
            <use
               xlink:href="#DejaVuSans-Oblique-65"
               transform="matrix(0.7,0,0,0.7,400.97168,-16.28125)"
               id="use84" />
            <use
               xlink:href="#DejaVuSans-Oblique-6e"
               transform="matrix(0.7,0,0,0.7,444.03809,-16.28125)"
               id="use85" />
            <use
               xlink:href="#DejaVuSans-Oblique-74"
               transform="matrix(0.7,0,0,0.7,488.40332,-16.28125)"
               id="use86" />
            <use
               xlink:href="#DejaVuSans-28"
               transform="translate(518.58398,0.125)"
               id="use87" />
            <use
               xlink:href="#DejaVuSans-Oblique-74"
               transform="translate(557.59766,0.125)"
               id="use88" />
            <use
               xlink:href="#DejaVuSans-29"
               transform="translate(596.80664,0.125)"
               id="use89" />
          </g>
        </g>
        <g
           id="line2d_19">
          <path
             d="m 66.6,83.92825 v 0 h 10 v 0 h 10"
             style="fill:none;stroke:#2ca02c;stroke-width:1.5;stroke-linecap:square"
             id="path89" />
        </g>
        <g
           id="text_17">
          <!-- $Y_{unweighted}(t)$ -->
          <g
             transform="matrix(0.1,0,0,-0.1,94.6,87.42825)"
             id="g103">
            <defs
               id="defs89">
              <path
                 id="DejaVuSans-Oblique-59"
                 d="m 403,4666 h 678 l 872,-1919 1663,1919 h 709 L 2209,2222 1778,0 h -631 l 428,2222 z"
                 transform="scale(0.015625)" />
              <path
                 id="DejaVuSans-Oblique-75"
                 d="m 428,1388 410,2112 h 578 L 1006,1409 q -31,-153 -45,-262 -14,-109 -14,-181 0,-266 162,-412 163,-145 460,-145 462,0 799,312 338,313 441,842 l 385,1937 h 575 L 3091,0 h -575 l 115,550 Q 2388,244 2052,76 1716,-91 1338,-91 878,-91 622,161 366,413 366,863 q 0,93 15,234 16,141 47,291 z"
                 transform="scale(0.015625)" />
              <path
                 id="DejaVuSans-Oblique-77"
                 d="m 544,3500 h 569 L 1259,684 2566,3500 h 665 L 3425,684 4666,3500 h 575 L 3641,0 H 2969 L 2797,2900 1459,0 H 781 Z"
                 transform="scale(0.015625)" />
              <path
                 id="DejaVuSans-Oblique-67"
                 d="M 3816,3500 3219,434 q -172,-890 -658,-1327 -486,-438 -1308,-438 -303,0 -563,45 -259,45 -484,139 l 107,559 q 212,-137 449,-202 238,-66 507,-66 547,0 898,299 352,298 464,857 l 50,263 Q 2441,288 2122,144 1803,0 1434,0 903,0 598,351 294,703 294,1319 q 0,484 184,948 185,464 519,824 222,237 517,365 295,128 617,128 353,0 615,-164 263,-164 392,-464 l 100,544 z M 2950,2216 q 0,425 -200,656 -200,231 -569,231 -228,0 -434,-91 -206,-90 -353,-253 -238,-268 -371,-632 -132,-364 -132,-752 0,-431 201,-663 202,-231 580,-231 547,0 912,495 366,496 366,1240 z"
                 transform="scale(0.015625)" />
              <path
                 id="DejaVuSans-Oblique-68"
                 d="M 3566,2113 3156,0 h -578 l 410,2091 q 28,147 43,259 16,113 16,178 0,263 -166,409 -165,147 -462,147 -463,0 -802,-313 -339,-312 -439,-830 L 800,0 H 225 l 947,4863 h 575 L 1375,2950 q 219,294 559,464 341,170 716,170 463,0 717,-250 255,-250 255,-703 0,-112 -14,-240 -14,-128 -42,-278 z"
                 transform="scale(0.015625)" />
              <path
                 id="DejaVuSans-Oblique-64"
                 d="M 2675,525 Q 2444,222 2128,65 1813,-91 1428,-91 903,-91 598,267 294,625 294,1247 q 0,519 184,989 185,470 535,842 231,247 521,376 291,130 610,130 337,0 595,-163 258,-162 399,-465 l 375,1907 h 578 L 3144,0 H 2566 Z M 891,1350 q 0,-453 204,-706 205,-253 568,-253 268,0 498,129 230,130 405,383 184,263 290,606 107,344 107,679 0,434 -205,677 -205,244 -564,244 -272,0 -507,-128 Q 1453,2853 1288,2613 1106,2353 998,2009 891,1666 891,1350 Z"
                 transform="scale(0.015625)" />
            </defs>
            <use
               xlink:href="#DejaVuSans-Oblique-59"
               transform="translate(0,0.125)"
               id="use90" />
            <use
               xlink:href="#DejaVuSans-Oblique-75"
               transform="matrix(0.7,0,0,0.7,61.083984,-16.28125)"
               id="use91" />
            <use
               xlink:href="#DejaVuSans-Oblique-6e"
               transform="matrix(0.7,0,0,0.7,105.44922,-16.28125)"
               id="use92" />
            <use
               xlink:href="#DejaVuSans-Oblique-77"
               transform="matrix(0.7,0,0,0.7,149.81445,-16.28125)"
               id="use93" />
            <use
               xlink:href="#DejaVuSans-Oblique-65"
               transform="matrix(0.7,0,0,0.7,207.06543,-16.28125)"
               id="use94" />
            <use
               xlink:href="#DejaVuSans-Oblique-69"
               transform="matrix(0.7,0,0,0.7,250.13184,-16.28125)"
               id="use95" />
            <use
               xlink:href="#DejaVuSans-Oblique-67"
               transform="matrix(0.7,0,0,0.7,269.58008,-16.28125)"
               id="use96" />
            <use
               xlink:href="#DejaVuSans-Oblique-68"
               transform="matrix(0.7,0,0,0.7,314.01367,-16.28125)"
               id="use97" />
            <use
               xlink:href="#DejaVuSans-Oblique-74"
               transform="matrix(0.7,0,0,0.7,358.37891,-16.28125)"
               id="use98" />
            <use
               xlink:href="#DejaVuSans-Oblique-65"
               transform="matrix(0.7,0,0,0.7,385.82519,-16.28125)"
               id="use99" />
            <use
               xlink:href="#DejaVuSans-Oblique-64"
               transform="matrix(0.7,0,0,0.7,428.8916,-16.28125)"
               id="use100" />
            <use
               xlink:href="#DejaVuSans-28"
               transform="translate(476.05957,0.125)"
               id="use101" />
            <use
               xlink:href="#DejaVuSans-Oblique-74"
               transform="translate(515.07324,0.125)"
               id="use102" />
            <use
               xlink:href="#DejaVuSans-29"
               transform="translate(554.28223,0.125)"
               id="use103" />
          </g>
        </g>
        <g
           id="line2d_20">
          <path
             d="m 66.6,99.62825 v 0 h 10 v 0 h 10"
             style="fill:none;stroke:#d62728;stroke-width:1.5;stroke-linecap:square"
             id="path103" />
        </g>
        <g
           id="text_18">
          <!-- $Y_{weighted}(t)$ -->
          <g
             transform="matrix(0.1,0,0,-0.1,94.6,103.12825)"
             id="g115">
            <use
               xlink:href="#DejaVuSans-Oblique-59"
               transform="translate(0,0.125)"
               id="use104" />
            <use
               xlink:href="#DejaVuSans-Oblique-77"
               transform="matrix(0.7,0,0,0.7,61.083984,-16.28125)"
               id="use105" />
            <use
               xlink:href="#DejaVuSans-Oblique-65"
               transform="matrix(0.7,0,0,0.7,118.33496,-16.28125)"
               id="use106" />
            <use
               xlink:href="#DejaVuSans-Oblique-69"
               transform="matrix(0.7,0,0,0.7,161.40137,-16.28125)"
               id="use107" />
            <use
               xlink:href="#DejaVuSans-Oblique-67"
               transform="matrix(0.7,0,0,0.7,180.84961,-16.28125)"
               id="use108" />
            <use
               xlink:href="#DejaVuSans-Oblique-68"
               transform="matrix(0.7,0,0,0.7,225.2832,-16.28125)"
               id="use109" />
            <use
               xlink:href="#DejaVuSans-Oblique-74"
               transform="matrix(0.7,0,0,0.7,269.64844,-16.28125)"
               id="use110" />
            <use
               xlink:href="#DejaVuSans-Oblique-65"
               transform="matrix(0.7,0,0,0.7,297.09473,-16.28125)"
               id="use111" />
            <use
               xlink:href="#DejaVuSans-Oblique-64"
               transform="matrix(0.7,0,0,0.7,340.16113,-16.28125)"
               id="use112" />
            <use
               xlink:href="#DejaVuSans-28"
               transform="translate(387.3291,0.125)"
               id="use113" />
            <use
               xlink:href="#DejaVuSans-Oblique-74"
               transform="translate(426.34277,0.125)"
               id="use114" />
            <use
               xlink:href="#DejaVuSans-29"
               transform="translate(465.55176,0.125)"
               id="use115" />
          </g>
        </g>
      </g>
    </g>
  </g>
  <defs
     id="defs115">
    <clipPath
       id="pdcb012d680">
      <rect
         x="57.6"
         y="41.472"
         width="357.12"
         height="266.112"
         id="rect115" />
    </clipPath>
  </defs>
  <path
     style="display:inline;fill:#000000;fill-opacity:1;stroke-width:0.75;stroke-dasharray:2.2499999,2.2499999;stroke:#000000;stroke-opacity:1;stroke-dashoffset:0"
     d="m 57.754691,191.01185 356.601969,-0.009"
     id="path115" />
</svg>
