<?xml version="1.0" encoding="utf-8" standalone="no"?>
<!DOCTYPE svg PUBLIC "-//W3C//DTD SVG 1.1//EN"
  "http://www.w3.org/Graphics/SVG/1.1/DTD/svg11.dtd">
<svg xmlns:xlink="http://www.w3.org/1999/xlink" width="460.8pt" height="345.6pt" viewBox="0 0 460.8 345.6" xmlns="http://www.w3.org/2000/svg" version="1.1">
 <metadata>
  <rdf:RDF xmlns:dc="http://purl.org/dc/elements/1.1/" xmlns:cc="http://creativecommons.org/ns#" xmlns:rdf="http://www.w3.org/1999/02/22-rdf-syntax-ns#">
   <cc:Work>
    <dc:type rdf:resource="http://purl.org/dc/dcmitype/StillImage"/>
    <dc:date>2023-11-10T01:13:07.073778</dc:date>
    <dc:format>image/svg+xml</dc:format>
    <dc:creator>
     <cc:Agent>
      <dc:title>Matplotlib v3.7.2, https://matplotlib.org/</dc:title>
     </cc:Agent>
    </dc:creator>
   </cc:Work>
  </rdf:RDF>
 </metadata>
 <defs>
  <style type="text/css">*{stroke-linejoin: round; stroke-linecap: butt}</style>
 </defs>
 <g id="figure_1">
  <g id="patch_1">
   <path d="M 0 345.6 
L 460.8 345.6 
L 460.8 0 
L 0 0 
z
" style="fill: #ffffff"/>
  </g>
  <g id="axes_1">
   <g id="patch_2">
    <path d="M 57.6 307.584 
L 414.72 307.584 
L 414.72 41.472 
L 57.6 41.472 
z
" style="fill: #ffffff"/>
   </g>
   <g id="matplotlib.axis_1">
    <g id="xtick_1">
     <g id="line2d_1">
      <defs>
       <path id="m7365197301" d="M 0 0 
L 0 3.5 
" style="stroke: #000000; stroke-width: 0.8"/>
      </defs>
      <g>
       <use xlink:href="#m7365197301" x="73.832727" y="307.584" style="stroke: #000000; stroke-width: 0.8"/>
      </g>
     </g>
     <g id="text_1">
      <!-- 0 -->
      <g transform="translate(70.651477 322.182437) scale(0.1 -0.1)">
       <defs>
        <path id="DejaVuSans-30" d="M 2034 4250 
Q 1547 4250 1301 3770 
Q 1056 3291 1056 2328 
Q 1056 1369 1301 889 
Q 1547 409 2034 409 
Q 2525 409 2770 889 
Q 3016 1369 3016 2328 
Q 3016 3291 2770 3770 
Q 2525 4250 2034 4250 
z
M 2034 4750 
Q 2819 4750 3233 4129 
Q 3647 3509 3647 2328 
Q 3647 1150 3233 529 
Q 2819 -91 2034 -91 
Q 1250 -91 836 529 
Q 422 1150 422 2328 
Q 422 3509 836 4129 
Q 1250 4750 2034 4750 
z
" transform="scale(0.015625)"/>
       </defs>
       <use xlink:href="#DejaVuSans-30"/>
      </g>
     </g>
    </g>
    <g id="xtick_2">
     <g id="line2d_2">
      <g>
       <use xlink:href="#m7365197301" x="124.75893" y="307.584" style="stroke: #000000; stroke-width: 0.8"/>
      </g>
     </g>
     <g id="text_2">
      <!-- 2 -->
      <g transform="translate(121.57768 322.182437) scale(0.1 -0.1)">
       <defs>
        <path id="DejaVuSans-32" d="M 1228 531 
L 3431 531 
L 3431 0 
L 469 0 
L 469 531 
Q 828 903 1448 1529 
Q 2069 2156 2228 2338 
Q 2531 2678 2651 2914 
Q 2772 3150 2772 3378 
Q 2772 3750 2511 3984 
Q 2250 4219 1831 4219 
Q 1534 4219 1204 4116 
Q 875 4013 500 3803 
L 500 4441 
Q 881 4594 1212 4672 
Q 1544 4750 1819 4750 
Q 2544 4750 2975 4387 
Q 3406 4025 3406 3419 
Q 3406 3131 3298 2873 
Q 3191 2616 2906 2266 
Q 2828 2175 2409 1742 
Q 1991 1309 1228 531 
z
" transform="scale(0.015625)"/>
       </defs>
       <use xlink:href="#DejaVuSans-32"/>
      </g>
     </g>
    </g>
    <g id="xtick_3">
     <g id="line2d_3">
      <g>
       <use xlink:href="#m7365197301" x="175.685134" y="307.584" style="stroke: #000000; stroke-width: 0.8"/>
      </g>
     </g>
     <g id="text_3">
      <!-- 4 -->
      <g transform="translate(172.503884 322.182437) scale(0.1 -0.1)">
       <defs>
        <path id="DejaVuSans-34" d="M 2419 4116 
L 825 1625 
L 2419 1625 
L 2419 4116 
z
M 2253 4666 
L 3047 4666 
L 3047 1625 
L 3713 1625 
L 3713 1100 
L 3047 1100 
L 3047 0 
L 2419 0 
L 2419 1100 
L 313 1100 
L 313 1709 
L 2253 4666 
z
" transform="scale(0.015625)"/>
       </defs>
       <use xlink:href="#DejaVuSans-34"/>
      </g>
     </g>
    </g>
    <g id="xtick_4">
     <g id="line2d_4">
      <g>
       <use xlink:href="#m7365197301" x="226.611337" y="307.584" style="stroke: #000000; stroke-width: 0.8"/>
      </g>
     </g>
     <g id="text_4">
      <!-- 6 -->
      <g transform="translate(223.430087 322.182437) scale(0.1 -0.1)">
       <defs>
        <path id="DejaVuSans-36" d="M 2113 2584 
Q 1688 2584 1439 2293 
Q 1191 2003 1191 1497 
Q 1191 994 1439 701 
Q 1688 409 2113 409 
Q 2538 409 2786 701 
Q 3034 994 3034 1497 
Q 3034 2003 2786 2293 
Q 2538 2584 2113 2584 
z
M 3366 4563 
L 3366 3988 
Q 3128 4100 2886 4159 
Q 2644 4219 2406 4219 
Q 1781 4219 1451 3797 
Q 1122 3375 1075 2522 
Q 1259 2794 1537 2939 
Q 1816 3084 2150 3084 
Q 2853 3084 3261 2657 
Q 3669 2231 3669 1497 
Q 3669 778 3244 343 
Q 2819 -91 2113 -91 
Q 1303 -91 875 529 
Q 447 1150 447 2328 
Q 447 3434 972 4092 
Q 1497 4750 2381 4750 
Q 2619 4750 2861 4703 
Q 3103 4656 3366 4563 
z
" transform="scale(0.015625)"/>
       </defs>
       <use xlink:href="#DejaVuSans-36"/>
      </g>
     </g>
    </g>
    <g id="xtick_5">
     <g id="line2d_5">
      <g>
       <use xlink:href="#m7365197301" x="277.53754" y="307.584" style="stroke: #000000; stroke-width: 0.8"/>
      </g>
     </g>
     <g id="text_5">
      <!-- 8 -->
      <g transform="translate(274.35629 322.182437) scale(0.1 -0.1)">
       <defs>
        <path id="DejaVuSans-38" d="M 2034 2216 
Q 1584 2216 1326 1975 
Q 1069 1734 1069 1313 
Q 1069 891 1326 650 
Q 1584 409 2034 409 
Q 2484 409 2743 651 
Q 3003 894 3003 1313 
Q 3003 1734 2745 1975 
Q 2488 2216 2034 2216 
z
M 1403 2484 
Q 997 2584 770 2862 
Q 544 3141 544 3541 
Q 544 4100 942 4425 
Q 1341 4750 2034 4750 
Q 2731 4750 3128 4425 
Q 3525 4100 3525 3541 
Q 3525 3141 3298 2862 
Q 3072 2584 2669 2484 
Q 3125 2378 3379 2068 
Q 3634 1759 3634 1313 
Q 3634 634 3220 271 
Q 2806 -91 2034 -91 
Q 1263 -91 848 271 
Q 434 634 434 1313 
Q 434 1759 690 2068 
Q 947 2378 1403 2484 
z
M 1172 3481 
Q 1172 3119 1398 2916 
Q 1625 2713 2034 2713 
Q 2441 2713 2670 2916 
Q 2900 3119 2900 3481 
Q 2900 3844 2670 4047 
Q 2441 4250 2034 4250 
Q 1625 4250 1398 4047 
Q 1172 3844 1172 3481 
z
" transform="scale(0.015625)"/>
       </defs>
       <use xlink:href="#DejaVuSans-38"/>
      </g>
     </g>
    </g>
    <g id="xtick_6">
     <g id="line2d_6">
      <g>
       <use xlink:href="#m7365197301" x="328.463743" y="307.584" style="stroke: #000000; stroke-width: 0.8"/>
      </g>
     </g>
     <g id="text_6">
      <!-- 10 -->
      <g transform="translate(322.101243 322.182437) scale(0.1 -0.1)">
       <defs>
        <path id="DejaVuSans-31" d="M 794 531 
L 1825 531 
L 1825 4091 
L 703 3866 
L 703 4441 
L 1819 4666 
L 2450 4666 
L 2450 531 
L 3481 531 
L 3481 0 
L 794 0 
L 794 531 
z
" transform="scale(0.015625)"/>
       </defs>
       <use xlink:href="#DejaVuSans-31"/>
       <use xlink:href="#DejaVuSans-30" x="63.623047"/>
      </g>
     </g>
    </g>
    <g id="xtick_7">
     <g id="line2d_7">
      <g>
       <use xlink:href="#m7365197301" x="379.389947" y="307.584" style="stroke: #000000; stroke-width: 0.8"/>
      </g>
     </g>
     <g id="text_7">
      <!-- 12 -->
      <g transform="translate(373.027447 322.182437) scale(0.1 -0.1)">
       <use xlink:href="#DejaVuSans-31"/>
       <use xlink:href="#DejaVuSans-32" x="63.623047"/>
      </g>
     </g>
    </g>
    <g id="text_8">
     <!-- t -->
     <g transform="translate(234.199844 335.860562) scale(0.1 -0.1)">
      <defs>
       <path id="DejaVuSans-74" d="M 1172 4494 
L 1172 3500 
L 2356 3500 
L 2356 3053 
L 1172 3053 
L 1172 1153 
Q 1172 725 1289 603 
Q 1406 481 1766 481 
L 2356 481 
L 2356 0 
L 1766 0 
Q 1100 0 847 248 
Q 594 497 594 1153 
L 594 3053 
L 172 3053 
L 172 3500 
L 594 3500 
L 594 4494 
L 1172 4494 
z
" transform="scale(0.015625)"/>
      </defs>
      <use xlink:href="#DejaVuSans-74"/>
     </g>
    </g>
   </g>
   <g id="matplotlib.axis_2">
    <g id="ytick_1">
     <g id="line2d_8">
      <defs>
       <path id="m2de290c75d" d="M 0 0 
L -3.5 0 
" style="stroke: #000000; stroke-width: 0.8"/>
      </defs>
      <g>
       <use xlink:href="#m2de290c75d" x="57.6" y="295.488" style="stroke: #000000; stroke-width: 0.8"/>
      </g>
     </g>
     <g id="text_9">
      <!-- 0 -->
      <g transform="translate(44.2375 299.287219) scale(0.1 -0.1)">
       <use xlink:href="#DejaVuSans-30"/>
      </g>
     </g>
    </g>
    <g id="ytick_2">
     <g id="line2d_9">
      <g>
       <use xlink:href="#m2de290c75d" x="57.6" y="237.997214" style="stroke: #000000; stroke-width: 0.8"/>
      </g>
     </g>
     <g id="text_10">
      <!-- 10 -->
      <g transform="translate(37.875 241.796432) scale(0.1 -0.1)">
       <use xlink:href="#DejaVuSans-31"/>
       <use xlink:href="#DejaVuSans-30" x="63.623047"/>
      </g>
     </g>
    </g>
    <g id="ytick_3">
     <g id="line2d_10">
      <g>
       <use xlink:href="#m2de290c75d" x="57.6" y="180.506427" style="stroke: #000000; stroke-width: 0.8"/>
      </g>
     </g>
     <g id="text_11">
      <!-- 20 -->
      <g transform="translate(37.875 184.305646) scale(0.1 -0.1)">
       <use xlink:href="#DejaVuSans-32"/>
       <use xlink:href="#DejaVuSans-30" x="63.623047"/>
      </g>
     </g>
    </g>
    <g id="ytick_4">
     <g id="line2d_11">
      <g>
       <use xlink:href="#m2de290c75d" x="57.6" y="123.015641" style="stroke: #000000; stroke-width: 0.8"/>
      </g>
     </g>
     <g id="text_12">
      <!-- 30 -->
      <g transform="translate(37.875 126.81486) scale(0.1 -0.1)">
       <defs>
        <path id="DejaVuSans-33" d="M 2597 2516 
Q 3050 2419 3304 2112 
Q 3559 1806 3559 1356 
Q 3559 666 3084 287 
Q 2609 -91 1734 -91 
Q 1441 -91 1130 -33 
Q 819 25 488 141 
L 488 750 
Q 750 597 1062 519 
Q 1375 441 1716 441 
Q 2309 441 2620 675 
Q 2931 909 2931 1356 
Q 2931 1769 2642 2001 
Q 2353 2234 1838 2234 
L 1294 2234 
L 1294 2753 
L 1863 2753 
Q 2328 2753 2575 2939 
Q 2822 3125 2822 3475 
Q 2822 3834 2567 4026 
Q 2313 4219 1838 4219 
Q 1578 4219 1281 4162 
Q 984 4106 628 3988 
L 628 4550 
Q 988 4650 1302 4700 
Q 1616 4750 1894 4750 
Q 2613 4750 3031 4423 
Q 3450 4097 3450 3541 
Q 3450 3153 3228 2886 
Q 3006 2619 2597 2516 
z
" transform="scale(0.015625)"/>
       </defs>
       <use xlink:href="#DejaVuSans-33"/>
       <use xlink:href="#DejaVuSans-30" x="63.623047"/>
      </g>
     </g>
    </g>
    <g id="ytick_5">
     <g id="line2d_12">
      <g>
       <use xlink:href="#m2de290c75d" x="57.6" y="65.524855" style="stroke: #000000; stroke-width: 0.8"/>
      </g>
     </g>
     <g id="text_13">
      <!-- 40 -->
      <g transform="translate(37.875 69.324073) scale(0.1 -0.1)">
       <use xlink:href="#DejaVuSans-34"/>
       <use xlink:href="#DejaVuSans-30" x="63.623047"/>
      </g>
     </g>
    </g>
    <g id="text_14">
     <!-- Degradation -->
     <g transform="translate(31.795312 205.563938) rotate(-90) scale(0.1 -0.1)">
      <defs>
       <path id="DejaVuSans-44" d="M 1259 4147 
L 1259 519 
L 2022 519 
Q 2988 519 3436 956 
Q 3884 1394 3884 2338 
Q 3884 3275 3436 3711 
Q 2988 4147 2022 4147 
L 1259 4147 
z
M 628 4666 
L 1925 4666 
Q 3281 4666 3915 4102 
Q 4550 3538 4550 2338 
Q 4550 1131 3912 565 
Q 3275 0 1925 0 
L 628 0 
L 628 4666 
z
" transform="scale(0.015625)"/>
       <path id="DejaVuSans-65" d="M 3597 1894 
L 3597 1613 
L 953 1613 
Q 991 1019 1311 708 
Q 1631 397 2203 397 
Q 2534 397 2845 478 
Q 3156 559 3463 722 
L 3463 178 
Q 3153 47 2828 -22 
Q 2503 -91 2169 -91 
Q 1331 -91 842 396 
Q 353 884 353 1716 
Q 353 2575 817 3079 
Q 1281 3584 2069 3584 
Q 2775 3584 3186 3129 
Q 3597 2675 3597 1894 
z
M 3022 2063 
Q 3016 2534 2758 2815 
Q 2500 3097 2075 3097 
Q 1594 3097 1305 2825 
Q 1016 2553 972 2059 
L 3022 2063 
z
" transform="scale(0.015625)"/>
       <path id="DejaVuSans-67" d="M 2906 1791 
Q 2906 2416 2648 2759 
Q 2391 3103 1925 3103 
Q 1463 3103 1205 2759 
Q 947 2416 947 1791 
Q 947 1169 1205 825 
Q 1463 481 1925 481 
Q 2391 481 2648 825 
Q 2906 1169 2906 1791 
z
M 3481 434 
Q 3481 -459 3084 -895 
Q 2688 -1331 1869 -1331 
Q 1566 -1331 1297 -1286 
Q 1028 -1241 775 -1147 
L 775 -588 
Q 1028 -725 1275 -790 
Q 1522 -856 1778 -856 
Q 2344 -856 2625 -561 
Q 2906 -266 2906 331 
L 2906 616 
Q 2728 306 2450 153 
Q 2172 0 1784 0 
Q 1141 0 747 490 
Q 353 981 353 1791 
Q 353 2603 747 3093 
Q 1141 3584 1784 3584 
Q 2172 3584 2450 3431 
Q 2728 3278 2906 2969 
L 2906 3500 
L 3481 3500 
L 3481 434 
z
" transform="scale(0.015625)"/>
       <path id="DejaVuSans-72" d="M 2631 2963 
Q 2534 3019 2420 3045 
Q 2306 3072 2169 3072 
Q 1681 3072 1420 2755 
Q 1159 2438 1159 1844 
L 1159 0 
L 581 0 
L 581 3500 
L 1159 3500 
L 1159 2956 
Q 1341 3275 1631 3429 
Q 1922 3584 2338 3584 
Q 2397 3584 2469 3576 
Q 2541 3569 2628 3553 
L 2631 2963 
z
" transform="scale(0.015625)"/>
       <path id="DejaVuSans-61" d="M 2194 1759 
Q 1497 1759 1228 1600 
Q 959 1441 959 1056 
Q 959 750 1161 570 
Q 1363 391 1709 391 
Q 2188 391 2477 730 
Q 2766 1069 2766 1631 
L 2766 1759 
L 2194 1759 
z
M 3341 1997 
L 3341 0 
L 2766 0 
L 2766 531 
Q 2569 213 2275 61 
Q 1981 -91 1556 -91 
Q 1019 -91 701 211 
Q 384 513 384 1019 
Q 384 1609 779 1909 
Q 1175 2209 1959 2209 
L 2766 2209 
L 2766 2266 
Q 2766 2663 2505 2880 
Q 2244 3097 1772 3097 
Q 1472 3097 1187 3025 
Q 903 2953 641 2809 
L 641 3341 
Q 956 3463 1253 3523 
Q 1550 3584 1831 3584 
Q 2591 3584 2966 3190 
Q 3341 2797 3341 1997 
z
" transform="scale(0.015625)"/>
       <path id="DejaVuSans-64" d="M 2906 2969 
L 2906 4863 
L 3481 4863 
L 3481 0 
L 2906 0 
L 2906 525 
Q 2725 213 2448 61 
Q 2172 -91 1784 -91 
Q 1150 -91 751 415 
Q 353 922 353 1747 
Q 353 2572 751 3078 
Q 1150 3584 1784 3584 
Q 2172 3584 2448 3432 
Q 2725 3281 2906 2969 
z
M 947 1747 
Q 947 1113 1208 752 
Q 1469 391 1925 391 
Q 2381 391 2643 752 
Q 2906 1113 2906 1747 
Q 2906 2381 2643 2742 
Q 2381 3103 1925 3103 
Q 1469 3103 1208 2742 
Q 947 2381 947 1747 
z
" transform="scale(0.015625)"/>
       <path id="DejaVuSans-69" d="M 603 3500 
L 1178 3500 
L 1178 0 
L 603 0 
L 603 3500 
z
M 603 4863 
L 1178 4863 
L 1178 4134 
L 603 4134 
L 603 4863 
z
" transform="scale(0.015625)"/>
       <path id="DejaVuSans-6f" d="M 1959 3097 
Q 1497 3097 1228 2736 
Q 959 2375 959 1747 
Q 959 1119 1226 758 
Q 1494 397 1959 397 
Q 2419 397 2687 759 
Q 2956 1122 2956 1747 
Q 2956 2369 2687 2733 
Q 2419 3097 1959 3097 
z
M 1959 3584 
Q 2709 3584 3137 3096 
Q 3566 2609 3566 1747 
Q 3566 888 3137 398 
Q 2709 -91 1959 -91 
Q 1206 -91 779 398 
Q 353 888 353 1747 
Q 353 2609 779 3096 
Q 1206 3584 1959 3584 
z
" transform="scale(0.015625)"/>
       <path id="DejaVuSans-6e" d="M 3513 2113 
L 3513 0 
L 2938 0 
L 2938 2094 
Q 2938 2591 2744 2837 
Q 2550 3084 2163 3084 
Q 1697 3084 1428 2787 
Q 1159 2491 1159 1978 
L 1159 0 
L 581 0 
L 581 3500 
L 1159 3500 
L 1159 2956 
Q 1366 3272 1645 3428 
Q 1925 3584 2291 3584 
Q 2894 3584 3203 3211 
Q 3513 2838 3513 2113 
z
" transform="scale(0.015625)"/>
      </defs>
      <use xlink:href="#DejaVuSans-44"/>
      <use xlink:href="#DejaVuSans-65" x="77.001953"/>
      <use xlink:href="#DejaVuSans-67" x="138.525391"/>
      <use xlink:href="#DejaVuSans-72" x="202.001953"/>
      <use xlink:href="#DejaVuSans-61" x="243.115234"/>
      <use xlink:href="#DejaVuSans-64" x="304.394531"/>
      <use xlink:href="#DejaVuSans-61" x="367.871094"/>
      <use xlink:href="#DejaVuSans-74" x="429.150391"/>
      <use xlink:href="#DejaVuSans-69" x="468.359375"/>
      <use xlink:href="#DejaVuSans-6f" x="496.142578"/>
      <use xlink:href="#DejaVuSans-6e" x="557.324219"/>
     </g>
    </g>
   </g>
   <g id="line2d_13">
    <path d="M 73.832727 295.488 
L 73.832727 295.488 
L 80.198503 295.488 
L 80.198503 295.487985 
L 86.564278 295.487985 
L 86.564278 295.487982 
L 92.930053 295.487982 
L 92.930053 295.487982 
L 99.295829 295.487982 
L 99.295829 295.318357 
L 105.661604 295.318357 
L 105.661604 293.503582 
L 112.02738 293.503582 
L 112.02738 293.126484 
L 118.393155 293.126484 
L 118.393155 292.659926 
L 124.75893 292.659926 
L 124.75893 291.898239 
L 131.124706 291.898239 
L 131.124706 286.870226 
L 137.490481 286.870226 
L 137.490481 286.713154 
L 143.856257 286.713154 
L 143.856257 286.418384 
L 150.222032 286.418384 
L 150.222032 286.41646 
L 156.587807 286.41646 
L 156.587807 286.261371 
L 162.953583 286.261371 
L 162.953583 286.166091 
L 169.319358 286.166091 
L 169.319358 268.59058 
L 175.685134 268.59058 
L 175.685134 267.01283 
L 182.050909 267.01283 
L 182.050909 266.769745 
L 188.416684 266.769745 
L 188.416684 264.661069 
L 194.78246 264.661069 
L 194.78246 264.238133 
L 201.148235 264.238133 
L 201.148235 264.181541 
L 207.514011 264.181541 
L 207.514011 263.028047 
L 213.879786 263.028047 
L 213.879786 259.092097 
L 220.245561 259.092097 
L 220.245561 246.020698 
L 226.611337 246.020698 
L 226.611337 245.479045 
L 232.977112 245.479045 
L 232.977112 243.860834 
L 239.342888 243.860834 
L 239.342888 239.586128 
L 245.708663 239.586128 
L 245.708663 238.045356 
L 252.074439 238.045356 
L 252.074439 235.141864 
L 258.440214 235.141864 
L 258.440214 234.807199 
L 264.805989 234.807199 
L 264.805989 229.128254 
L 271.171765 229.128254 
L 271.171765 218.646291 
L 277.53754 218.646291 
L 277.53754 217.102281 
L 283.903316 217.102281 
L 283.903316 209.995716 
L 290.269091 209.995716 
L 290.269091 206.488412 
L 296.634866 206.488412 
L 296.634866 187.078016 
L 303.000642 187.078016 
L 303.000642 185.294415 
L 309.366417 185.294415 
L 309.366417 177.507391 
L 315.732193 177.507391 
L 315.732193 170.528336 
L 322.097968 170.528336 
L 322.097968 166.68371 
L 328.463743 166.68371 
L 328.463743 155.703895 
L 334.829519 155.703895 
L 334.829519 146.859455 
L 341.195294 146.859455 
L 341.195294 135.954217 
L 347.56107 135.954217 
L 347.56107 135.674886 
L 353.926845 135.674886 
L 353.926845 132.470131 
L 360.29262 132.470131 
L 360.29262 128.445796 
L 366.658396 128.445796 
L 366.658396 125.353872 
L 373.024171 125.353872 
L 373.024171 116.384176 
L 379.389947 116.384176 
L 379.389947 109.055177 
L 385.755722 109.055177 
L 385.755722 105.441478 
L 392.121497 105.441478 
L 392.121497 101.489999 
L 398.487273 101.489999 
" clip-path="url(#p9e5d2cb63d)" style="fill: none; stroke: #1f77b4; stroke-width: 1.5; stroke-linecap: square"/>
   </g>
   <g id="line2d_14">
    <path d="M 73.832727 295.488 
L 73.832727 295.488 
L 80.198503 295.488 
L 80.198503 295.487976 
L 86.564278 295.487976 
L 86.564278 295.487976 
L 92.930053 295.487976 
L 92.930053 295.487976 
L 99.295829 295.487976 
L 99.295829 295.487976 
L 105.661604 295.487976 
L 105.661604 295.469828 
L 112.02738 295.469828 
L 112.02738 295.469821 
L 118.393155 295.469821 
L 118.393155 295.469287 
L 124.75893 295.469287 
L 124.75893 293.555589 
L 131.124706 293.555589 
L 131.124706 293.555575 
L 137.490481 293.555575 
L 137.490481 293.499103 
L 143.856257 293.499103 
L 143.856257 293.48629 
L 150.222032 293.48629 
L 150.222032 293.486012 
L 156.587807 293.486012 
L 156.587807 293.465587 
L 162.953583 293.465587 
L 162.953583 292.79695 
L 169.319358 292.79695 
L 169.319358 292.60451 
L 175.685134 292.60451 
L 175.685134 292.424142 
L 182.050909 292.424142 
L 182.050909 292.423083 
L 188.416684 292.423083 
L 188.416684 291.883339 
L 194.78246 291.883339 
L 194.78246 291.862957 
L 201.148235 291.862957 
L 201.148235 291.639288 
L 207.514011 291.639288 
L 207.514011 291.508981 
L 213.879786 291.508981 
L 213.879786 291.227867 
L 220.245561 291.227867 
L 220.245561 291.06579 
L 226.611337 291.06579 
L 226.611337 290.018864 
L 232.977112 290.018864 
L 232.977112 290.018503 
L 239.342888 290.018503 
L 239.342888 290.015934 
L 245.708663 290.015934 
L 245.708663 288.800833 
L 252.074439 288.800833 
L 252.074439 287.981526 
L 258.440214 287.981526 
L 258.440214 287.345259 
L 264.805989 287.345259 
L 264.805989 286.634855 
L 271.171765 286.634855 
L 271.171765 284.74467 
L 277.53754 284.74467 
L 277.53754 284.623511 
L 283.903316 284.623511 
L 283.903316 283.944388 
L 290.269091 283.944388 
L 290.269091 283.679194 
L 296.634866 283.679194 
L 296.634866 283.644429 
L 303.000642 283.644429 
L 303.000642 283.464803 
L 309.366417 283.464803 
L 309.366417 282.115984 
L 315.732193 282.115984 
L 315.732193 282.044527 
L 322.097968 282.044527 
L 322.097968 281.635931 
L 328.463743 281.635931 
L 328.463743 281.454222 
L 334.829519 281.454222 
L 334.829519 277.671602 
L 341.195294 277.671602 
L 341.195294 277.039576 
L 347.56107 277.039576 
L 347.56107 276.121251 
L 353.926845 276.121251 
L 353.926845 276.025479 
L 360.29262 276.025479 
L 360.29262 275.259475 
L 366.658396 275.259475 
L 366.658396 272.836577 
L 373.024171 272.836577 
L 373.024171 271.376694 
L 379.389947 271.376694 
L 379.389947 271.055491 
L 385.755722 271.055491 
L 385.755722 270.58055 
L 392.121497 270.58055 
L 392.121497 269.109735 
L 398.487273 269.109735 
" clip-path="url(#p9e5d2cb63d)" style="fill: none; stroke: #ff7f0e; stroke-width: 1.5; stroke-linecap: square"/>
   </g>
   <g id="line2d_15">
    <path d="M 73.832727 295.488 
L 73.832727 295.488 
L 80.198503 295.488 
L 80.198503 295.487548 
L 86.564278 295.487548 
L 86.564278 295.237701 
L 92.930053 295.237701 
L 92.930053 295.226972 
L 99.295829 295.226972 
L 99.295829 294.952037 
L 105.661604 294.952037 
L 105.661604 294.949258 
L 112.02738 294.949258 
L 112.02738 293.775856 
L 118.393155 293.775856 
L 118.393155 292.581537 
L 124.75893 292.581537 
L 124.75893 292.091115 
L 131.124706 292.091115 
L 131.124706 290.864202 
L 137.490481 290.864202 
L 137.490481 287.71753 
L 143.856257 287.71753 
L 143.856257 279.138318 
L 150.222032 279.138318 
L 150.222032 279.120798 
L 156.587807 279.120798 
L 156.587807 276.962295 
L 162.953583 276.962295 
L 162.953583 276.216428 
L 169.319358 276.216428 
L 169.319358 273.895053 
L 175.685134 273.895053 
L 175.685134 273.402274 
L 182.050909 273.402274 
L 182.050909 273.312446 
L 188.416684 273.312446 
L 188.416684 263.92917 
L 194.78246 263.92917 
L 194.78246 255.343342 
L 201.148235 255.343342 
L 201.148235 255.163939 
L 207.514011 255.163939 
L 207.514011 244.199909 
L 213.879786 244.199909 
L 213.879786 243.281798 
L 220.245561 243.281798 
L 220.245561 230.740083 
L 226.611337 230.740083 
L 226.611337 229.322278 
L 232.977112 229.322278 
L 232.977112 223.650297 
L 239.342888 223.650297 
L 239.342888 200.862424 
L 245.708663 200.862424 
L 245.708663 173.051928 
L 252.074439 173.051928 
L 252.074439 169.05825 
L 258.440214 169.05825 
L 258.440214 169.041799 
L 264.805989 169.041799 
L 264.805989 165.447398 
L 271.171765 165.447398 
L 271.171765 157.573557 
L 277.53754 157.573557 
L 277.53754 140.358973 
L 283.903316 140.358973 
L 283.903316 136.025945 
L 290.269091 136.025945 
L 290.269091 124.005746 
L 296.634866 124.005746 
L 296.634866 118.650656 
L 303.000642 118.650656 
L 303.000642 114.461969 
L 309.366417 114.461969 
L 309.366417 109.782394 
L 315.732193 109.782394 
L 315.732193 105.540122 
L 322.097968 105.540122 
L 322.097968 103.043218 
L 328.463743 103.043218 
L 328.463743 100.881577 
L 334.829519 100.881577 
L 334.829519 94.410413 
L 341.195294 94.410413 
L 341.195294 93.868975 
L 347.56107 93.868975 
L 347.56107 91.783084 
L 353.926845 91.783084 
L 353.926845 89.52527 
L 360.29262 89.52527 
L 360.29262 81.658879 
L 366.658396 81.658879 
L 366.658396 77.491812 
L 373.024171 77.491812 
L 373.024171 73.678895 
L 379.389947 73.678895 
L 379.389947 62.074445 
L 385.755722 62.074445 
L 385.755722 58.201691 
L 392.121497 58.201691 
L 392.121497 53.568 
L 398.487273 53.568 
" clip-path="url(#p9e5d2cb63d)" style="fill: none; stroke: #2ca02c; stroke-width: 1.5; stroke-linecap: square"/>
   </g>
   <g id="line2d_16">
    <path d="M 73.832727 295.488 
L 73.832727 295.337164 
L 80.198503 295.337164 
L 80.198503 295.336872 
L 86.564278 295.336872 
L 86.564278 295.336872 
L 92.930053 295.336872 
L 92.930053 295.336871 
L 99.295829 295.336871 
L 99.295829 295.336871 
L 105.661604 295.336871 
L 105.661604 292.89273 
L 112.02738 292.89273 
L 112.02738 292.591717 
L 118.393155 292.591717 
L 118.393155 292.591157 
L 124.75893 292.591157 
L 124.75893 292.587817 
L 131.124706 292.587817 
L 131.124706 291.800606 
L 137.490481 291.800606 
L 137.490481 291.7995 
L 143.856257 291.7995 
L 143.856257 291.496613 
L 150.222032 291.496613 
L 150.222032 291.046618 
L 156.587807 291.046618 
L 156.587807 290.868016 
L 162.953583 290.868016 
L 162.953583 290.852797 
L 169.319358 290.852797 
L 169.319358 290.74706 
L 175.685134 290.74706 
L 175.685134 290.633643 
L 182.050909 290.633643 
L 182.050909 290.571475 
L 188.416684 290.571475 
L 188.416684 287.22053 
L 194.78246 287.22053 
L 194.78246 287.093152 
L 201.148235 287.093152 
L 201.148235 285.539266 
L 207.514011 285.539266 
L 207.514011 282.86054 
L 213.879786 282.86054 
L 213.879786 281.929321 
L 220.245561 281.929321 
L 220.245561 280.170344 
L 226.611337 280.170344 
L 226.611337 278.110186 
L 232.977112 278.110186 
L 232.977112 277.795817 
L 239.342888 277.795817 
L 239.342888 277.67874 
L 245.708663 277.67874 
L 245.708663 277.508824 
L 252.074439 277.508824 
L 252.074439 270.156371 
L 258.440214 270.156371 
L 258.440214 265.218275 
L 264.805989 265.218275 
L 264.805989 264.433174 
L 271.171765 264.433174 
L 271.171765 263.805484 
L 277.53754 263.805484 
L 277.53754 262.875858 
L 283.903316 262.875858 
L 283.903316 260.918522 
L 290.269091 260.918522 
L 290.269091 260.712278 
L 296.634866 260.712278 
L 296.634866 258.480753 
L 303.000642 258.480753 
L 303.000642 258.042551 
L 309.366417 258.042551 
L 309.366417 256.241421 
L 315.732193 256.241421 
L 315.732193 253.640743 
L 322.097968 253.640743 
L 322.097968 246.210727 
L 328.463743 246.210727 
L 328.463743 245.772298 
L 334.829519 245.772298 
L 334.829519 243.620348 
L 341.195294 243.620348 
L 341.195294 239.515813 
L 347.56107 239.515813 
L 347.56107 237.43577 
L 353.926845 237.43577 
L 353.926845 231.727506 
L 360.29262 231.727506 
L 360.29262 227.553616 
L 366.658396 227.553616 
L 366.658396 225.335542 
L 373.024171 225.335542 
L 373.024171 224.158917 
L 379.389947 224.158917 
L 379.389947 220.934772 
L 385.755722 220.934772 
L 385.755722 218.208075 
L 392.121497 218.208075 
L 392.121497 214.847135 
L 398.487273 214.847135 
" clip-path="url(#p9e5d2cb63d)" style="fill: none; stroke: #d62728; stroke-width: 1.5; stroke-linecap: square"/>
   </g>
   <g id="patch_3">
    <path d="M 57.6 307.584 
L 57.6 41.472 
" style="fill: none; stroke: #000000; stroke-width: 0.8; stroke-linejoin: miter; stroke-linecap: square"/>
   </g>
   <g id="patch_4">
    <path d="M 414.72 307.584 
L 414.72 41.472 
" style="fill: none; stroke: #000000; stroke-width: 0.8; stroke-linejoin: miter; stroke-linecap: square"/>
   </g>
   <g id="patch_5">
    <path d="M 57.6 307.584 
L 414.72 307.584 
" style="fill: none; stroke: #000000; stroke-width: 0.8; stroke-linejoin: miter; stroke-linecap: square"/>
   </g>
   <g id="patch_6">
    <path d="M 57.6 41.472 
L 414.72 41.472 
" style="fill: none; stroke: #000000; stroke-width: 0.8; stroke-linejoin: miter; stroke-linecap: square"/>
   </g>
   <g id="legend_1">
    <g id="patch_7">
     <path d="M 64.6 109.206375 
L 156 109.206375 
Q 158 109.206375 158 107.206375 
L 158 48.472 
Q 158 46.472 156 46.472 
L 64.6 46.472 
Q 62.6 46.472 62.6 48.472 
L 62.6 107.206375 
Q 62.6 109.206375 64.6 109.206375 
z
" style="fill: #ffffff; opacity: 0.8; stroke: #cccccc; stroke-linejoin: miter"/>
    </g>
    <g id="line2d_17">
     <path d="M 66.6 54.570438 
L 66.6 54.570438 
L 76.6 54.570438 
L 76.6 54.570438 
L 86.6 54.570438 
" style="fill: none; stroke: #1f77b4; stroke-width: 1.5; stroke-linecap: square"/>
    </g>
    <g id="text_15">
     <!-- $X_1(t)$ -->
     <g transform="translate(94.6 58.070438) scale(0.1 -0.1)">
      <defs>
       <path id="DejaVuSans-Oblique-58" d="M 878 4666 
L 1516 4666 
L 2316 2981 
L 3763 4666 
L 4500 4666 
L 2578 2438 
L 3738 0 
L 3103 0 
L 2163 1966 
L 459 0 
L -275 0 
L 1906 2509 
L 878 4666 
z
" transform="scale(0.015625)"/>
       <path id="DejaVuSans-28" d="M 1984 4856 
Q 1566 4138 1362 3434 
Q 1159 2731 1159 2009 
Q 1159 1288 1364 580 
Q 1569 -128 1984 -844 
L 1484 -844 
Q 1016 -109 783 600 
Q 550 1309 550 2009 
Q 550 2706 781 3412 
Q 1013 4119 1484 4856 
L 1984 4856 
z
" transform="scale(0.015625)"/>
       <path id="DejaVuSans-Oblique-74" d="M 2706 3500 
L 2619 3053 
L 1472 3053 
L 1100 1153 
Q 1081 1047 1072 975 
Q 1063 903 1063 863 
Q 1063 663 1183 572 
Q 1303 481 1569 481 
L 2150 481 
L 2053 0 
L 1503 0 
Q 991 0 739 200 
Q 488 400 488 806 
Q 488 878 497 964 
Q 506 1050 525 1153 
L 897 3053 
L 409 3053 
L 500 3500 
L 978 3500 
L 1172 4494 
L 1747 4494 
L 1556 3500 
L 2706 3500 
z
" transform="scale(0.015625)"/>
       <path id="DejaVuSans-29" d="M 513 4856 
L 1013 4856 
Q 1481 4119 1714 3412 
Q 1947 2706 1947 2009 
Q 1947 1309 1714 600 
Q 1481 -109 1013 -844 
L 513 -844 
Q 928 -128 1133 580 
Q 1338 1288 1338 2009 
Q 1338 2731 1133 3434 
Q 928 4138 513 4856 
z
" transform="scale(0.015625)"/>
      </defs>
      <use xlink:href="#DejaVuSans-Oblique-58" transform="translate(0 0.125)"/>
      <use xlink:href="#DejaVuSans-31" transform="translate(68.505859 -16.28125) scale(0.7)"/>
      <use xlink:href="#DejaVuSans-28" transform="translate(115.776367 0.125)"/>
      <use xlink:href="#DejaVuSans-Oblique-74" transform="translate(154.790039 0.125)"/>
      <use xlink:href="#DejaVuSans-29" transform="translate(193.999023 0.125)"/>
     </g>
    </g>
    <g id="line2d_18">
     <path d="M 66.6 69.248563 
L 66.6 69.248563 
L 76.6 69.248563 
L 76.6 69.248563 
L 86.6 69.248563 
" style="fill: none; stroke: #ff7f0e; stroke-width: 1.5; stroke-linecap: square"/>
    </g>
    <g id="text_16">
     <!-- $X_2(t)$ -->
     <g transform="translate(94.6 72.748563) scale(0.1 -0.1)">
      <use xlink:href="#DejaVuSans-Oblique-58" transform="translate(0 0.125)"/>
      <use xlink:href="#DejaVuSans-32" transform="translate(68.505859 -16.28125) scale(0.7)"/>
      <use xlink:href="#DejaVuSans-28" transform="translate(115.776367 0.125)"/>
      <use xlink:href="#DejaVuSans-Oblique-74" transform="translate(154.790039 0.125)"/>
      <use xlink:href="#DejaVuSans-29" transform="translate(193.999023 0.125)"/>
     </g>
    </g>
    <g id="line2d_19">
     <path d="M 66.6 83.92825 
L 66.6 83.92825 
L 76.6 83.92825 
L 76.6 83.92825 
L 86.6 83.92825 
" style="fill: none; stroke: #2ca02c; stroke-width: 1.5; stroke-linecap: square"/>
    </g>
    <g id="text_17">
     <!-- $Y_{unweighted}(t)$ -->
     <g transform="translate(94.6 87.42825) scale(0.1 -0.1)">
      <defs>
       <path id="DejaVuSans-Oblique-59" d="M 403 4666 
L 1081 4666 
L 1953 2747 
L 3616 4666 
L 4325 4666 
L 2209 2222 
L 1778 0 
L 1147 0 
L 1575 2222 
L 403 4666 
z
" transform="scale(0.015625)"/>
       <path id="DejaVuSans-Oblique-75" d="M 428 1388 
L 838 3500 
L 1416 3500 
L 1006 1409 
Q 975 1256 961 1147 
Q 947 1038 947 966 
Q 947 700 1109 554 
Q 1272 409 1569 409 
Q 2031 409 2368 721 
Q 2706 1034 2809 1563 
L 3194 3500 
L 3769 3500 
L 3091 0 
L 2516 0 
L 2631 550 
Q 2388 244 2052 76 
Q 1716 -91 1338 -91 
Q 878 -91 622 161 
Q 366 413 366 863 
Q 366 956 381 1097 
Q 397 1238 428 1388 
z
" transform="scale(0.015625)"/>
       <path id="DejaVuSans-Oblique-6e" d="M 3566 2113 
L 3156 0 
L 2578 0 
L 2988 2091 
Q 3016 2238 3031 2350 
Q 3047 2463 3047 2528 
Q 3047 2791 2881 2937 
Q 2716 3084 2419 3084 
Q 1956 3084 1622 2776 
Q 1288 2469 1184 1941 
L 800 0 
L 225 0 
L 903 3500 
L 1478 3500 
L 1363 2950 
Q 1603 3253 1940 3418 
Q 2278 3584 2650 3584 
Q 3113 3584 3367 3334 
Q 3622 3084 3622 2631 
Q 3622 2519 3608 2391 
Q 3594 2263 3566 2113 
z
" transform="scale(0.015625)"/>
       <path id="DejaVuSans-Oblique-77" d="M 544 3500 
L 1113 3500 
L 1259 684 
L 2566 3500 
L 3231 3500 
L 3425 684 
L 4666 3500 
L 5241 3500 
L 3641 0 
L 2969 0 
L 2797 2900 
L 1459 0 
L 781 0 
L 544 3500 
z
" transform="scale(0.015625)"/>
       <path id="DejaVuSans-Oblique-65" d="M 3078 2063 
Q 3088 2113 3092 2166 
Q 3097 2219 3097 2272 
Q 3097 2653 2873 2875 
Q 2650 3097 2266 3097 
Q 1838 3097 1509 2826 
Q 1181 2556 1013 2059 
L 3078 2063 
z
M 3578 1613 
L 903 1613 
Q 884 1494 878 1425 
Q 872 1356 872 1306 
Q 872 872 1139 634 
Q 1406 397 1894 397 
Q 2269 397 2603 481 
Q 2938 566 3225 728 
L 3116 159 
Q 2806 34 2476 -28 
Q 2147 -91 1806 -91 
Q 1078 -91 686 257 
Q 294 606 294 1247 
Q 294 1794 489 2264 
Q 684 2734 1063 3103 
Q 1306 3334 1642 3459 
Q 1978 3584 2356 3584 
Q 2950 3584 3301 3228 
Q 3653 2872 3653 2272 
Q 3653 2128 3634 1964 
Q 3616 1800 3578 1613 
z
" transform="scale(0.015625)"/>
       <path id="DejaVuSans-Oblique-69" d="M 1172 4863 
L 1747 4863 
L 1606 4134 
L 1031 4134 
L 1172 4863 
z
M 909 3500 
L 1484 3500 
L 800 0 
L 225 0 
L 909 3500 
z
" transform="scale(0.015625)"/>
       <path id="DejaVuSans-Oblique-67" d="M 3816 3500 
L 3219 434 
Q 3047 -456 2561 -893 
Q 2075 -1331 1253 -1331 
Q 950 -1331 690 -1286 
Q 431 -1241 206 -1147 
L 313 -588 
Q 525 -725 762 -790 
Q 1000 -856 1269 -856 
Q 1816 -856 2167 -557 
Q 2519 -259 2631 300 
L 2681 563 
Q 2441 288 2122 144 
Q 1803 0 1434 0 
Q 903 0 598 351 
Q 294 703 294 1319 
Q 294 1803 478 2267 
Q 663 2731 997 3091 
Q 1219 3328 1514 3456 
Q 1809 3584 2131 3584 
Q 2484 3584 2746 3420 
Q 3009 3256 3138 2956 
L 3238 3500 
L 3816 3500 
z
M 2950 2216 
Q 2950 2641 2750 2872 
Q 2550 3103 2181 3103 
Q 1953 3103 1747 3012 
Q 1541 2922 1394 2759 
Q 1156 2491 1023 2127 
Q 891 1763 891 1375 
Q 891 944 1092 712 
Q 1294 481 1672 481 
Q 2219 481 2584 976 
Q 2950 1472 2950 2216 
z
" transform="scale(0.015625)"/>
       <path id="DejaVuSans-Oblique-68" d="M 3566 2113 
L 3156 0 
L 2578 0 
L 2988 2091 
Q 3016 2238 3031 2350 
Q 3047 2463 3047 2528 
Q 3047 2791 2881 2937 
Q 2716 3084 2419 3084 
Q 1956 3084 1617 2771 
Q 1278 2459 1178 1941 
L 800 0 
L 225 0 
L 1172 4863 
L 1747 4863 
L 1375 2950 
Q 1594 3244 1934 3414 
Q 2275 3584 2650 3584 
Q 3113 3584 3367 3334 
Q 3622 3084 3622 2631 
Q 3622 2519 3608 2391 
Q 3594 2263 3566 2113 
z
" transform="scale(0.015625)"/>
       <path id="DejaVuSans-Oblique-64" d="M 2675 525 
Q 2444 222 2128 65 
Q 1813 -91 1428 -91 
Q 903 -91 598 267 
Q 294 625 294 1247 
Q 294 1766 478 2236 
Q 663 2706 1013 3078 
Q 1244 3325 1534 3454 
Q 1825 3584 2144 3584 
Q 2481 3584 2739 3421 
Q 2997 3259 3138 2956 
L 3513 4863 
L 4091 4863 
L 3144 0 
L 2566 0 
L 2675 525 
z
M 891 1350 
Q 891 897 1095 644 
Q 1300 391 1663 391 
Q 1931 391 2161 520 
Q 2391 650 2566 903 
Q 2750 1166 2856 1509 
Q 2963 1853 2963 2188 
Q 2963 2622 2758 2865 
Q 2553 3109 2194 3109 
Q 1922 3109 1687 2981 
Q 1453 2853 1288 2613 
Q 1106 2353 998 2009 
Q 891 1666 891 1350 
z
" transform="scale(0.015625)"/>
      </defs>
      <use xlink:href="#DejaVuSans-Oblique-59" transform="translate(0 0.125)"/>
      <use xlink:href="#DejaVuSans-Oblique-75" transform="translate(61.083984 -16.28125) scale(0.7)"/>
      <use xlink:href="#DejaVuSans-Oblique-6e" transform="translate(105.449219 -16.28125) scale(0.7)"/>
      <use xlink:href="#DejaVuSans-Oblique-77" transform="translate(149.814453 -16.28125) scale(0.7)"/>
      <use xlink:href="#DejaVuSans-Oblique-65" transform="translate(207.06543 -16.28125) scale(0.7)"/>
      <use xlink:href="#DejaVuSans-Oblique-69" transform="translate(250.131836 -16.28125) scale(0.7)"/>
      <use xlink:href="#DejaVuSans-Oblique-67" transform="translate(269.580078 -16.28125) scale(0.7)"/>
      <use xlink:href="#DejaVuSans-Oblique-68" transform="translate(314.013672 -16.28125) scale(0.7)"/>
      <use xlink:href="#DejaVuSans-Oblique-74" transform="translate(358.378906 -16.28125) scale(0.7)"/>
      <use xlink:href="#DejaVuSans-Oblique-65" transform="translate(385.825195 -16.28125) scale(0.7)"/>
      <use xlink:href="#DejaVuSans-Oblique-64" transform="translate(428.891602 -16.28125) scale(0.7)"/>
      <use xlink:href="#DejaVuSans-28" transform="translate(476.05957 0.125)"/>
      <use xlink:href="#DejaVuSans-Oblique-74" transform="translate(515.073242 0.125)"/>
      <use xlink:href="#DejaVuSans-29" transform="translate(554.282227 0.125)"/>
     </g>
    </g>
    <g id="line2d_20">
     <path d="M 66.6 99.626688 
L 66.6 99.626688 
L 76.6 99.626688 
L 76.6 99.626688 
L 86.6 99.626688 
" style="fill: none; stroke: #d62728; stroke-width: 1.5; stroke-linecap: square"/>
    </g>
    <g id="text_18">
     <!-- $Y(t)$ -->
     <g transform="translate(94.6 103.126688) scale(0.1 -0.1)">
      <use xlink:href="#DejaVuSans-Oblique-59" transform="translate(0 0.125)"/>
      <use xlink:href="#DejaVuSans-28" transform="translate(61.083984 0.125)"/>
      <use xlink:href="#DejaVuSans-Oblique-74" transform="translate(100.097656 0.125)"/>
      <use xlink:href="#DejaVuSans-29" transform="translate(139.306641 0.125)"/>
     </g>
    </g>
   </g>
  </g>
 </g>
 <defs>
  <clipPath id="p9e5d2cb63d">
   <rect x="57.6" y="41.472" width="357.12" height="266.112"/>
  </clipPath>
 </defs>
</svg>
