<?xml version="1.0" encoding="utf-8" standalone="no"?>
<!DOCTYPE svg PUBLIC "-//W3C//DTD SVG 1.1//EN"
  "http://www.w3.org/Graphics/SVG/1.1/DTD/svg11.dtd">
<svg xmlns:xlink="http://www.w3.org/1999/xlink" width="460.8pt" height="345.6pt" viewBox="0 0 460.8 345.6" xmlns="http://www.w3.org/2000/svg" version="1.1">
 <metadata>
  <rdf:RDF xmlns:dc="http://purl.org/dc/elements/1.1/" xmlns:cc="http://creativecommons.org/ns#" xmlns:rdf="http://www.w3.org/1999/02/22-rdf-syntax-ns#">
   <cc:Work>
    <dc:type rdf:resource="http://purl.org/dc/dcmitype/StillImage"/>
    <dc:date>2023-10-27T22:22:43.849369</dc:date>
    <dc:format>image/svg+xml</dc:format>
    <dc:creator>
     <cc:Agent>
      <dc:title>Matplotlib v3.7.2, https://matplotlib.org/</dc:title>
     </cc:Agent>
    </dc:creator>
   </cc:Work>
  </rdf:RDF>
 </metadata>
 <defs>
  <style type="text/css">*{stroke-linejoin: round; stroke-linecap: butt}</style>
 </defs>
 <g id="figure_1">
  <g id="patch_1">
   <path d="M 0 345.6 
L 460.8 345.6 
L 460.8 0 
L 0 0 
z
" style="fill: #ffffff"/>
  </g>
  <g id="axes_1">
   <g id="patch_2">
    <path d="M 57.6 307.584 
L 414.72 307.584 
L 414.72 41.472 
L 57.6 41.472 
z
" style="fill: #ffffff"/>
   </g>
   <g id="matplotlib.axis_1">
    <g id="xtick_1">
     <g id="line2d_1">
      <defs>
       <path id="m8a63dfb083" d="M 0 0 
L 0 3.5 
" style="stroke: #000000; stroke-width: 0.8"/>
      </defs>
      <g>
       <use xlink:href="#m8a63dfb083" x="73.832727" y="307.584" style="stroke: #000000; stroke-width: 0.8"/>
      </g>
     </g>
     <g id="text_1">
      <!-- 0 -->
      <g transform="translate(70.651477 322.182437) scale(0.1 -0.1)">
       <defs>
        <path id="DejaVuSans-30" d="M 2034 4250 
Q 1547 4250 1301 3770 
Q 1056 3291 1056 2328 
Q 1056 1369 1301 889 
Q 1547 409 2034 409 
Q 2525 409 2770 889 
Q 3016 1369 3016 2328 
Q 3016 3291 2770 3770 
Q 2525 4250 2034 4250 
z
M 2034 4750 
Q 2819 4750 3233 4129 
Q 3647 3509 3647 2328 
Q 3647 1150 3233 529 
Q 2819 -91 2034 -91 
Q 1250 -91 836 529 
Q 422 1150 422 2328 
Q 422 3509 836 4129 
Q 1250 4750 2034 4750 
z
" transform="scale(0.015625)"/>
       </defs>
       <use xlink:href="#DejaVuSans-30"/>
      </g>
     </g>
    </g>
    <g id="xtick_2">
     <g id="line2d_2">
      <g>
       <use xlink:href="#m8a63dfb083" x="124.75893" y="307.584" style="stroke: #000000; stroke-width: 0.8"/>
      </g>
     </g>
     <g id="text_2">
      <!-- 2 -->
      <g transform="translate(121.57768 322.182437) scale(0.1 -0.1)">
       <defs>
        <path id="DejaVuSans-32" d="M 1228 531 
L 3431 531 
L 3431 0 
L 469 0 
L 469 531 
Q 828 903 1448 1529 
Q 2069 2156 2228 2338 
Q 2531 2678 2651 2914 
Q 2772 3150 2772 3378 
Q 2772 3750 2511 3984 
Q 2250 4219 1831 4219 
Q 1534 4219 1204 4116 
Q 875 4013 500 3803 
L 500 4441 
Q 881 4594 1212 4672 
Q 1544 4750 1819 4750 
Q 2544 4750 2975 4387 
Q 3406 4025 3406 3419 
Q 3406 3131 3298 2873 
Q 3191 2616 2906 2266 
Q 2828 2175 2409 1742 
Q 1991 1309 1228 531 
z
" transform="scale(0.015625)"/>
       </defs>
       <use xlink:href="#DejaVuSans-32"/>
      </g>
     </g>
    </g>
    <g id="xtick_3">
     <g id="line2d_3">
      <g>
       <use xlink:href="#m8a63dfb083" x="175.685134" y="307.584" style="stroke: #000000; stroke-width: 0.8"/>
      </g>
     </g>
     <g id="text_3">
      <!-- 4 -->
      <g transform="translate(172.503884 322.182437) scale(0.1 -0.1)">
       <defs>
        <path id="DejaVuSans-34" d="M 2419 4116 
L 825 1625 
L 2419 1625 
L 2419 4116 
z
M 2253 4666 
L 3047 4666 
L 3047 1625 
L 3713 1625 
L 3713 1100 
L 3047 1100 
L 3047 0 
L 2419 0 
L 2419 1100 
L 313 1100 
L 313 1709 
L 2253 4666 
z
" transform="scale(0.015625)"/>
       </defs>
       <use xlink:href="#DejaVuSans-34"/>
      </g>
     </g>
    </g>
    <g id="xtick_4">
     <g id="line2d_4">
      <g>
       <use xlink:href="#m8a63dfb083" x="226.611337" y="307.584" style="stroke: #000000; stroke-width: 0.8"/>
      </g>
     </g>
     <g id="text_4">
      <!-- 6 -->
      <g transform="translate(223.430087 322.182437) scale(0.1 -0.1)">
       <defs>
        <path id="DejaVuSans-36" d="M 2113 2584 
Q 1688 2584 1439 2293 
Q 1191 2003 1191 1497 
Q 1191 994 1439 701 
Q 1688 409 2113 409 
Q 2538 409 2786 701 
Q 3034 994 3034 1497 
Q 3034 2003 2786 2293 
Q 2538 2584 2113 2584 
z
M 3366 4563 
L 3366 3988 
Q 3128 4100 2886 4159 
Q 2644 4219 2406 4219 
Q 1781 4219 1451 3797 
Q 1122 3375 1075 2522 
Q 1259 2794 1537 2939 
Q 1816 3084 2150 3084 
Q 2853 3084 3261 2657 
Q 3669 2231 3669 1497 
Q 3669 778 3244 343 
Q 2819 -91 2113 -91 
Q 1303 -91 875 529 
Q 447 1150 447 2328 
Q 447 3434 972 4092 
Q 1497 4750 2381 4750 
Q 2619 4750 2861 4703 
Q 3103 4656 3366 4563 
z
" transform="scale(0.015625)"/>
       </defs>
       <use xlink:href="#DejaVuSans-36"/>
      </g>
     </g>
    </g>
    <g id="xtick_5">
     <g id="line2d_5">
      <g>
       <use xlink:href="#m8a63dfb083" x="277.53754" y="307.584" style="stroke: #000000; stroke-width: 0.8"/>
      </g>
     </g>
     <g id="text_5">
      <!-- 8 -->
      <g transform="translate(274.35629 322.182437) scale(0.1 -0.1)">
       <defs>
        <path id="DejaVuSans-38" d="M 2034 2216 
Q 1584 2216 1326 1975 
Q 1069 1734 1069 1313 
Q 1069 891 1326 650 
Q 1584 409 2034 409 
Q 2484 409 2743 651 
Q 3003 894 3003 1313 
Q 3003 1734 2745 1975 
Q 2488 2216 2034 2216 
z
M 1403 2484 
Q 997 2584 770 2862 
Q 544 3141 544 3541 
Q 544 4100 942 4425 
Q 1341 4750 2034 4750 
Q 2731 4750 3128 4425 
Q 3525 4100 3525 3541 
Q 3525 3141 3298 2862 
Q 3072 2584 2669 2484 
Q 3125 2378 3379 2068 
Q 3634 1759 3634 1313 
Q 3634 634 3220 271 
Q 2806 -91 2034 -91 
Q 1263 -91 848 271 
Q 434 634 434 1313 
Q 434 1759 690 2068 
Q 947 2378 1403 2484 
z
M 1172 3481 
Q 1172 3119 1398 2916 
Q 1625 2713 2034 2713 
Q 2441 2713 2670 2916 
Q 2900 3119 2900 3481 
Q 2900 3844 2670 4047 
Q 2441 4250 2034 4250 
Q 1625 4250 1398 4047 
Q 1172 3844 1172 3481 
z
" transform="scale(0.015625)"/>
       </defs>
       <use xlink:href="#DejaVuSans-38"/>
      </g>
     </g>
    </g>
    <g id="xtick_6">
     <g id="line2d_6">
      <g>
       <use xlink:href="#m8a63dfb083" x="328.463743" y="307.584" style="stroke: #000000; stroke-width: 0.8"/>
      </g>
     </g>
     <g id="text_6">
      <!-- 10 -->
      <g transform="translate(322.101243 322.182437) scale(0.1 -0.1)">
       <defs>
        <path id="DejaVuSans-31" d="M 794 531 
L 1825 531 
L 1825 4091 
L 703 3866 
L 703 4441 
L 1819 4666 
L 2450 4666 
L 2450 531 
L 3481 531 
L 3481 0 
L 794 0 
L 794 531 
z
" transform="scale(0.015625)"/>
       </defs>
       <use xlink:href="#DejaVuSans-31"/>
       <use xlink:href="#DejaVuSans-30" x="63.623047"/>
      </g>
     </g>
    </g>
    <g id="xtick_7">
     <g id="line2d_7">
      <g>
       <use xlink:href="#m8a63dfb083" x="379.389947" y="307.584" style="stroke: #000000; stroke-width: 0.8"/>
      </g>
     </g>
     <g id="text_7">
      <!-- 12 -->
      <g transform="translate(373.027447 322.182437) scale(0.1 -0.1)">
       <use xlink:href="#DejaVuSans-31"/>
       <use xlink:href="#DejaVuSans-32" x="63.623047"/>
      </g>
     </g>
    </g>
    <g id="text_8">
     <!-- t -->
     <g transform="translate(234.199844 335.860562) scale(0.1 -0.1)">
      <defs>
       <path id="DejaVuSans-74" d="M 1172 4494 
L 1172 3500 
L 2356 3500 
L 2356 3053 
L 1172 3053 
L 1172 1153 
Q 1172 725 1289 603 
Q 1406 481 1766 481 
L 2356 481 
L 2356 0 
L 1766 0 
Q 1100 0 847 248 
Q 594 497 594 1153 
L 594 3053 
L 172 3053 
L 172 3500 
L 594 3500 
L 594 4494 
L 1172 4494 
z
" transform="scale(0.015625)"/>
      </defs>
      <use xlink:href="#DejaVuSans-74"/>
     </g>
    </g>
   </g>
   <g id="matplotlib.axis_2">
    <g id="ytick_1">
     <g id="line2d_8">
      <defs>
       <path id="mf932d8f805" d="M 0 0 
L -3.5 0 
" style="stroke: #000000; stroke-width: 0.8"/>
      </defs>
      <g>
       <use xlink:href="#mf932d8f805" x="57.6" y="295.488" style="stroke: #000000; stroke-width: 0.8"/>
      </g>
     </g>
     <g id="text_9">
      <!-- 0 -->
      <g transform="translate(44.2375 299.287219) scale(0.1 -0.1)">
       <use xlink:href="#DejaVuSans-30"/>
      </g>
     </g>
    </g>
    <g id="ytick_2">
     <g id="line2d_9">
      <g>
       <use xlink:href="#mf932d8f805" x="57.6" y="242.541092" style="stroke: #000000; stroke-width: 0.8"/>
      </g>
     </g>
     <g id="text_10">
      <!-- 10 -->
      <g transform="translate(37.875 246.340311) scale(0.1 -0.1)">
       <use xlink:href="#DejaVuSans-31"/>
       <use xlink:href="#DejaVuSans-30" x="63.623047"/>
      </g>
     </g>
    </g>
    <g id="ytick_3">
     <g id="line2d_10">
      <g>
       <use xlink:href="#mf932d8f805" x="57.6" y="189.594184" style="stroke: #000000; stroke-width: 0.8"/>
      </g>
     </g>
     <g id="text_11">
      <!-- 20 -->
      <g transform="translate(37.875 193.393403) scale(0.1 -0.1)">
       <use xlink:href="#DejaVuSans-32"/>
       <use xlink:href="#DejaVuSans-30" x="63.623047"/>
      </g>
     </g>
    </g>
    <g id="ytick_4">
     <g id="line2d_11">
      <g>
       <use xlink:href="#mf932d8f805" x="57.6" y="136.647276" style="stroke: #000000; stroke-width: 0.8"/>
      </g>
     </g>
     <g id="text_12">
      <!-- 30 -->
      <g transform="translate(37.875 140.446495) scale(0.1 -0.1)">
       <defs>
        <path id="DejaVuSans-33" d="M 2597 2516 
Q 3050 2419 3304 2112 
Q 3559 1806 3559 1356 
Q 3559 666 3084 287 
Q 2609 -91 1734 -91 
Q 1441 -91 1130 -33 
Q 819 25 488 141 
L 488 750 
Q 750 597 1062 519 
Q 1375 441 1716 441 
Q 2309 441 2620 675 
Q 2931 909 2931 1356 
Q 2931 1769 2642 2001 
Q 2353 2234 1838 2234 
L 1294 2234 
L 1294 2753 
L 1863 2753 
Q 2328 2753 2575 2939 
Q 2822 3125 2822 3475 
Q 2822 3834 2567 4026 
Q 2313 4219 1838 4219 
Q 1578 4219 1281 4162 
Q 984 4106 628 3988 
L 628 4550 
Q 988 4650 1302 4700 
Q 1616 4750 1894 4750 
Q 2613 4750 3031 4423 
Q 3450 4097 3450 3541 
Q 3450 3153 3228 2886 
Q 3006 2619 2597 2516 
z
" transform="scale(0.015625)"/>
       </defs>
       <use xlink:href="#DejaVuSans-33"/>
       <use xlink:href="#DejaVuSans-30" x="63.623047"/>
      </g>
     </g>
    </g>
    <g id="ytick_5">
     <g id="line2d_12">
      <g>
       <use xlink:href="#mf932d8f805" x="57.6" y="83.700368" style="stroke: #000000; stroke-width: 0.8"/>
      </g>
     </g>
     <g id="text_13">
      <!-- 40 -->
      <g transform="translate(37.875 87.499587) scale(0.1 -0.1)">
       <use xlink:href="#DejaVuSans-34"/>
       <use xlink:href="#DejaVuSans-30" x="63.623047"/>
      </g>
     </g>
    </g>
    <g id="text_14">
     <!-- Cumulated Sum -->
     <g transform="translate(31.795312 214.693625) rotate(-90) scale(0.1 -0.1)">
      <defs>
       <path id="DejaVuSans-43" d="M 4122 4306 
L 4122 3641 
Q 3803 3938 3442 4084 
Q 3081 4231 2675 4231 
Q 1875 4231 1450 3742 
Q 1025 3253 1025 2328 
Q 1025 1406 1450 917 
Q 1875 428 2675 428 
Q 3081 428 3442 575 
Q 3803 722 4122 1019 
L 4122 359 
Q 3791 134 3420 21 
Q 3050 -91 2638 -91 
Q 1578 -91 968 557 
Q 359 1206 359 2328 
Q 359 3453 968 4101 
Q 1578 4750 2638 4750 
Q 3056 4750 3426 4639 
Q 3797 4528 4122 4306 
z
" transform="scale(0.015625)"/>
       <path id="DejaVuSans-75" d="M 544 1381 
L 544 3500 
L 1119 3500 
L 1119 1403 
Q 1119 906 1312 657 
Q 1506 409 1894 409 
Q 2359 409 2629 706 
Q 2900 1003 2900 1516 
L 2900 3500 
L 3475 3500 
L 3475 0 
L 2900 0 
L 2900 538 
Q 2691 219 2414 64 
Q 2138 -91 1772 -91 
Q 1169 -91 856 284 
Q 544 659 544 1381 
z
M 1991 3584 
L 1991 3584 
z
" transform="scale(0.015625)"/>
       <path id="DejaVuSans-6d" d="M 3328 2828 
Q 3544 3216 3844 3400 
Q 4144 3584 4550 3584 
Q 5097 3584 5394 3201 
Q 5691 2819 5691 2113 
L 5691 0 
L 5113 0 
L 5113 2094 
Q 5113 2597 4934 2840 
Q 4756 3084 4391 3084 
Q 3944 3084 3684 2787 
Q 3425 2491 3425 1978 
L 3425 0 
L 2847 0 
L 2847 2094 
Q 2847 2600 2669 2842 
Q 2491 3084 2119 3084 
Q 1678 3084 1418 2786 
Q 1159 2488 1159 1978 
L 1159 0 
L 581 0 
L 581 3500 
L 1159 3500 
L 1159 2956 
Q 1356 3278 1631 3431 
Q 1906 3584 2284 3584 
Q 2666 3584 2933 3390 
Q 3200 3197 3328 2828 
z
" transform="scale(0.015625)"/>
       <path id="DejaVuSans-6c" d="M 603 4863 
L 1178 4863 
L 1178 0 
L 603 0 
L 603 4863 
z
" transform="scale(0.015625)"/>
       <path id="DejaVuSans-61" d="M 2194 1759 
Q 1497 1759 1228 1600 
Q 959 1441 959 1056 
Q 959 750 1161 570 
Q 1363 391 1709 391 
Q 2188 391 2477 730 
Q 2766 1069 2766 1631 
L 2766 1759 
L 2194 1759 
z
M 3341 1997 
L 3341 0 
L 2766 0 
L 2766 531 
Q 2569 213 2275 61 
Q 1981 -91 1556 -91 
Q 1019 -91 701 211 
Q 384 513 384 1019 
Q 384 1609 779 1909 
Q 1175 2209 1959 2209 
L 2766 2209 
L 2766 2266 
Q 2766 2663 2505 2880 
Q 2244 3097 1772 3097 
Q 1472 3097 1187 3025 
Q 903 2953 641 2809 
L 641 3341 
Q 956 3463 1253 3523 
Q 1550 3584 1831 3584 
Q 2591 3584 2966 3190 
Q 3341 2797 3341 1997 
z
" transform="scale(0.015625)"/>
       <path id="DejaVuSans-65" d="M 3597 1894 
L 3597 1613 
L 953 1613 
Q 991 1019 1311 708 
Q 1631 397 2203 397 
Q 2534 397 2845 478 
Q 3156 559 3463 722 
L 3463 178 
Q 3153 47 2828 -22 
Q 2503 -91 2169 -91 
Q 1331 -91 842 396 
Q 353 884 353 1716 
Q 353 2575 817 3079 
Q 1281 3584 2069 3584 
Q 2775 3584 3186 3129 
Q 3597 2675 3597 1894 
z
M 3022 2063 
Q 3016 2534 2758 2815 
Q 2500 3097 2075 3097 
Q 1594 3097 1305 2825 
Q 1016 2553 972 2059 
L 3022 2063 
z
" transform="scale(0.015625)"/>
       <path id="DejaVuSans-64" d="M 2906 2969 
L 2906 4863 
L 3481 4863 
L 3481 0 
L 2906 0 
L 2906 525 
Q 2725 213 2448 61 
Q 2172 -91 1784 -91 
Q 1150 -91 751 415 
Q 353 922 353 1747 
Q 353 2572 751 3078 
Q 1150 3584 1784 3584 
Q 2172 3584 2448 3432 
Q 2725 3281 2906 2969 
z
M 947 1747 
Q 947 1113 1208 752 
Q 1469 391 1925 391 
Q 2381 391 2643 752 
Q 2906 1113 2906 1747 
Q 2906 2381 2643 2742 
Q 2381 3103 1925 3103 
Q 1469 3103 1208 2742 
Q 947 2381 947 1747 
z
" transform="scale(0.015625)"/>
       <path id="DejaVuSans-20" transform="scale(0.015625)"/>
       <path id="DejaVuSans-53" d="M 3425 4513 
L 3425 3897 
Q 3066 4069 2747 4153 
Q 2428 4238 2131 4238 
Q 1616 4238 1336 4038 
Q 1056 3838 1056 3469 
Q 1056 3159 1242 3001 
Q 1428 2844 1947 2747 
L 2328 2669 
Q 3034 2534 3370 2195 
Q 3706 1856 3706 1288 
Q 3706 609 3251 259 
Q 2797 -91 1919 -91 
Q 1588 -91 1214 -16 
Q 841 59 441 206 
L 441 856 
Q 825 641 1194 531 
Q 1563 422 1919 422 
Q 2459 422 2753 634 
Q 3047 847 3047 1241 
Q 3047 1584 2836 1778 
Q 2625 1972 2144 2069 
L 1759 2144 
Q 1053 2284 737 2584 
Q 422 2884 422 3419 
Q 422 4038 858 4394 
Q 1294 4750 2059 4750 
Q 2388 4750 2728 4690 
Q 3069 4631 3425 4513 
z
" transform="scale(0.015625)"/>
      </defs>
      <use xlink:href="#DejaVuSans-43"/>
      <use xlink:href="#DejaVuSans-75" x="69.824219"/>
      <use xlink:href="#DejaVuSans-6d" x="133.203125"/>
      <use xlink:href="#DejaVuSans-75" x="230.615234"/>
      <use xlink:href="#DejaVuSans-6c" x="293.994141"/>
      <use xlink:href="#DejaVuSans-61" x="321.777344"/>
      <use xlink:href="#DejaVuSans-74" x="383.056641"/>
      <use xlink:href="#DejaVuSans-65" x="422.265625"/>
      <use xlink:href="#DejaVuSans-64" x="483.789062"/>
      <use xlink:href="#DejaVuSans-20" x="547.265625"/>
      <use xlink:href="#DejaVuSans-53" x="579.052734"/>
      <use xlink:href="#DejaVuSans-75" x="642.529297"/>
      <use xlink:href="#DejaVuSans-6d" x="705.908203"/>
     </g>
    </g>
   </g>
   <g id="line2d_13">
    <path d="M 73.832727 295.488 
L 73.832727 295.488 
L 80.198503 295.488 
L 80.198503 295.485787 
L 86.564278 295.485787 
L 86.564278 295.401813 
L 92.930053 295.401813 
L 92.930053 295.400456 
L 99.295829 295.400456 
L 99.295829 295.399694 
L 105.661604 295.399694 
L 105.661604 290.749063 
L 112.02738 290.749063 
L 112.02738 288.838091 
L 118.393155 288.838091 
L 118.393155 288.837289 
L 124.75893 288.837289 
L 124.75893 287.334926 
L 131.124706 287.334926 
L 131.124706 277.601602 
L 137.490481 277.601602 
L 137.490481 277.349646 
L 143.856257 277.349646 
L 143.856257 268.464616 
L 150.222032 268.464616 
L 150.222032 268.464616 
L 156.587807 268.464616 
L 156.587807 263.024918 
L 162.953583 263.024918 
L 162.953583 262.986789 
L 169.319358 262.986789 
L 169.319358 262.492124 
L 175.685134 262.492124 
L 175.685134 243.446219 
L 182.050909 243.446219 
L 182.050909 240.820929 
L 188.416684 240.820929 
L 188.416684 238.856207 
L 194.78246 238.856207 
L 194.78246 238.278028 
L 201.148235 238.278028 
L 201.148235 226.512663 
L 207.514011 226.512663 
L 207.514011 225.179401 
L 213.879786 225.179401 
L 213.879786 222.812632 
L 220.245561 222.812632 
L 220.245561 214.791657 
L 226.611337 214.791657 
L 226.611337 213.996796 
L 232.977112 213.996796 
L 232.977112 209.084101 
L 239.342888 209.084101 
L 239.342888 208.114317 
L 245.708663 208.114317 
L 245.708663 203.41674 
L 252.074439 203.41674 
L 252.074439 200.481292 
L 258.440214 200.481292 
L 258.440214 194.810849 
L 264.805989 194.810849 
L 264.805989 189.363695 
L 271.171765 189.363695 
L 271.171765 188.14141 
L 277.53754 188.14141 
L 277.53754 179.23782 
L 283.903316 179.23782 
L 283.903316 177.288651 
L 290.269091 177.288651 
L 290.269091 176.26253 
L 296.634866 176.26253 
L 296.634866 170.164331 
L 303.000642 170.164331 
L 303.000642 164.173733 
L 309.366417 164.173733 
L 309.366417 155.005919 
L 315.732193 155.005919 
L 315.732193 153.990445 
L 322.097968 153.990445 
L 322.097968 149.730697 
L 328.463743 149.730697 
L 328.463743 145.557143 
L 334.829519 145.557143 
L 334.829519 135.105248 
L 341.195294 135.105248 
L 341.195294 130.07438 
L 347.56107 130.07438 
L 347.56107 125.918179 
L 353.926845 125.918179 
L 353.926845 108.068986 
L 360.29262 108.068986 
L 360.29262 106.363574 
L 366.658396 106.363574 
L 366.658396 94.684702 
L 373.024171 94.684702 
L 373.024171 86.273194 
L 379.389947 86.273194 
L 379.389947 83.060337 
L 385.755722 83.060337 
L 385.755722 76.4384 
L 392.121497 76.4384 
L 392.121497 53.568 
L 398.487273 53.568 
" clip-path="url(#p6e646b27de)" style="fill: none; stroke: #1f77b4; stroke-width: 1.5; stroke-linecap: square"/>
   </g>
   <g id="line2d_14">
    <path d="M 73.832727 295.488 
L 73.832727 295.488 
L 80.198503 295.488 
L 80.198503 295.488 
L 86.564278 295.488 
L 86.564278 295.487954 
L 92.930053 295.487954 
L 92.930053 293.767167 
L 99.295829 293.767167 
L 99.295829 293.767167 
L 105.661604 293.767167 
L 105.661604 292.188273 
L 112.02738 292.188273 
L 112.02738 292.188273 
L 118.393155 292.188273 
L 118.393155 291.913614 
L 124.75893 291.913614 
L 124.75893 291.913614 
L 131.124706 291.913614 
L 131.124706 291.905703 
L 137.490481 291.905703 
L 137.490481 291.905702 
L 143.856257 291.905702 
L 143.856257 291.90557 
L 150.222032 291.90557 
L 150.222032 291.895816 
L 156.587807 291.895816 
L 156.587807 291.895314 
L 162.953583 291.895314 
L 162.953583 291.880376 
L 169.319358 291.880376 
L 169.319358 290.285748 
L 175.685134 290.285748 
L 175.685134 290.181199 
L 182.050909 290.181199 
L 182.050909 289.807581 
L 188.416684 289.807581 
L 188.416684 289.71382 
L 194.78246 289.71382 
L 194.78246 289.305982 
L 201.148235 289.305982 
L 201.148235 289.238215 
L 207.514011 289.238215 
L 207.514011 288.513923 
L 213.879786 288.513923 
L 213.879786 288.4914 
L 220.245561 288.4914 
L 220.245561 288.151251 
L 226.611337 288.151251 
L 226.611337 288.143816 
L 232.977112 288.143816 
L 232.977112 288.142702 
L 239.342888 288.142702 
L 239.342888 288.1427 
L 245.708663 288.1427 
L 245.708663 287.982694 
L 252.074439 287.982694 
L 252.074439 287.901519 
L 258.440214 287.901519 
L 258.440214 286.424166 
L 264.805989 286.424166 
L 264.805989 285.774357 
L 271.171765 285.774357 
L 271.171765 284.758654 
L 277.53754 284.758654 
L 277.53754 284.729011 
L 283.903316 284.729011 
L 283.903316 283.778881 
L 290.269091 283.778881 
L 290.269091 283.667044 
L 296.634866 283.667044 
L 296.634866 283.477906 
L 303.000642 283.477906 
L 303.000642 282.800753 
L 309.366417 282.800753 
L 309.366417 280.287644 
L 315.732193 280.287644 
L 315.732193 280.199447 
L 322.097968 280.199447 
L 322.097968 279.163533 
L 328.463743 279.163533 
L 328.463743 277.928487 
L 334.829519 277.928487 
L 334.829519 277.044427 
L 341.195294 277.044427 
L 341.195294 276.152297 
L 347.56107 276.152297 
L 347.56107 276.111921 
L 353.926845 276.111921 
L 353.926845 276.07055 
L 360.29262 276.07055 
L 360.29262 275.344683 
L 366.658396 275.344683 
L 366.658396 274.276755 
L 373.024171 274.276755 
L 373.024171 274.035729 
L 379.389947 274.035729 
L 379.389947 273.986565 
L 385.755722 273.986565 
L 385.755722 273.633043 
L 392.121497 273.633043 
L 392.121497 273.108154 
L 398.487273 273.108154 
" clip-path="url(#p6e646b27de)" style="fill: none; stroke: #ff7f0e; stroke-width: 1.5; stroke-linecap: square"/>
   </g>
   <g id="line2d_15">
    <path d="M 73.832727 295.488 
L 73.832727 295.180424 
L 80.198503 295.180424 
L 80.198503 295.148416 
L 86.564278 295.148416 
L 86.564278 293.994916 
L 92.930053 293.994916 
L 92.930053 293.994916 
L 99.295829 293.994916 
L 99.295829 293.983932 
L 105.661604 293.983932 
L 105.661604 293.983256 
L 112.02738 293.983256 
L 112.02738 293.96309 
L 118.393155 293.96309 
L 118.393155 290.935972 
L 124.75893 290.935972 
L 124.75893 290.929851 
L 131.124706 290.929851 
L 131.124706 290.928199 
L 137.490481 290.928199 
L 137.490481 290.898403 
L 143.856257 290.898403 
L 143.856257 290.898014 
L 150.222032 290.898014 
L 150.222032 290.25902 
L 156.587807 290.25902 
L 156.587807 287.574313 
L 162.953583 287.574313 
L 162.953583 283.423949 
L 169.319358 283.423949 
L 169.319358 280.942481 
L 175.685134 280.942481 
L 175.685134 280.010973 
L 182.050909 280.010973 
L 182.050909 272.649389 
L 188.416684 272.649389 
L 188.416684 264.515363 
L 194.78246 264.515363 
L 194.78246 263.117121 
L 201.148235 263.117121 
L 201.148235 258.883466 
L 207.514011 258.883466 
L 207.514011 256.362753 
L 213.879786 256.362753 
L 213.879786 255.941501 
L 220.245561 255.941501 
L 220.245561 249.204719 
L 226.611337 249.204719 
L 226.611337 248.774487 
L 232.977112 248.774487 
L 232.977112 247.842099 
L 239.342888 247.842099 
L 239.342888 242.281879 
L 245.708663 242.281879 
L 245.708663 239.642363 
L 252.074439 239.642363 
L 252.074439 238.393126 
L 258.440214 238.393126 
L 258.440214 231.056574 
L 264.805989 231.056574 
L 264.805989 225.528949 
L 271.171765 225.528949 
L 271.171765 221.881814 
L 277.53754 221.881814 
L 277.53754 220.447095 
L 283.903316 220.447095 
L 283.903316 217.258069 
L 290.269091 217.258069 
L 290.269091 216.112067 
L 296.634866 216.112067 
L 296.634866 213.72817 
L 303.000642 213.72817 
L 303.000642 211.687998 
L 309.366417 211.687998 
L 309.366417 207.905988 
L 315.732193 207.905988 
L 315.732193 206.900979 
L 322.097968 206.900979 
L 322.097968 204.581582 
L 328.463743 204.581582 
L 328.463743 201.618048 
L 334.829519 201.618048 
L 334.829519 192.336213 
L 341.195294 192.336213 
L 341.195294 173.733297 
L 347.56107 173.733297 
L 347.56107 169.163216 
L 353.926845 169.163216 
L 353.926845 165.691118 
L 360.29262 165.691118 
L 360.29262 162.774406 
L 366.658396 162.774406 
L 366.658396 153.850563 
L 373.024171 153.850563 
L 373.024171 141.406484 
L 379.389947 141.406484 
L 379.389947 129.810947 
L 385.755722 129.810947 
L 385.755722 125.910892 
L 392.121497 125.910892 
L 392.121497 123.656468 
L 398.487273 123.656468 
" clip-path="url(#p6e646b27de)" style="fill: none; stroke: #2ca02c; stroke-width: 1.5; stroke-linecap: square"/>
   </g>
   <g id="line2d_16">
    <path d="M 73.832727 295.488 
L 73.832727 295.482298 
L 80.198503 295.482298 
L 80.198503 295.482298 
L 86.564278 295.482298 
L 86.564278 295.482298 
L 92.930053 295.482298 
L 92.930053 295.473313 
L 99.295829 295.473313 
L 99.295829 295.417187 
L 105.661604 295.417187 
L 105.661604 295.417184 
L 112.02738 295.417184 
L 112.02738 295.244135 
L 118.393155 295.244135 
L 118.393155 295.071433 
L 124.75893 295.071433 
L 124.75893 293.970905 
L 131.124706 293.970905 
L 131.124706 293.889839 
L 137.490481 293.889839 
L 137.490481 293.438269 
L 143.856257 293.438269 
L 143.856257 293.422174 
L 150.222032 293.422174 
L 150.222032 293.159707 
L 156.587807 293.159707 
L 156.587807 293.042339 
L 162.953583 293.042339 
L 162.953583 292.784594 
L 169.319358 292.784594 
L 169.319358 292.468964 
L 175.685134 292.468964 
L 175.685134 291.781489 
L 182.050909 291.781489 
L 182.050909 288.81747 
L 188.416684 288.81747 
L 188.416684 288.767072 
L 194.78246 288.767072 
L 194.78246 288.701094 
L 201.148235 288.701094 
L 201.148235 285.423061 
L 207.514011 285.423061 
L 207.514011 282.544338 
L 213.879786 282.544338 
L 213.879786 282.17423 
L 220.245561 282.17423 
L 220.245561 280.95225 
L 226.611337 280.95225 
L 226.611337 280.93937 
L 232.977112 280.93937 
L 232.977112 280.221902 
L 239.342888 280.221902 
L 239.342888 279.44408 
L 245.708663 279.44408 
L 245.708663 278.33289 
L 252.074439 278.33289 
L 252.074439 277.090917 
L 258.440214 277.090917 
L 258.440214 275.318943 
L 264.805989 275.318943 
L 264.805989 274.460276 
L 271.171765 274.460276 
L 271.171765 272.097137 
L 277.53754 272.097137 
L 277.53754 269.292033 
L 283.903316 269.292033 
L 283.903316 268.288003 
L 290.269091 268.288003 
L 290.269091 267.868524 
L 296.634866 267.868524 
L 296.634866 267.3296 
L 303.000642 267.3296 
L 303.000642 266.442832 
L 309.366417 266.442832 
L 309.366417 262.133484 
L 315.732193 262.133484 
L 315.732193 261.362331 
L 322.097968 261.362331 
L 322.097968 254.790388 
L 328.463743 254.790388 
L 328.463743 253.362069 
L 334.829519 253.362069 
L 334.829519 243.756978 
L 341.195294 243.756978 
L 341.195294 241.074331 
L 347.56107 241.074331 
L 347.56107 231.009262 
L 353.926845 231.009262 
L 353.926845 230.597719 
L 360.29262 230.597719 
L 360.29262 227.677752 
L 366.658396 227.677752 
L 366.658396 226.909869 
L 373.024171 226.909869 
L 373.024171 226.117674 
L 379.389947 226.117674 
L 379.389947 222.588285 
L 385.755722 222.588285 
L 385.755722 220.824592 
L 392.121497 220.824592 
L 392.121497 219.43543 
L 398.487273 219.43543 
" clip-path="url(#p6e646b27de)" style="fill: none; stroke: #d62728; stroke-width: 1.5; stroke-linecap: square"/>
   </g>
   <g id="patch_3">
    <path d="M 57.6 307.584 
L 57.6 41.472 
" style="fill: none; stroke: #000000; stroke-width: 0.8; stroke-linejoin: miter; stroke-linecap: square"/>
   </g>
   <g id="patch_4">
    <path d="M 414.72 307.584 
L 414.72 41.472 
" style="fill: none; stroke: #000000; stroke-width: 0.8; stroke-linejoin: miter; stroke-linecap: square"/>
   </g>
   <g id="patch_5">
    <path d="M 57.6 307.584 
L 414.72 307.584 
" style="fill: none; stroke: #000000; stroke-width: 0.8; stroke-linejoin: miter; stroke-linecap: square"/>
   </g>
   <g id="patch_6">
    <path d="M 57.6 41.472 
L 414.72 41.472 
" style="fill: none; stroke: #000000; stroke-width: 0.8; stroke-linejoin: miter; stroke-linecap: square"/>
   </g>
   <g id="text_15">
    <!-- Gamma Processes -->
    <g transform="translate(180.98625 35.472) scale(0.12 -0.12)">
     <defs>
      <path id="DejaVuSans-47" d="M 3809 666 
L 3809 1919 
L 2778 1919 
L 2778 2438 
L 4434 2438 
L 4434 434 
Q 4069 175 3628 42 
Q 3188 -91 2688 -91 
Q 1594 -91 976 548 
Q 359 1188 359 2328 
Q 359 3472 976 4111 
Q 1594 4750 2688 4750 
Q 3144 4750 3555 4637 
Q 3966 4525 4313 4306 
L 4313 3634 
Q 3963 3931 3569 4081 
Q 3175 4231 2741 4231 
Q 1884 4231 1454 3753 
Q 1025 3275 1025 2328 
Q 1025 1384 1454 906 
Q 1884 428 2741 428 
Q 3075 428 3337 486 
Q 3600 544 3809 666 
z
" transform="scale(0.015625)"/>
      <path id="DejaVuSans-50" d="M 1259 4147 
L 1259 2394 
L 2053 2394 
Q 2494 2394 2734 2622 
Q 2975 2850 2975 3272 
Q 2975 3691 2734 3919 
Q 2494 4147 2053 4147 
L 1259 4147 
z
M 628 4666 
L 2053 4666 
Q 2838 4666 3239 4311 
Q 3641 3956 3641 3272 
Q 3641 2581 3239 2228 
Q 2838 1875 2053 1875 
L 1259 1875 
L 1259 0 
L 628 0 
L 628 4666 
z
" transform="scale(0.015625)"/>
      <path id="DejaVuSans-72" d="M 2631 2963 
Q 2534 3019 2420 3045 
Q 2306 3072 2169 3072 
Q 1681 3072 1420 2755 
Q 1159 2438 1159 1844 
L 1159 0 
L 581 0 
L 581 3500 
L 1159 3500 
L 1159 2956 
Q 1341 3275 1631 3429 
Q 1922 3584 2338 3584 
Q 2397 3584 2469 3576 
Q 2541 3569 2628 3553 
L 2631 2963 
z
" transform="scale(0.015625)"/>
      <path id="DejaVuSans-6f" d="M 1959 3097 
Q 1497 3097 1228 2736 
Q 959 2375 959 1747 
Q 959 1119 1226 758 
Q 1494 397 1959 397 
Q 2419 397 2687 759 
Q 2956 1122 2956 1747 
Q 2956 2369 2687 2733 
Q 2419 3097 1959 3097 
z
M 1959 3584 
Q 2709 3584 3137 3096 
Q 3566 2609 3566 1747 
Q 3566 888 3137 398 
Q 2709 -91 1959 -91 
Q 1206 -91 779 398 
Q 353 888 353 1747 
Q 353 2609 779 3096 
Q 1206 3584 1959 3584 
z
" transform="scale(0.015625)"/>
      <path id="DejaVuSans-63" d="M 3122 3366 
L 3122 2828 
Q 2878 2963 2633 3030 
Q 2388 3097 2138 3097 
Q 1578 3097 1268 2742 
Q 959 2388 959 1747 
Q 959 1106 1268 751 
Q 1578 397 2138 397 
Q 2388 397 2633 464 
Q 2878 531 3122 666 
L 3122 134 
Q 2881 22 2623 -34 
Q 2366 -91 2075 -91 
Q 1284 -91 818 406 
Q 353 903 353 1747 
Q 353 2603 823 3093 
Q 1294 3584 2113 3584 
Q 2378 3584 2631 3529 
Q 2884 3475 3122 3366 
z
" transform="scale(0.015625)"/>
      <path id="DejaVuSans-73" d="M 2834 3397 
L 2834 2853 
Q 2591 2978 2328 3040 
Q 2066 3103 1784 3103 
Q 1356 3103 1142 2972 
Q 928 2841 928 2578 
Q 928 2378 1081 2264 
Q 1234 2150 1697 2047 
L 1894 2003 
Q 2506 1872 2764 1633 
Q 3022 1394 3022 966 
Q 3022 478 2636 193 
Q 2250 -91 1575 -91 
Q 1294 -91 989 -36 
Q 684 19 347 128 
L 347 722 
Q 666 556 975 473 
Q 1284 391 1588 391 
Q 1994 391 2212 530 
Q 2431 669 2431 922 
Q 2431 1156 2273 1281 
Q 2116 1406 1581 1522 
L 1381 1569 
Q 847 1681 609 1914 
Q 372 2147 372 2553 
Q 372 3047 722 3315 
Q 1072 3584 1716 3584 
Q 2034 3584 2315 3537 
Q 2597 3491 2834 3397 
z
" transform="scale(0.015625)"/>
     </defs>
     <use xlink:href="#DejaVuSans-47"/>
     <use xlink:href="#DejaVuSans-61" x="77.490234"/>
     <use xlink:href="#DejaVuSans-6d" x="138.769531"/>
     <use xlink:href="#DejaVuSans-6d" x="236.181641"/>
     <use xlink:href="#DejaVuSans-61" x="333.59375"/>
     <use xlink:href="#DejaVuSans-20" x="394.873047"/>
     <use xlink:href="#DejaVuSans-50" x="426.660156"/>
     <use xlink:href="#DejaVuSans-72" x="485.212891"/>
     <use xlink:href="#DejaVuSans-6f" x="524.076172"/>
     <use xlink:href="#DejaVuSans-63" x="585.257812"/>
     <use xlink:href="#DejaVuSans-65" x="640.238281"/>
     <use xlink:href="#DejaVuSans-73" x="701.761719"/>
     <use xlink:href="#DejaVuSans-73" x="753.861328"/>
     <use xlink:href="#DejaVuSans-65" x="805.960938"/>
     <use xlink:href="#DejaVuSans-73" x="867.484375"/>
    </g>
   </g>
   <g id="legend_1">
    <g id="patch_7">
     <path d="M 64.6 109.018875 
L 211.829688 109.018875 
Q 213.829688 109.018875 213.829688 107.018875 
L 213.829688 48.472 
Q 213.829688 46.472 211.829688 46.472 
L 64.6 46.472 
Q 62.6 46.472 62.6 48.472 
L 62.6 107.018875 
Q 62.6 109.018875 64.6 109.018875 
z
" style="fill: #ffffff; opacity: 0.8; stroke: #cccccc; stroke-linejoin: miter"/>
    </g>
    <g id="line2d_17">
     <path d="M 66.6 54.570438 
L 66.6 54.570438 
L 76.6 54.570438 
L 76.6 54.570438 
L 86.6 54.570438 
" style="fill: none; stroke: #1f77b4; stroke-width: 1.5; stroke-linecap: square"/>
    </g>
    <g id="text_16">
     <!-- Cumulated X_1 -->
     <g transform="translate(94.6 58.070438) scale(0.1 -0.1)">
      <defs>
       <path id="DejaVuSans-58" d="M 403 4666 
L 1081 4666 
L 2241 2931 
L 3406 4666 
L 4084 4666 
L 2584 2425 
L 4184 0 
L 3506 0 
L 2194 1984 
L 872 0 
L 191 0 
L 1856 2491 
L 403 4666 
z
" transform="scale(0.015625)"/>
       <path id="DejaVuSans-5f" d="M 3263 -1063 
L 3263 -1509 
L -63 -1509 
L -63 -1063 
L 3263 -1063 
z
" transform="scale(0.015625)"/>
      </defs>
      <use xlink:href="#DejaVuSans-43"/>
      <use xlink:href="#DejaVuSans-75" x="69.824219"/>
      <use xlink:href="#DejaVuSans-6d" x="133.203125"/>
      <use xlink:href="#DejaVuSans-75" x="230.615234"/>
      <use xlink:href="#DejaVuSans-6c" x="293.994141"/>
      <use xlink:href="#DejaVuSans-61" x="321.777344"/>
      <use xlink:href="#DejaVuSans-74" x="383.056641"/>
      <use xlink:href="#DejaVuSans-65" x="422.265625"/>
      <use xlink:href="#DejaVuSans-64" x="483.789062"/>
      <use xlink:href="#DejaVuSans-20" x="547.265625"/>
      <use xlink:href="#DejaVuSans-58" x="579.052734"/>
      <use xlink:href="#DejaVuSans-5f" x="647.558594"/>
      <use xlink:href="#DejaVuSans-31" x="697.558594"/>
     </g>
    </g>
    <g id="line2d_18">
     <path d="M 66.6 69.526688 
L 66.6 69.526688 
L 76.6 69.526688 
L 76.6 69.526688 
L 86.6 69.526688 
" style="fill: none; stroke: #ff7f0e; stroke-width: 1.5; stroke-linecap: square"/>
    </g>
    <g id="text_17">
     <!-- Cumulated X_2 -->
     <g transform="translate(94.6 73.026688) scale(0.1 -0.1)">
      <use xlink:href="#DejaVuSans-43"/>
      <use xlink:href="#DejaVuSans-75" x="69.824219"/>
      <use xlink:href="#DejaVuSans-6d" x="133.203125"/>
      <use xlink:href="#DejaVuSans-75" x="230.615234"/>
      <use xlink:href="#DejaVuSans-6c" x="293.994141"/>
      <use xlink:href="#DejaVuSans-61" x="321.777344"/>
      <use xlink:href="#DejaVuSans-74" x="383.056641"/>
      <use xlink:href="#DejaVuSans-65" x="422.265625"/>
      <use xlink:href="#DejaVuSans-64" x="483.789062"/>
      <use xlink:href="#DejaVuSans-20" x="547.265625"/>
      <use xlink:href="#DejaVuSans-58" x="579.052734"/>
      <use xlink:href="#DejaVuSans-5f" x="647.558594"/>
      <use xlink:href="#DejaVuSans-32" x="697.558594"/>
     </g>
    </g>
    <g id="line2d_19">
     <path d="M 66.6 84.482938 
L 66.6 84.482938 
L 76.6 84.482938 
L 76.6 84.482938 
L 86.6 84.482938 
" style="fill: none; stroke: #2ca02c; stroke-width: 1.5; stroke-linecap: square"/>
    </g>
    <g id="text_18">
     <!-- Cumulated Y -->
     <g transform="translate(94.6 87.982938) scale(0.1 -0.1)">
      <defs>
       <path id="DejaVuSans-59" d="M -13 4666 
L 666 4666 
L 1959 2747 
L 3244 4666 
L 3922 4666 
L 2272 2222 
L 2272 0 
L 1638 0 
L 1638 2222 
L -13 4666 
z
" transform="scale(0.015625)"/>
      </defs>
      <use xlink:href="#DejaVuSans-43"/>
      <use xlink:href="#DejaVuSans-75" x="69.824219"/>
      <use xlink:href="#DejaVuSans-6d" x="133.203125"/>
      <use xlink:href="#DejaVuSans-75" x="230.615234"/>
      <use xlink:href="#DejaVuSans-6c" x="293.994141"/>
      <use xlink:href="#DejaVuSans-61" x="321.777344"/>
      <use xlink:href="#DejaVuSans-74" x="383.056641"/>
      <use xlink:href="#DejaVuSans-65" x="422.265625"/>
      <use xlink:href="#DejaVuSans-64" x="483.789062"/>
      <use xlink:href="#DejaVuSans-20" x="547.265625"/>
      <use xlink:href="#DejaVuSans-59" x="579.052734"/>
     </g>
    </g>
    <g id="line2d_20">
     <path d="M 66.6 99.161063 
L 66.6 99.161063 
L 76.6 99.161063 
L 76.6 99.161063 
L 86.6 99.161063 
" style="fill: none; stroke: #d62728; stroke-width: 1.5; stroke-linecap: square"/>
    </g>
    <g id="text_19">
     <!-- Cumulated Y_weighted -->
     <g transform="translate(94.6 102.661063) scale(0.1 -0.1)">
      <defs>
       <path id="DejaVuSans-77" d="M 269 3500 
L 844 3500 
L 1563 769 
L 2278 3500 
L 2956 3500 
L 3675 769 
L 4391 3500 
L 4966 3500 
L 4050 0 
L 3372 0 
L 2619 2869 
L 1863 0 
L 1184 0 
L 269 3500 
z
" transform="scale(0.015625)"/>
       <path id="DejaVuSans-69" d="M 603 3500 
L 1178 3500 
L 1178 0 
L 603 0 
L 603 3500 
z
M 603 4863 
L 1178 4863 
L 1178 4134 
L 603 4134 
L 603 4863 
z
" transform="scale(0.015625)"/>
       <path id="DejaVuSans-67" d="M 2906 1791 
Q 2906 2416 2648 2759 
Q 2391 3103 1925 3103 
Q 1463 3103 1205 2759 
Q 947 2416 947 1791 
Q 947 1169 1205 825 
Q 1463 481 1925 481 
Q 2391 481 2648 825 
Q 2906 1169 2906 1791 
z
M 3481 434 
Q 3481 -459 3084 -895 
Q 2688 -1331 1869 -1331 
Q 1566 -1331 1297 -1286 
Q 1028 -1241 775 -1147 
L 775 -588 
Q 1028 -725 1275 -790 
Q 1522 -856 1778 -856 
Q 2344 -856 2625 -561 
Q 2906 -266 2906 331 
L 2906 616 
Q 2728 306 2450 153 
Q 2172 0 1784 0 
Q 1141 0 747 490 
Q 353 981 353 1791 
Q 353 2603 747 3093 
Q 1141 3584 1784 3584 
Q 2172 3584 2450 3431 
Q 2728 3278 2906 2969 
L 2906 3500 
L 3481 3500 
L 3481 434 
z
" transform="scale(0.015625)"/>
       <path id="DejaVuSans-68" d="M 3513 2113 
L 3513 0 
L 2938 0 
L 2938 2094 
Q 2938 2591 2744 2837 
Q 2550 3084 2163 3084 
Q 1697 3084 1428 2787 
Q 1159 2491 1159 1978 
L 1159 0 
L 581 0 
L 581 4863 
L 1159 4863 
L 1159 2956 
Q 1366 3272 1645 3428 
Q 1925 3584 2291 3584 
Q 2894 3584 3203 3211 
Q 3513 2838 3513 2113 
z
" transform="scale(0.015625)"/>
      </defs>
      <use xlink:href="#DejaVuSans-43"/>
      <use xlink:href="#DejaVuSans-75" x="69.824219"/>
      <use xlink:href="#DejaVuSans-6d" x="133.203125"/>
      <use xlink:href="#DejaVuSans-75" x="230.615234"/>
      <use xlink:href="#DejaVuSans-6c" x="293.994141"/>
      <use xlink:href="#DejaVuSans-61" x="321.777344"/>
      <use xlink:href="#DejaVuSans-74" x="383.056641"/>
      <use xlink:href="#DejaVuSans-65" x="422.265625"/>
      <use xlink:href="#DejaVuSans-64" x="483.789062"/>
      <use xlink:href="#DejaVuSans-20" x="547.265625"/>
      <use xlink:href="#DejaVuSans-59" x="579.052734"/>
      <use xlink:href="#DejaVuSans-5f" x="640.136719"/>
      <use xlink:href="#DejaVuSans-77" x="690.136719"/>
      <use xlink:href="#DejaVuSans-65" x="771.923828"/>
      <use xlink:href="#DejaVuSans-69" x="833.447266"/>
      <use xlink:href="#DejaVuSans-67" x="861.230469"/>
      <use xlink:href="#DejaVuSans-68" x="924.707031"/>
      <use xlink:href="#DejaVuSans-74" x="988.085938"/>
      <use xlink:href="#DejaVuSans-65" x="1027.294922"/>
      <use xlink:href="#DejaVuSans-64" x="1088.818359"/>
     </g>
    </g>
   </g>
  </g>
 </g>
 <defs>
  <clipPath id="p6e646b27de">
   <rect x="57.6" y="41.472" width="357.12" height="266.112"/>
  </clipPath>
 </defs>
</svg>
