<?xml version="1.0" encoding="utf-8" standalone="no"?>
<!DOCTYPE svg PUBLIC "-//W3C//DTD SVG 1.1//EN"
  "http://www.w3.org/Graphics/SVG/1.1/DTD/svg11.dtd">
<svg xmlns:xlink="http://www.w3.org/1999/xlink" width="460.8pt" height="345.6pt" viewBox="0 0 460.8 345.6" xmlns="http://www.w3.org/2000/svg" version="1.1">
 <metadata>
  <rdf:RDF xmlns:dc="http://purl.org/dc/elements/1.1/" xmlns:cc="http://creativecommons.org/ns#" xmlns:rdf="http://www.w3.org/1999/02/22-rdf-syntax-ns#">
   <cc:Work>
    <dc:type rdf:resource="http://purl.org/dc/dcmitype/StillImage"/>
    <dc:date>2023-10-25T02:36:19.904205</dc:date>
    <dc:format>image/svg+xml</dc:format>
    <dc:creator>
     <cc:Agent>
      <dc:title>Matplotlib v3.7.2, https://matplotlib.org/</dc:title>
     </cc:Agent>
    </dc:creator>
   </cc:Work>
  </rdf:RDF>
 </metadata>
 <defs>
  <style type="text/css">*{stroke-linejoin: round; stroke-linecap: butt}</style>
 </defs>
 <g id="figure_1">
  <g id="patch_1">
   <path d="M 0 345.6 
L 460.8 345.6 
L 460.8 0 
L 0 0 
z
" style="fill: #ffffff"/>
  </g>
  <g id="axes_1">
   <g id="patch_2">
    <path d="M 57.6 307.584 
L 414.72 307.584 
L 414.72 41.472 
L 57.6 41.472 
z
" style="fill: #ffffff"/>
   </g>
   <g id="matplotlib.axis_1">
    <g id="xtick_1">
     <g id="line2d_1">
      <defs>
       <path id="m54ee1d1fe2" d="M 0 0 
L 0 3.5 
" style="stroke: #000000; stroke-width: 0.8"/>
      </defs>
      <g>
       <use xlink:href="#m54ee1d1fe2" x="73.832727" y="307.584" style="stroke: #000000; stroke-width: 0.8"/>
      </g>
     </g>
     <g id="text_1">
      <!-- 0 -->
      <g transform="translate(70.651477 322.182437) scale(0.1 -0.1)">
       <defs>
        <path id="DejaVuSans-30" d="M 2034 4250 
Q 1547 4250 1301 3770 
Q 1056 3291 1056 2328 
Q 1056 1369 1301 889 
Q 1547 409 2034 409 
Q 2525 409 2770 889 
Q 3016 1369 3016 2328 
Q 3016 3291 2770 3770 
Q 2525 4250 2034 4250 
z
M 2034 4750 
Q 2819 4750 3233 4129 
Q 3647 3509 3647 2328 
Q 3647 1150 3233 529 
Q 2819 -91 2034 -91 
Q 1250 -91 836 529 
Q 422 1150 422 2328 
Q 422 3509 836 4129 
Q 1250 4750 2034 4750 
z
" transform="scale(0.015625)"/>
       </defs>
       <use xlink:href="#DejaVuSans-30"/>
      </g>
     </g>
    </g>
    <g id="xtick_2">
     <g id="line2d_2">
      <g>
       <use xlink:href="#m54ee1d1fe2" x="124.75893" y="307.584" style="stroke: #000000; stroke-width: 0.8"/>
      </g>
     </g>
     <g id="text_2">
      <!-- 2 -->
      <g transform="translate(121.57768 322.182437) scale(0.1 -0.1)">
       <defs>
        <path id="DejaVuSans-32" d="M 1228 531 
L 3431 531 
L 3431 0 
L 469 0 
L 469 531 
Q 828 903 1448 1529 
Q 2069 2156 2228 2338 
Q 2531 2678 2651 2914 
Q 2772 3150 2772 3378 
Q 2772 3750 2511 3984 
Q 2250 4219 1831 4219 
Q 1534 4219 1204 4116 
Q 875 4013 500 3803 
L 500 4441 
Q 881 4594 1212 4672 
Q 1544 4750 1819 4750 
Q 2544 4750 2975 4387 
Q 3406 4025 3406 3419 
Q 3406 3131 3298 2873 
Q 3191 2616 2906 2266 
Q 2828 2175 2409 1742 
Q 1991 1309 1228 531 
z
" transform="scale(0.015625)"/>
       </defs>
       <use xlink:href="#DejaVuSans-32"/>
      </g>
     </g>
    </g>
    <g id="xtick_3">
     <g id="line2d_3">
      <g>
       <use xlink:href="#m54ee1d1fe2" x="175.685134" y="307.584" style="stroke: #000000; stroke-width: 0.8"/>
      </g>
     </g>
     <g id="text_3">
      <!-- 4 -->
      <g transform="translate(172.503884 322.182437) scale(0.1 -0.1)">
       <defs>
        <path id="DejaVuSans-34" d="M 2419 4116 
L 825 1625 
L 2419 1625 
L 2419 4116 
z
M 2253 4666 
L 3047 4666 
L 3047 1625 
L 3713 1625 
L 3713 1100 
L 3047 1100 
L 3047 0 
L 2419 0 
L 2419 1100 
L 313 1100 
L 313 1709 
L 2253 4666 
z
" transform="scale(0.015625)"/>
       </defs>
       <use xlink:href="#DejaVuSans-34"/>
      </g>
     </g>
    </g>
    <g id="xtick_4">
     <g id="line2d_4">
      <g>
       <use xlink:href="#m54ee1d1fe2" x="226.611337" y="307.584" style="stroke: #000000; stroke-width: 0.8"/>
      </g>
     </g>
     <g id="text_4">
      <!-- 6 -->
      <g transform="translate(223.430087 322.182437) scale(0.1 -0.1)">
       <defs>
        <path id="DejaVuSans-36" d="M 2113 2584 
Q 1688 2584 1439 2293 
Q 1191 2003 1191 1497 
Q 1191 994 1439 701 
Q 1688 409 2113 409 
Q 2538 409 2786 701 
Q 3034 994 3034 1497 
Q 3034 2003 2786 2293 
Q 2538 2584 2113 2584 
z
M 3366 4563 
L 3366 3988 
Q 3128 4100 2886 4159 
Q 2644 4219 2406 4219 
Q 1781 4219 1451 3797 
Q 1122 3375 1075 2522 
Q 1259 2794 1537 2939 
Q 1816 3084 2150 3084 
Q 2853 3084 3261 2657 
Q 3669 2231 3669 1497 
Q 3669 778 3244 343 
Q 2819 -91 2113 -91 
Q 1303 -91 875 529 
Q 447 1150 447 2328 
Q 447 3434 972 4092 
Q 1497 4750 2381 4750 
Q 2619 4750 2861 4703 
Q 3103 4656 3366 4563 
z
" transform="scale(0.015625)"/>
       </defs>
       <use xlink:href="#DejaVuSans-36"/>
      </g>
     </g>
    </g>
    <g id="xtick_5">
     <g id="line2d_5">
      <g>
       <use xlink:href="#m54ee1d1fe2" x="277.53754" y="307.584" style="stroke: #000000; stroke-width: 0.8"/>
      </g>
     </g>
     <g id="text_5">
      <!-- 8 -->
      <g transform="translate(274.35629 322.182437) scale(0.1 -0.1)">
       <defs>
        <path id="DejaVuSans-38" d="M 2034 2216 
Q 1584 2216 1326 1975 
Q 1069 1734 1069 1313 
Q 1069 891 1326 650 
Q 1584 409 2034 409 
Q 2484 409 2743 651 
Q 3003 894 3003 1313 
Q 3003 1734 2745 1975 
Q 2488 2216 2034 2216 
z
M 1403 2484 
Q 997 2584 770 2862 
Q 544 3141 544 3541 
Q 544 4100 942 4425 
Q 1341 4750 2034 4750 
Q 2731 4750 3128 4425 
Q 3525 4100 3525 3541 
Q 3525 3141 3298 2862 
Q 3072 2584 2669 2484 
Q 3125 2378 3379 2068 
Q 3634 1759 3634 1313 
Q 3634 634 3220 271 
Q 2806 -91 2034 -91 
Q 1263 -91 848 271 
Q 434 634 434 1313 
Q 434 1759 690 2068 
Q 947 2378 1403 2484 
z
M 1172 3481 
Q 1172 3119 1398 2916 
Q 1625 2713 2034 2713 
Q 2441 2713 2670 2916 
Q 2900 3119 2900 3481 
Q 2900 3844 2670 4047 
Q 2441 4250 2034 4250 
Q 1625 4250 1398 4047 
Q 1172 3844 1172 3481 
z
" transform="scale(0.015625)"/>
       </defs>
       <use xlink:href="#DejaVuSans-38"/>
      </g>
     </g>
    </g>
    <g id="xtick_6">
     <g id="line2d_6">
      <g>
       <use xlink:href="#m54ee1d1fe2" x="328.463743" y="307.584" style="stroke: #000000; stroke-width: 0.8"/>
      </g>
     </g>
     <g id="text_6">
      <!-- 10 -->
      <g transform="translate(322.101243 322.182437) scale(0.1 -0.1)">
       <defs>
        <path id="DejaVuSans-31" d="M 794 531 
L 1825 531 
L 1825 4091 
L 703 3866 
L 703 4441 
L 1819 4666 
L 2450 4666 
L 2450 531 
L 3481 531 
L 3481 0 
L 794 0 
L 794 531 
z
" transform="scale(0.015625)"/>
       </defs>
       <use xlink:href="#DejaVuSans-31"/>
       <use xlink:href="#DejaVuSans-30" x="63.623047"/>
      </g>
     </g>
    </g>
    <g id="xtick_7">
     <g id="line2d_7">
      <g>
       <use xlink:href="#m54ee1d1fe2" x="379.389947" y="307.584" style="stroke: #000000; stroke-width: 0.8"/>
      </g>
     </g>
     <g id="text_7">
      <!-- 12 -->
      <g transform="translate(373.027447 322.182437) scale(0.1 -0.1)">
       <use xlink:href="#DejaVuSans-31"/>
       <use xlink:href="#DejaVuSans-32" x="63.623047"/>
      </g>
     </g>
    </g>
    <g id="text_8">
     <!-- t -->
     <g transform="translate(234.199844 335.860562) scale(0.1 -0.1)">
      <defs>
       <path id="DejaVuSans-74" d="M 1172 4494 
L 1172 3500 
L 2356 3500 
L 2356 3053 
L 1172 3053 
L 1172 1153 
Q 1172 725 1289 603 
Q 1406 481 1766 481 
L 2356 481 
L 2356 0 
L 1766 0 
Q 1100 0 847 248 
Q 594 497 594 1153 
L 594 3053 
L 172 3053 
L 172 3500 
L 594 3500 
L 594 4494 
L 1172 4494 
z
" transform="scale(0.015625)"/>
      </defs>
      <use xlink:href="#DejaVuSans-74"/>
     </g>
    </g>
   </g>
   <g id="matplotlib.axis_2">
    <g id="ytick_1">
     <g id="line2d_8">
      <defs>
       <path id="m26adea900d" d="M 0 0 
L -3.5 0 
" style="stroke: #000000; stroke-width: 0.8"/>
      </defs>
      <g>
       <use xlink:href="#m26adea900d" x="57.6" y="295.488" style="stroke: #000000; stroke-width: 0.8"/>
      </g>
     </g>
     <g id="text_9">
      <!-- 0 -->
      <g transform="translate(44.2375 299.287219) scale(0.1 -0.1)">
       <use xlink:href="#DejaVuSans-30"/>
      </g>
     </g>
    </g>
    <g id="ytick_2">
     <g id="line2d_9">
      <g>
       <use xlink:href="#m26adea900d" x="57.6" y="261.869007" style="stroke: #000000; stroke-width: 0.8"/>
      </g>
     </g>
     <g id="text_10">
      <!-- 50 -->
      <g transform="translate(37.875 265.668226) scale(0.1 -0.1)">
       <defs>
        <path id="DejaVuSans-35" d="M 691 4666 
L 3169 4666 
L 3169 4134 
L 1269 4134 
L 1269 2991 
Q 1406 3038 1543 3061 
Q 1681 3084 1819 3084 
Q 2600 3084 3056 2656 
Q 3513 2228 3513 1497 
Q 3513 744 3044 326 
Q 2575 -91 1722 -91 
Q 1428 -91 1123 -41 
Q 819 9 494 109 
L 494 744 
Q 775 591 1075 516 
Q 1375 441 1709 441 
Q 2250 441 2565 725 
Q 2881 1009 2881 1497 
Q 2881 1984 2565 2268 
Q 2250 2553 1709 2553 
Q 1456 2553 1204 2497 
Q 953 2441 691 2322 
L 691 4666 
z
" transform="scale(0.015625)"/>
       </defs>
       <use xlink:href="#DejaVuSans-35"/>
       <use xlink:href="#DejaVuSans-30" x="63.623047"/>
      </g>
     </g>
    </g>
    <g id="ytick_3">
     <g id="line2d_10">
      <g>
       <use xlink:href="#m26adea900d" x="57.6" y="228.250014" style="stroke: #000000; stroke-width: 0.8"/>
      </g>
     </g>
     <g id="text_11">
      <!-- 100 -->
      <g transform="translate(31.5125 232.049232) scale(0.1 -0.1)">
       <use xlink:href="#DejaVuSans-31"/>
       <use xlink:href="#DejaVuSans-30" x="63.623047"/>
       <use xlink:href="#DejaVuSans-30" x="127.246094"/>
      </g>
     </g>
    </g>
    <g id="ytick_4">
     <g id="line2d_11">
      <g>
       <use xlink:href="#m26adea900d" x="57.6" y="194.63102" style="stroke: #000000; stroke-width: 0.8"/>
      </g>
     </g>
     <g id="text_12">
      <!-- 150 -->
      <g transform="translate(31.5125 198.430239) scale(0.1 -0.1)">
       <use xlink:href="#DejaVuSans-31"/>
       <use xlink:href="#DejaVuSans-35" x="63.623047"/>
       <use xlink:href="#DejaVuSans-30" x="127.246094"/>
      </g>
     </g>
    </g>
    <g id="ytick_5">
     <g id="line2d_12">
      <g>
       <use xlink:href="#m26adea900d" x="57.6" y="161.012027" style="stroke: #000000; stroke-width: 0.8"/>
      </g>
     </g>
     <g id="text_13">
      <!-- 200 -->
      <g transform="translate(31.5125 164.811246) scale(0.1 -0.1)">
       <use xlink:href="#DejaVuSans-32"/>
       <use xlink:href="#DejaVuSans-30" x="63.623047"/>
       <use xlink:href="#DejaVuSans-30" x="127.246094"/>
      </g>
     </g>
    </g>
    <g id="ytick_6">
     <g id="line2d_13">
      <g>
       <use xlink:href="#m26adea900d" x="57.6" y="127.393034" style="stroke: #000000; stroke-width: 0.8"/>
      </g>
     </g>
     <g id="text_14">
      <!-- 250 -->
      <g transform="translate(31.5125 131.192253) scale(0.1 -0.1)">
       <use xlink:href="#DejaVuSans-32"/>
       <use xlink:href="#DejaVuSans-35" x="63.623047"/>
       <use xlink:href="#DejaVuSans-30" x="127.246094"/>
      </g>
     </g>
    </g>
    <g id="ytick_7">
     <g id="line2d_14">
      <g>
       <use xlink:href="#m26adea900d" x="57.6" y="93.774041" style="stroke: #000000; stroke-width: 0.8"/>
      </g>
     </g>
     <g id="text_15">
      <!-- 300 -->
      <g transform="translate(31.5125 97.57326) scale(0.1 -0.1)">
       <defs>
        <path id="DejaVuSans-33" d="M 2597 2516 
Q 3050 2419 3304 2112 
Q 3559 1806 3559 1356 
Q 3559 666 3084 287 
Q 2609 -91 1734 -91 
Q 1441 -91 1130 -33 
Q 819 25 488 141 
L 488 750 
Q 750 597 1062 519 
Q 1375 441 1716 441 
Q 2309 441 2620 675 
Q 2931 909 2931 1356 
Q 2931 1769 2642 2001 
Q 2353 2234 1838 2234 
L 1294 2234 
L 1294 2753 
L 1863 2753 
Q 2328 2753 2575 2939 
Q 2822 3125 2822 3475 
Q 2822 3834 2567 4026 
Q 2313 4219 1838 4219 
Q 1578 4219 1281 4162 
Q 984 4106 628 3988 
L 628 4550 
Q 988 4650 1302 4700 
Q 1616 4750 1894 4750 
Q 2613 4750 3031 4423 
Q 3450 4097 3450 3541 
Q 3450 3153 3228 2886 
Q 3006 2619 2597 2516 
z
" transform="scale(0.015625)"/>
       </defs>
       <use xlink:href="#DejaVuSans-33"/>
       <use xlink:href="#DejaVuSans-30" x="63.623047"/>
       <use xlink:href="#DejaVuSans-30" x="127.246094"/>
      </g>
     </g>
    </g>
    <g id="ytick_8">
     <g id="line2d_15">
      <g>
       <use xlink:href="#m26adea900d" x="57.6" y="60.155048" style="stroke: #000000; stroke-width: 0.8"/>
      </g>
     </g>
     <g id="text_16">
      <!-- 350 -->
      <g transform="translate(31.5125 63.954266) scale(0.1 -0.1)">
       <use xlink:href="#DejaVuSans-33"/>
       <use xlink:href="#DejaVuSans-35" x="63.623047"/>
       <use xlink:href="#DejaVuSans-30" x="127.246094"/>
      </g>
     </g>
    </g>
    <g id="text_17">
     <!-- Cumulated Sum -->
     <g transform="translate(25.432812 214.693625) rotate(-90) scale(0.1 -0.1)">
      <defs>
       <path id="DejaVuSans-43" d="M 4122 4306 
L 4122 3641 
Q 3803 3938 3442 4084 
Q 3081 4231 2675 4231 
Q 1875 4231 1450 3742 
Q 1025 3253 1025 2328 
Q 1025 1406 1450 917 
Q 1875 428 2675 428 
Q 3081 428 3442 575 
Q 3803 722 4122 1019 
L 4122 359 
Q 3791 134 3420 21 
Q 3050 -91 2638 -91 
Q 1578 -91 968 557 
Q 359 1206 359 2328 
Q 359 3453 968 4101 
Q 1578 4750 2638 4750 
Q 3056 4750 3426 4639 
Q 3797 4528 4122 4306 
z
" transform="scale(0.015625)"/>
       <path id="DejaVuSans-75" d="M 544 1381 
L 544 3500 
L 1119 3500 
L 1119 1403 
Q 1119 906 1312 657 
Q 1506 409 1894 409 
Q 2359 409 2629 706 
Q 2900 1003 2900 1516 
L 2900 3500 
L 3475 3500 
L 3475 0 
L 2900 0 
L 2900 538 
Q 2691 219 2414 64 
Q 2138 -91 1772 -91 
Q 1169 -91 856 284 
Q 544 659 544 1381 
z
M 1991 3584 
L 1991 3584 
z
" transform="scale(0.015625)"/>
       <path id="DejaVuSans-6d" d="M 3328 2828 
Q 3544 3216 3844 3400 
Q 4144 3584 4550 3584 
Q 5097 3584 5394 3201 
Q 5691 2819 5691 2113 
L 5691 0 
L 5113 0 
L 5113 2094 
Q 5113 2597 4934 2840 
Q 4756 3084 4391 3084 
Q 3944 3084 3684 2787 
Q 3425 2491 3425 1978 
L 3425 0 
L 2847 0 
L 2847 2094 
Q 2847 2600 2669 2842 
Q 2491 3084 2119 3084 
Q 1678 3084 1418 2786 
Q 1159 2488 1159 1978 
L 1159 0 
L 581 0 
L 581 3500 
L 1159 3500 
L 1159 2956 
Q 1356 3278 1631 3431 
Q 1906 3584 2284 3584 
Q 2666 3584 2933 3390 
Q 3200 3197 3328 2828 
z
" transform="scale(0.015625)"/>
       <path id="DejaVuSans-6c" d="M 603 4863 
L 1178 4863 
L 1178 0 
L 603 0 
L 603 4863 
z
" transform="scale(0.015625)"/>
       <path id="DejaVuSans-61" d="M 2194 1759 
Q 1497 1759 1228 1600 
Q 959 1441 959 1056 
Q 959 750 1161 570 
Q 1363 391 1709 391 
Q 2188 391 2477 730 
Q 2766 1069 2766 1631 
L 2766 1759 
L 2194 1759 
z
M 3341 1997 
L 3341 0 
L 2766 0 
L 2766 531 
Q 2569 213 2275 61 
Q 1981 -91 1556 -91 
Q 1019 -91 701 211 
Q 384 513 384 1019 
Q 384 1609 779 1909 
Q 1175 2209 1959 2209 
L 2766 2209 
L 2766 2266 
Q 2766 2663 2505 2880 
Q 2244 3097 1772 3097 
Q 1472 3097 1187 3025 
Q 903 2953 641 2809 
L 641 3341 
Q 956 3463 1253 3523 
Q 1550 3584 1831 3584 
Q 2591 3584 2966 3190 
Q 3341 2797 3341 1997 
z
" transform="scale(0.015625)"/>
       <path id="DejaVuSans-65" d="M 3597 1894 
L 3597 1613 
L 953 1613 
Q 991 1019 1311 708 
Q 1631 397 2203 397 
Q 2534 397 2845 478 
Q 3156 559 3463 722 
L 3463 178 
Q 3153 47 2828 -22 
Q 2503 -91 2169 -91 
Q 1331 -91 842 396 
Q 353 884 353 1716 
Q 353 2575 817 3079 
Q 1281 3584 2069 3584 
Q 2775 3584 3186 3129 
Q 3597 2675 3597 1894 
z
M 3022 2063 
Q 3016 2534 2758 2815 
Q 2500 3097 2075 3097 
Q 1594 3097 1305 2825 
Q 1016 2553 972 2059 
L 3022 2063 
z
" transform="scale(0.015625)"/>
       <path id="DejaVuSans-64" d="M 2906 2969 
L 2906 4863 
L 3481 4863 
L 3481 0 
L 2906 0 
L 2906 525 
Q 2725 213 2448 61 
Q 2172 -91 1784 -91 
Q 1150 -91 751 415 
Q 353 922 353 1747 
Q 353 2572 751 3078 
Q 1150 3584 1784 3584 
Q 2172 3584 2448 3432 
Q 2725 3281 2906 2969 
z
M 947 1747 
Q 947 1113 1208 752 
Q 1469 391 1925 391 
Q 2381 391 2643 752 
Q 2906 1113 2906 1747 
Q 2906 2381 2643 2742 
Q 2381 3103 1925 3103 
Q 1469 3103 1208 2742 
Q 947 2381 947 1747 
z
" transform="scale(0.015625)"/>
       <path id="DejaVuSans-20" transform="scale(0.015625)"/>
       <path id="DejaVuSans-53" d="M 3425 4513 
L 3425 3897 
Q 3066 4069 2747 4153 
Q 2428 4238 2131 4238 
Q 1616 4238 1336 4038 
Q 1056 3838 1056 3469 
Q 1056 3159 1242 3001 
Q 1428 2844 1947 2747 
L 2328 2669 
Q 3034 2534 3370 2195 
Q 3706 1856 3706 1288 
Q 3706 609 3251 259 
Q 2797 -91 1919 -91 
Q 1588 -91 1214 -16 
Q 841 59 441 206 
L 441 856 
Q 825 641 1194 531 
Q 1563 422 1919 422 
Q 2459 422 2753 634 
Q 3047 847 3047 1241 
Q 3047 1584 2836 1778 
Q 2625 1972 2144 2069 
L 1759 2144 
Q 1053 2284 737 2584 
Q 422 2884 422 3419 
Q 422 4038 858 4394 
Q 1294 4750 2059 4750 
Q 2388 4750 2728 4690 
Q 3069 4631 3425 4513 
z
" transform="scale(0.015625)"/>
      </defs>
      <use xlink:href="#DejaVuSans-43"/>
      <use xlink:href="#DejaVuSans-75" x="69.824219"/>
      <use xlink:href="#DejaVuSans-6d" x="133.203125"/>
      <use xlink:href="#DejaVuSans-75" x="230.615234"/>
      <use xlink:href="#DejaVuSans-6c" x="293.994141"/>
      <use xlink:href="#DejaVuSans-61" x="321.777344"/>
      <use xlink:href="#DejaVuSans-74" x="383.056641"/>
      <use xlink:href="#DejaVuSans-65" x="422.265625"/>
      <use xlink:href="#DejaVuSans-64" x="483.789062"/>
      <use xlink:href="#DejaVuSans-20" x="547.265625"/>
      <use xlink:href="#DejaVuSans-53" x="579.052734"/>
      <use xlink:href="#DejaVuSans-75" x="642.529297"/>
      <use xlink:href="#DejaVuSans-6d" x="705.908203"/>
     </g>
    </g>
   </g>
   <g id="line2d_16">
    <path d="M 73.832727 295.488 
L 73.832727 295.371077 
L 80.198503 295.371077 
L 80.198503 295.336442 
L 86.564278 295.336442 
L 86.564278 295.327406 
L 92.930053 295.327406 
L 92.930053 295.137943 
L 99.295829 295.137943 
L 99.295829 294.768067 
L 105.661604 294.768067 
L 105.661604 293.127159 
L 112.02738 293.127159 
L 112.02738 292.124852 
L 118.393155 292.124852 
L 118.393155 287.417153 
L 124.75893 287.417153 
L 124.75893 286.055888 
L 131.124706 286.055888 
L 131.124706 285.195825 
L 137.490481 285.195825 
L 137.490481 281.674186 
L 143.856257 281.674186 
L 143.856257 280.996259 
L 150.222032 280.996259 
L 150.222032 279.840558 
L 156.587807 279.840558 
L 156.587807 279.0411 
L 162.953583 279.0411 
L 162.953583 275.98191 
L 169.319358 275.98191 
L 169.319358 274.407506 
L 175.685134 274.407506 
L 175.685134 272.00153 
L 182.050909 272.00153 
L 182.050909 268.353272 
L 188.416684 268.353272 
L 188.416684 267.247857 
L 194.78246 267.247857 
L 194.78246 263.293651 
L 201.148235 263.293651 
L 201.148235 259.262751 
L 207.514011 259.262751 
L 207.514011 254.427904 
L 213.879786 254.427904 
L 213.879786 252.306834 
L 220.245561 252.306834 
L 220.245561 248.301279 
L 226.611337 248.301279 
L 226.611337 243.880581 
L 232.977112 243.880581 
L 232.977112 241.852427 
L 239.342888 241.852427 
L 239.342888 237.600501 
L 245.708663 237.600501 
L 245.708663 231.72322 
L 252.074439 231.72322 
L 252.074439 229.444115 
L 258.440214 229.444115 
L 258.440214 224.788907 
L 264.805989 224.788907 
L 264.805989 220.848506 
L 271.171765 220.848506 
L 271.171765 216.724357 
L 277.53754 216.724357 
L 277.53754 212.223991 
L 283.903316 212.223991 
L 283.903316 209.381113 
L 290.269091 209.381113 
L 290.269091 205.206054 
L 296.634866 205.206054 
L 296.634866 200.012368 
L 303.000642 200.012368 
L 303.000642 195.486813 
L 309.366417 195.486813 
L 309.366417 186.716119 
L 315.732193 186.716119 
L 315.732193 180.113934 
L 322.097968 180.113934 
L 322.097968 171.560134 
L 328.463743 171.560134 
L 328.463743 163.88072 
L 334.829519 163.88072 
L 334.829519 156.108722 
L 341.195294 156.108722 
L 341.195294 151.653632 
L 347.56107 151.653632 
L 347.56107 145.48838 
L 353.926845 145.48838 
L 353.926845 137.441338 
L 360.29262 137.441338 
L 360.29262 128.369085 
L 366.658396 128.369085 
L 366.658396 122.793605 
L 373.024171 122.793605 
L 373.024171 116.477834 
L 379.389947 116.477834 
L 379.389947 109.213731 
L 385.755722 109.213731 
L 385.755722 101.813284 
L 392.121497 101.813284 
L 392.121497 94.145742 
L 398.487273 94.145742 
" clip-path="url(#p8366023230)" style="fill: none; stroke: #1f77b4; stroke-width: 1.5; stroke-linecap: square"/>
   </g>
   <g id="line2d_17">
    <path d="M 73.832727 295.488 
L 73.832727 295.487703 
L 80.198503 295.487703 
L 80.198503 295.476535 
L 86.564278 295.476535 
L 86.564278 295.257566 
L 92.930053 295.257566 
L 92.930053 295.164973 
L 99.295829 295.164973 
L 99.295829 295.156816 
L 105.661604 295.156816 
L 105.661604 294.930601 
L 112.02738 294.930601 
L 112.02738 294.923868 
L 118.393155 294.923868 
L 118.393155 294.838117 
L 124.75893 294.838117 
L 124.75893 294.017541 
L 131.124706 294.017541 
L 131.124706 293.768184 
L 137.490481 293.768184 
L 137.490481 293.564021 
L 143.856257 293.564021 
L 143.856257 293.493658 
L 150.222032 293.493658 
L 150.222032 293.220418 
L 156.587807 293.220418 
L 156.587807 292.914007 
L 162.953583 292.914007 
L 162.953583 292.624512 
L 169.319358 292.624512 
L 169.319358 292.428522 
L 175.685134 292.428522 
L 175.685134 292.228352 
L 182.050909 292.228352 
L 182.050909 291.887366 
L 188.416684 291.887366 
L 188.416684 291.488933 
L 194.78246 291.488933 
L 194.78246 291.095247 
L 201.148235 291.095247 
L 201.148235 290.47565 
L 207.514011 290.47565 
L 207.514011 289.733246 
L 213.879786 289.733246 
L 213.879786 288.882343 
L 220.245561 288.882343 
L 220.245561 288.387659 
L 226.611337 288.387659 
L 226.611337 287.691177 
L 232.977112 287.691177 
L 232.977112 286.675187 
L 239.342888 286.675187 
L 239.342888 285.663927 
L 245.708663 285.663927 
L 245.708663 285.005444 
L 252.074439 285.005444 
L 252.074439 283.673856 
L 258.440214 283.673856 
L 258.440214 282.988066 
L 264.805989 282.988066 
L 264.805989 281.559652 
L 271.171765 281.559652 
L 271.171765 280.592752 
L 277.53754 280.592752 
L 277.53754 279.506464 
L 283.903316 279.506464 
L 283.903316 279.234358 
L 290.269091 279.234358 
L 290.269091 278.860808 
L 296.634866 278.860808 
L 296.634866 277.261866 
L 303.000642 277.261866 
L 303.000642 276.266357 
L 309.366417 276.266357 
L 309.366417 274.888525 
L 315.732193 274.888525 
L 315.732193 274.163098 
L 322.097968 274.163098 
L 322.097968 272.903183 
L 328.463743 272.903183 
L 328.463743 272.14716 
L 334.829519 272.14716 
L 334.829519 271.613038 
L 341.195294 271.613038 
L 341.195294 270.453858 
L 347.56107 270.453858 
L 347.56107 269.262635 
L 353.926845 269.262635 
L 353.926845 267.727481 
L 360.29262 267.727481 
L 360.29262 266.845648 
L 366.658396 266.845648 
L 366.658396 265.891416 
L 373.024171 265.891416 
L 373.024171 265.33001 
L 379.389947 265.33001 
L 379.389947 264.534159 
L 385.755722 264.534159 
L 385.755722 263.934968 
L 392.121497 263.934968 
L 392.121497 263.437118 
L 398.487273 263.437118 
" clip-path="url(#p8366023230)" style="fill: none; stroke: #ff7f0e; stroke-width: 1.5; stroke-linecap: square"/>
   </g>
   <g id="line2d_18">
    <path d="M 73.832727 295.488 
L 73.832727 295.042011 
L 80.198503 295.042011 
L 80.198503 294.920737 
L 86.564278 294.920737 
L 86.564278 294.427402 
L 92.930053 294.427402 
L 92.930053 294.098259 
L 99.295829 294.098259 
L 99.295829 293.921634 
L 105.661604 293.921634 
L 105.661604 291.476135 
L 112.02738 291.476135 
L 112.02738 289.706552 
L 118.393155 289.706552 
L 118.393155 289.261342 
L 124.75893 289.261342 
L 124.75893 288.2454 
L 131.124706 288.2454 
L 131.124706 286.074204 
L 137.490481 286.074204 
L 137.490481 284.014054 
L 143.856257 284.014054 
L 143.856257 281.707224 
L 150.222032 281.707224 
L 150.222032 280.266585 
L 156.587807 280.266585 
L 156.587807 276.097092 
L 162.953583 276.097092 
L 162.953583 273.92752 
L 169.319358 273.92752 
L 169.319358 271.14649 
L 175.685134 271.14649 
L 175.685134 267.526577 
L 182.050909 267.526577 
L 182.050909 264.631637 
L 188.416684 264.631637 
L 188.416684 261.170565 
L 194.78246 261.170565 
L 194.78246 258.471631 
L 201.148235 258.471631 
L 201.148235 255.853188 
L 207.514011 255.853188 
L 207.514011 249.717178 
L 213.879786 249.717178 
L 213.879786 246.814818 
L 220.245561 246.814818 
L 220.245561 241.039769 
L 226.611337 241.039769 
L 226.611337 237.343784 
L 232.977112 237.343784 
L 232.977112 232.67287 
L 239.342888 232.67287 
L 239.342888 229.718492 
L 245.708663 229.718492 
L 245.708663 224.187027 
L 252.074439 224.187027 
L 252.074439 221.348228 
L 258.440214 221.348228 
L 258.440214 214.83411 
L 264.805989 214.83411 
L 264.805989 209.074661 
L 271.171765 209.074661 
L 271.171765 202.742405 
L 277.53754 202.742405 
L 277.53754 198.738613 
L 283.903316 198.738613 
L 283.903316 191.830047 
L 290.269091 191.830047 
L 290.269091 184.550786 
L 296.634866 184.550786 
L 296.634866 180.477981 
L 303.000642 180.477981 
L 303.000642 176.094029 
L 309.366417 176.094029 
L 309.366417 173.020106 
L 315.732193 173.020106 
L 315.732193 160.694777 
L 322.097968 160.694777 
L 322.097968 154.66666 
L 328.463743 154.66666 
L 328.463743 143.803146 
L 334.829519 143.803146 
L 334.829519 138.834096 
L 341.195294 138.834096 
L 341.195294 129.629223 
L 347.56107 129.629223 
L 347.56107 117.995092 
L 353.926845 117.995092 
L 353.926845 113.403208 
L 360.29262 113.403208 
L 360.29262 104.445597 
L 366.658396 104.445597 
L 366.658396 96.834008 
L 373.024171 96.834008 
L 373.024171 84.577556 
L 379.389947 84.577556 
L 379.389947 73.793454 
L 385.755722 73.793454 
L 385.755722 65.386557 
L 392.121497 65.386557 
L 392.121497 53.568 
L 398.487273 53.568 
" clip-path="url(#p8366023230)" style="fill: none; stroke: #2ca02c; stroke-width: 1.5; stroke-linecap: square"/>
   </g>
   <g id="line2d_19">
    <path d="M 73.832727 295.488 
L 73.832727 295.487929 
L 80.198503 295.487929 
L 80.198503 295.373967 
L 86.564278 295.373967 
L 86.564278 294.254304 
L 92.930053 294.254304 
L 92.930053 294.046136 
L 99.295829 294.046136 
L 99.295829 293.789351 
L 105.661604 293.789351 
L 105.661604 293.145094 
L 112.02738 293.145094 
L 112.02738 292.820513 
L 118.393155 292.820513 
L 118.393155 292.112836 
L 124.75893 292.112836 
L 124.75893 291.569006 
L 131.124706 291.569006 
L 131.124706 290.525077 
L 137.490481 290.525077 
L 137.490481 289.791382 
L 143.856257 289.791382 
L 143.856257 289.438261 
L 150.222032 289.438261 
L 150.222032 288.814551 
L 156.587807 288.814551 
L 156.587807 287.799941 
L 162.953583 287.799941 
L 162.953583 287.25236 
L 169.319358 287.25236 
L 169.319358 286.028156 
L 175.685134 286.028156 
L 175.685134 284.333227 
L 182.050909 284.333227 
L 182.050909 282.776699 
L 188.416684 282.776699 
L 188.416684 281.481917 
L 194.78246 281.481917 
L 194.78246 280.225074 
L 201.148235 280.225074 
L 201.148235 278.908622 
L 207.514011 278.908622 
L 207.514011 277.49832 
L 213.879786 277.49832 
L 213.879786 276.199777 
L 220.245561 276.199777 
L 220.245561 274.581049 
L 226.611337 274.581049 
L 226.611337 273.089214 
L 232.977112 273.089214 
L 232.977112 271.581794 
L 239.342888 271.581794 
L 239.342888 270.466376 
L 245.708663 270.466376 
L 245.708663 268.145054 
L 252.074439 268.145054 
L 252.074439 266.003929 
L 258.440214 266.003929 
L 258.440214 263.397815 
L 264.805989 263.397815 
L 264.805989 262.167427 
L 271.171765 262.167427 
L 271.171765 259.138674 
L 277.53754 259.138674 
L 277.53754 257.334535 
L 283.903316 257.334535 
L 283.903316 254.867705 
L 290.269091 254.867705 
L 290.269091 252.855767 
L 296.634866 252.855767 
L 296.634866 250.069847 
L 303.000642 250.069847 
L 303.000642 245.750618 
L 309.366417 245.750618 
L 309.366417 242.715251 
L 315.732193 242.715251 
L 315.732193 239.873062 
L 322.097968 239.873062 
L 322.097968 237.670274 
L 328.463743 237.670274 
L 328.463743 233.885688 
L 334.829519 233.885688 
L 334.829519 230.494984 
L 341.195294 230.494984 
L 341.195294 227.648025 
L 347.56107 227.648025 
L 347.56107 224.339129 
L 353.926845 224.339129 
L 353.926845 219.072877 
L 360.29262 219.072877 
L 360.29262 215.542362 
L 366.658396 215.542362 
L 366.658396 211.76437 
L 373.024171 211.76437 
L 373.024171 207.472679 
L 379.389947 207.472679 
L 379.389947 203.743073 
L 385.755722 203.743073 
L 385.755722 200.524687 
L 392.121497 200.524687 
L 392.121497 197.618834 
L 398.487273 197.618834 
" clip-path="url(#p8366023230)" style="fill: none; stroke: #d62728; stroke-width: 1.5; stroke-linecap: square"/>
   </g>
   <g id="patch_3">
    <path d="M 57.6 307.584 
L 57.6 41.472 
" style="fill: none; stroke: #000000; stroke-width: 0.8; stroke-linejoin: miter; stroke-linecap: square"/>
   </g>
   <g id="patch_4">
    <path d="M 414.72 307.584 
L 414.72 41.472 
" style="fill: none; stroke: #000000; stroke-width: 0.8; stroke-linejoin: miter; stroke-linecap: square"/>
   </g>
   <g id="patch_5">
    <path d="M 57.6 307.584 
L 414.72 307.584 
" style="fill: none; stroke: #000000; stroke-width: 0.8; stroke-linejoin: miter; stroke-linecap: square"/>
   </g>
   <g id="patch_6">
    <path d="M 57.6 41.472 
L 414.72 41.472 
" style="fill: none; stroke: #000000; stroke-width: 0.8; stroke-linejoin: miter; stroke-linecap: square"/>
   </g>
   <g id="text_18">
    <!-- Gamma Processes -->
    <g transform="translate(180.98625 35.472) scale(0.12 -0.12)">
     <defs>
      <path id="DejaVuSans-47" d="M 3809 666 
L 3809 1919 
L 2778 1919 
L 2778 2438 
L 4434 2438 
L 4434 434 
Q 4069 175 3628 42 
Q 3188 -91 2688 -91 
Q 1594 -91 976 548 
Q 359 1188 359 2328 
Q 359 3472 976 4111 
Q 1594 4750 2688 4750 
Q 3144 4750 3555 4637 
Q 3966 4525 4313 4306 
L 4313 3634 
Q 3963 3931 3569 4081 
Q 3175 4231 2741 4231 
Q 1884 4231 1454 3753 
Q 1025 3275 1025 2328 
Q 1025 1384 1454 906 
Q 1884 428 2741 428 
Q 3075 428 3337 486 
Q 3600 544 3809 666 
z
" transform="scale(0.015625)"/>
      <path id="DejaVuSans-50" d="M 1259 4147 
L 1259 2394 
L 2053 2394 
Q 2494 2394 2734 2622 
Q 2975 2850 2975 3272 
Q 2975 3691 2734 3919 
Q 2494 4147 2053 4147 
L 1259 4147 
z
M 628 4666 
L 2053 4666 
Q 2838 4666 3239 4311 
Q 3641 3956 3641 3272 
Q 3641 2581 3239 2228 
Q 2838 1875 2053 1875 
L 1259 1875 
L 1259 0 
L 628 0 
L 628 4666 
z
" transform="scale(0.015625)"/>
      <path id="DejaVuSans-72" d="M 2631 2963 
Q 2534 3019 2420 3045 
Q 2306 3072 2169 3072 
Q 1681 3072 1420 2755 
Q 1159 2438 1159 1844 
L 1159 0 
L 581 0 
L 581 3500 
L 1159 3500 
L 1159 2956 
Q 1341 3275 1631 3429 
Q 1922 3584 2338 3584 
Q 2397 3584 2469 3576 
Q 2541 3569 2628 3553 
L 2631 2963 
z
" transform="scale(0.015625)"/>
      <path id="DejaVuSans-6f" d="M 1959 3097 
Q 1497 3097 1228 2736 
Q 959 2375 959 1747 
Q 959 1119 1226 758 
Q 1494 397 1959 397 
Q 2419 397 2687 759 
Q 2956 1122 2956 1747 
Q 2956 2369 2687 2733 
Q 2419 3097 1959 3097 
z
M 1959 3584 
Q 2709 3584 3137 3096 
Q 3566 2609 3566 1747 
Q 3566 888 3137 398 
Q 2709 -91 1959 -91 
Q 1206 -91 779 398 
Q 353 888 353 1747 
Q 353 2609 779 3096 
Q 1206 3584 1959 3584 
z
" transform="scale(0.015625)"/>
      <path id="DejaVuSans-63" d="M 3122 3366 
L 3122 2828 
Q 2878 2963 2633 3030 
Q 2388 3097 2138 3097 
Q 1578 3097 1268 2742 
Q 959 2388 959 1747 
Q 959 1106 1268 751 
Q 1578 397 2138 397 
Q 2388 397 2633 464 
Q 2878 531 3122 666 
L 3122 134 
Q 2881 22 2623 -34 
Q 2366 -91 2075 -91 
Q 1284 -91 818 406 
Q 353 903 353 1747 
Q 353 2603 823 3093 
Q 1294 3584 2113 3584 
Q 2378 3584 2631 3529 
Q 2884 3475 3122 3366 
z
" transform="scale(0.015625)"/>
      <path id="DejaVuSans-73" d="M 2834 3397 
L 2834 2853 
Q 2591 2978 2328 3040 
Q 2066 3103 1784 3103 
Q 1356 3103 1142 2972 
Q 928 2841 928 2578 
Q 928 2378 1081 2264 
Q 1234 2150 1697 2047 
L 1894 2003 
Q 2506 1872 2764 1633 
Q 3022 1394 3022 966 
Q 3022 478 2636 193 
Q 2250 -91 1575 -91 
Q 1294 -91 989 -36 
Q 684 19 347 128 
L 347 722 
Q 666 556 975 473 
Q 1284 391 1588 391 
Q 1994 391 2212 530 
Q 2431 669 2431 922 
Q 2431 1156 2273 1281 
Q 2116 1406 1581 1522 
L 1381 1569 
Q 847 1681 609 1914 
Q 372 2147 372 2553 
Q 372 3047 722 3315 
Q 1072 3584 1716 3584 
Q 2034 3584 2315 3537 
Q 2597 3491 2834 3397 
z
" transform="scale(0.015625)"/>
     </defs>
     <use xlink:href="#DejaVuSans-47"/>
     <use xlink:href="#DejaVuSans-61" x="77.490234"/>
     <use xlink:href="#DejaVuSans-6d" x="138.769531"/>
     <use xlink:href="#DejaVuSans-6d" x="236.181641"/>
     <use xlink:href="#DejaVuSans-61" x="333.59375"/>
     <use xlink:href="#DejaVuSans-20" x="394.873047"/>
     <use xlink:href="#DejaVuSans-50" x="426.660156"/>
     <use xlink:href="#DejaVuSans-72" x="485.212891"/>
     <use xlink:href="#DejaVuSans-6f" x="524.076172"/>
     <use xlink:href="#DejaVuSans-63" x="585.257812"/>
     <use xlink:href="#DejaVuSans-65" x="640.238281"/>
     <use xlink:href="#DejaVuSans-73" x="701.761719"/>
     <use xlink:href="#DejaVuSans-73" x="753.861328"/>
     <use xlink:href="#DejaVuSans-65" x="805.960938"/>
     <use xlink:href="#DejaVuSans-73" x="867.484375"/>
    </g>
   </g>
   <g id="legend_1">
    <g id="patch_7">
     <path d="M 64.6 109.018875 
L 211.829688 109.018875 
Q 213.829688 109.018875 213.829688 107.018875 
L 213.829688 48.472 
Q 213.829688 46.472 211.829688 46.472 
L 64.6 46.472 
Q 62.6 46.472 62.6 48.472 
L 62.6 107.018875 
Q 62.6 109.018875 64.6 109.018875 
z
" style="fill: #ffffff; opacity: 0.8; stroke: #cccccc; stroke-linejoin: miter"/>
    </g>
    <g id="line2d_20">
     <path d="M 66.6 54.570438 
L 66.6 54.570438 
L 76.6 54.570438 
L 76.6 54.570438 
L 86.6 54.570438 
" style="fill: none; stroke: #1f77b4; stroke-width: 1.5; stroke-linecap: square"/>
    </g>
    <g id="text_19">
     <!-- Cumulated X_1 -->
     <g transform="translate(94.6 58.070438) scale(0.1 -0.1)">
      <defs>
       <path id="DejaVuSans-58" d="M 403 4666 
L 1081 4666 
L 2241 2931 
L 3406 4666 
L 4084 4666 
L 2584 2425 
L 4184 0 
L 3506 0 
L 2194 1984 
L 872 0 
L 191 0 
L 1856 2491 
L 403 4666 
z
" transform="scale(0.015625)"/>
       <path id="DejaVuSans-5f" d="M 3263 -1063 
L 3263 -1509 
L -63 -1509 
L -63 -1063 
L 3263 -1063 
z
" transform="scale(0.015625)"/>
      </defs>
      <use xlink:href="#DejaVuSans-43"/>
      <use xlink:href="#DejaVuSans-75" x="69.824219"/>
      <use xlink:href="#DejaVuSans-6d" x="133.203125"/>
      <use xlink:href="#DejaVuSans-75" x="230.615234"/>
      <use xlink:href="#DejaVuSans-6c" x="293.994141"/>
      <use xlink:href="#DejaVuSans-61" x="321.777344"/>
      <use xlink:href="#DejaVuSans-74" x="383.056641"/>
      <use xlink:href="#DejaVuSans-65" x="422.265625"/>
      <use xlink:href="#DejaVuSans-64" x="483.789062"/>
      <use xlink:href="#DejaVuSans-20" x="547.265625"/>
      <use xlink:href="#DejaVuSans-58" x="579.052734"/>
      <use xlink:href="#DejaVuSans-5f" x="647.558594"/>
      <use xlink:href="#DejaVuSans-31" x="697.558594"/>
     </g>
    </g>
    <g id="line2d_21">
     <path d="M 66.6 69.526688 
L 66.6 69.526688 
L 76.6 69.526688 
L 76.6 69.526688 
L 86.6 69.526688 
" style="fill: none; stroke: #ff7f0e; stroke-width: 1.5; stroke-linecap: square"/>
    </g>
    <g id="text_20">
     <!-- Cumulated X_2 -->
     <g transform="translate(94.6 73.026688) scale(0.1 -0.1)">
      <use xlink:href="#DejaVuSans-43"/>
      <use xlink:href="#DejaVuSans-75" x="69.824219"/>
      <use xlink:href="#DejaVuSans-6d" x="133.203125"/>
      <use xlink:href="#DejaVuSans-75" x="230.615234"/>
      <use xlink:href="#DejaVuSans-6c" x="293.994141"/>
      <use xlink:href="#DejaVuSans-61" x="321.777344"/>
      <use xlink:href="#DejaVuSans-74" x="383.056641"/>
      <use xlink:href="#DejaVuSans-65" x="422.265625"/>
      <use xlink:href="#DejaVuSans-64" x="483.789062"/>
      <use xlink:href="#DejaVuSans-20" x="547.265625"/>
      <use xlink:href="#DejaVuSans-58" x="579.052734"/>
      <use xlink:href="#DejaVuSans-5f" x="647.558594"/>
      <use xlink:href="#DejaVuSans-32" x="697.558594"/>
     </g>
    </g>
    <g id="line2d_22">
     <path d="M 66.6 84.482938 
L 66.6 84.482938 
L 76.6 84.482938 
L 76.6 84.482938 
L 86.6 84.482938 
" style="fill: none; stroke: #2ca02c; stroke-width: 1.5; stroke-linecap: square"/>
    </g>
    <g id="text_21">
     <!-- Cumulated Y -->
     <g transform="translate(94.6 87.982938) scale(0.1 -0.1)">
      <defs>
       <path id="DejaVuSans-59" d="M -13 4666 
L 666 4666 
L 1959 2747 
L 3244 4666 
L 3922 4666 
L 2272 2222 
L 2272 0 
L 1638 0 
L 1638 2222 
L -13 4666 
z
" transform="scale(0.015625)"/>
      </defs>
      <use xlink:href="#DejaVuSans-43"/>
      <use xlink:href="#DejaVuSans-75" x="69.824219"/>
      <use xlink:href="#DejaVuSans-6d" x="133.203125"/>
      <use xlink:href="#DejaVuSans-75" x="230.615234"/>
      <use xlink:href="#DejaVuSans-6c" x="293.994141"/>
      <use xlink:href="#DejaVuSans-61" x="321.777344"/>
      <use xlink:href="#DejaVuSans-74" x="383.056641"/>
      <use xlink:href="#DejaVuSans-65" x="422.265625"/>
      <use xlink:href="#DejaVuSans-64" x="483.789062"/>
      <use xlink:href="#DejaVuSans-20" x="547.265625"/>
      <use xlink:href="#DejaVuSans-59" x="579.052734"/>
     </g>
    </g>
    <g id="line2d_23">
     <path d="M 66.6 99.161063 
L 66.6 99.161063 
L 76.6 99.161063 
L 76.6 99.161063 
L 86.6 99.161063 
" style="fill: none; stroke: #d62728; stroke-width: 1.5; stroke-linecap: square"/>
    </g>
    <g id="text_22">
     <!-- Cumulated Y_weighted -->
     <g transform="translate(94.6 102.661063) scale(0.1 -0.1)">
      <defs>
       <path id="DejaVuSans-77" d="M 269 3500 
L 844 3500 
L 1563 769 
L 2278 3500 
L 2956 3500 
L 3675 769 
L 4391 3500 
L 4966 3500 
L 4050 0 
L 3372 0 
L 2619 2869 
L 1863 0 
L 1184 0 
L 269 3500 
z
" transform="scale(0.015625)"/>
       <path id="DejaVuSans-69" d="M 603 3500 
L 1178 3500 
L 1178 0 
L 603 0 
L 603 3500 
z
M 603 4863 
L 1178 4863 
L 1178 4134 
L 603 4134 
L 603 4863 
z
" transform="scale(0.015625)"/>
       <path id="DejaVuSans-67" d="M 2906 1791 
Q 2906 2416 2648 2759 
Q 2391 3103 1925 3103 
Q 1463 3103 1205 2759 
Q 947 2416 947 1791 
Q 947 1169 1205 825 
Q 1463 481 1925 481 
Q 2391 481 2648 825 
Q 2906 1169 2906 1791 
z
M 3481 434 
Q 3481 -459 3084 -895 
Q 2688 -1331 1869 -1331 
Q 1566 -1331 1297 -1286 
Q 1028 -1241 775 -1147 
L 775 -588 
Q 1028 -725 1275 -790 
Q 1522 -856 1778 -856 
Q 2344 -856 2625 -561 
Q 2906 -266 2906 331 
L 2906 616 
Q 2728 306 2450 153 
Q 2172 0 1784 0 
Q 1141 0 747 490 
Q 353 981 353 1791 
Q 353 2603 747 3093 
Q 1141 3584 1784 3584 
Q 2172 3584 2450 3431 
Q 2728 3278 2906 2969 
L 2906 3500 
L 3481 3500 
L 3481 434 
z
" transform="scale(0.015625)"/>
       <path id="DejaVuSans-68" d="M 3513 2113 
L 3513 0 
L 2938 0 
L 2938 2094 
Q 2938 2591 2744 2837 
Q 2550 3084 2163 3084 
Q 1697 3084 1428 2787 
Q 1159 2491 1159 1978 
L 1159 0 
L 581 0 
L 581 4863 
L 1159 4863 
L 1159 2956 
Q 1366 3272 1645 3428 
Q 1925 3584 2291 3584 
Q 2894 3584 3203 3211 
Q 3513 2838 3513 2113 
z
" transform="scale(0.015625)"/>
      </defs>
      <use xlink:href="#DejaVuSans-43"/>
      <use xlink:href="#DejaVuSans-75" x="69.824219"/>
      <use xlink:href="#DejaVuSans-6d" x="133.203125"/>
      <use xlink:href="#DejaVuSans-75" x="230.615234"/>
      <use xlink:href="#DejaVuSans-6c" x="293.994141"/>
      <use xlink:href="#DejaVuSans-61" x="321.777344"/>
      <use xlink:href="#DejaVuSans-74" x="383.056641"/>
      <use xlink:href="#DejaVuSans-65" x="422.265625"/>
      <use xlink:href="#DejaVuSans-64" x="483.789062"/>
      <use xlink:href="#DejaVuSans-20" x="547.265625"/>
      <use xlink:href="#DejaVuSans-59" x="579.052734"/>
      <use xlink:href="#DejaVuSans-5f" x="640.136719"/>
      <use xlink:href="#DejaVuSans-77" x="690.136719"/>
      <use xlink:href="#DejaVuSans-65" x="771.923828"/>
      <use xlink:href="#DejaVuSans-69" x="833.447266"/>
      <use xlink:href="#DejaVuSans-67" x="861.230469"/>
      <use xlink:href="#DejaVuSans-68" x="924.707031"/>
      <use xlink:href="#DejaVuSans-74" x="988.085938"/>
      <use xlink:href="#DejaVuSans-65" x="1027.294922"/>
      <use xlink:href="#DejaVuSans-64" x="1088.818359"/>
     </g>
    </g>
   </g>
  </g>
 </g>
 <defs>
  <clipPath id="p8366023230">
   <rect x="57.6" y="41.472" width="357.12" height="266.112"/>
  </clipPath>
 </defs>
</svg>
