<?xml version="1.0" encoding="utf-8" standalone="no"?>
<!DOCTYPE svg PUBLIC "-//W3C//DTD SVG 1.1//EN"
  "http://www.w3.org/Graphics/SVG/1.1/DTD/svg11.dtd">
<svg xmlns:xlink="http://www.w3.org/1999/xlink" width="720pt" height="432pt" viewBox="0 0 720 432" xmlns="http://www.w3.org/2000/svg" version="1.1">
 <metadata>
  <rdf:RDF xmlns:dc="http://purl.org/dc/elements/1.1/" xmlns:cc="http://creativecommons.org/ns#" xmlns:rdf="http://www.w3.org/1999/02/22-rdf-syntax-ns#">
   <cc:Work>
    <dc:type rdf:resource="http://purl.org/dc/dcmitype/StillImage"/>
    <dc:date>2023-11-21T15:51:23.415370</dc:date>
    <dc:format>image/svg+xml</dc:format>
    <dc:creator>
     <cc:Agent>
      <dc:title>Matplotlib v3.7.2, https://matplotlib.org/</dc:title>
     </cc:Agent>
    </dc:creator>
   </cc:Work>
  </rdf:RDF>
 </metadata>
 <defs>
  <style type="text/css">*{stroke-linejoin: round; stroke-linecap: butt}</style>
 </defs>
 <g id="figure_1">
  <g id="patch_1">
   <path d="M 0 432 
L 720 432 
L 720 0 
L 0 0 
z
" style="fill: #ffffff"/>
  </g>
  <g id="axes_1">
   <g id="patch_2">
    <path d="M 44.57 390.04 
L 709.2 390.04 
L 709.2 10.8 
L 44.57 10.8 
z
" style="fill: #ffffff"/>
   </g>
   <g id="matplotlib.axis_1">
    <g id="xtick_1">
     <g id="line2d_1">
      <path d="M 74.780455 390.04 
L 74.780455 10.8 
" clip-path="url(#p2ededfddf0)" style="fill: none; stroke: #dddddd; stroke-width: 0.9; stroke-linecap: square"/>
     </g>
     <g id="line2d_2">
      <defs>
       <path id="ma0c9a782bb" d="M 0 0 
L 0 3.5 
" style="stroke: #000000; stroke-width: 0.8"/>
      </defs>
      <g>
       <use xlink:href="#ma0c9a782bb" x="74.780455" y="390.04" style="stroke: #000000; stroke-width: 0.8"/>
      </g>
     </g>
     <g id="text_1">
      <!-- 0 -->
      <g transform="translate(71.599205 404.638438) scale(0.1 -0.1)">
       <defs>
        <path id="DejaVuSans-30" d="M 2034 4250 
Q 1547 4250 1301 3770 
Q 1056 3291 1056 2328 
Q 1056 1369 1301 889 
Q 1547 409 2034 409 
Q 2525 409 2770 889 
Q 3016 1369 3016 2328 
Q 3016 3291 2770 3770 
Q 2525 4250 2034 4250 
z
M 2034 4750 
Q 2819 4750 3233 4129 
Q 3647 3509 3647 2328 
Q 3647 1150 3233 529 
Q 2819 -91 2034 -91 
Q 1250 -91 836 529 
Q 422 1150 422 2328 
Q 422 3509 836 4129 
Q 1250 4750 2034 4750 
z
" transform="scale(0.015625)"/>
       </defs>
       <use xlink:href="#DejaVuSans-30"/>
      </g>
     </g>
    </g>
    <g id="xtick_2">
     <g id="line2d_3">
      <path d="M 195.622273 390.04 
L 195.622273 10.8 
" clip-path="url(#p2ededfddf0)" style="fill: none; stroke: #dddddd; stroke-width: 0.9; stroke-linecap: square"/>
     </g>
     <g id="line2d_4">
      <g>
       <use xlink:href="#ma0c9a782bb" x="195.622273" y="390.04" style="stroke: #000000; stroke-width: 0.8"/>
      </g>
     </g>
     <g id="text_2">
      <!-- 20 -->
      <g transform="translate(189.259773 404.638438) scale(0.1 -0.1)">
       <defs>
        <path id="DejaVuSans-32" d="M 1228 531 
L 3431 531 
L 3431 0 
L 469 0 
L 469 531 
Q 828 903 1448 1529 
Q 2069 2156 2228 2338 
Q 2531 2678 2651 2914 
Q 2772 3150 2772 3378 
Q 2772 3750 2511 3984 
Q 2250 4219 1831 4219 
Q 1534 4219 1204 4116 
Q 875 4013 500 3803 
L 500 4441 
Q 881 4594 1212 4672 
Q 1544 4750 1819 4750 
Q 2544 4750 2975 4387 
Q 3406 4025 3406 3419 
Q 3406 3131 3298 2873 
Q 3191 2616 2906 2266 
Q 2828 2175 2409 1742 
Q 1991 1309 1228 531 
z
" transform="scale(0.015625)"/>
       </defs>
       <use xlink:href="#DejaVuSans-32"/>
       <use xlink:href="#DejaVuSans-30" x="63.623047"/>
      </g>
     </g>
    </g>
    <g id="xtick_3">
     <g id="line2d_5">
      <path d="M 316.464091 390.04 
L 316.464091 10.8 
" clip-path="url(#p2ededfddf0)" style="fill: none; stroke: #dddddd; stroke-width: 0.9; stroke-linecap: square"/>
     </g>
     <g id="line2d_6">
      <g>
       <use xlink:href="#ma0c9a782bb" x="316.464091" y="390.04" style="stroke: #000000; stroke-width: 0.8"/>
      </g>
     </g>
     <g id="text_3">
      <!-- 40 -->
      <g transform="translate(310.101591 404.638438) scale(0.1 -0.1)">
       <defs>
        <path id="DejaVuSans-34" d="M 2419 4116 
L 825 1625 
L 2419 1625 
L 2419 4116 
z
M 2253 4666 
L 3047 4666 
L 3047 1625 
L 3713 1625 
L 3713 1100 
L 3047 1100 
L 3047 0 
L 2419 0 
L 2419 1100 
L 313 1100 
L 313 1709 
L 2253 4666 
z
" transform="scale(0.015625)"/>
       </defs>
       <use xlink:href="#DejaVuSans-34"/>
       <use xlink:href="#DejaVuSans-30" x="63.623047"/>
      </g>
     </g>
    </g>
    <g id="xtick_4">
     <g id="line2d_7">
      <path d="M 437.305909 390.04 
L 437.305909 10.8 
" clip-path="url(#p2ededfddf0)" style="fill: none; stroke: #dddddd; stroke-width: 0.9; stroke-linecap: square"/>
     </g>
     <g id="line2d_8">
      <g>
       <use xlink:href="#ma0c9a782bb" x="437.305909" y="390.04" style="stroke: #000000; stroke-width: 0.8"/>
      </g>
     </g>
     <g id="text_4">
      <!-- 60 -->
      <g transform="translate(430.943409 404.638438) scale(0.1 -0.1)">
       <defs>
        <path id="DejaVuSans-36" d="M 2113 2584 
Q 1688 2584 1439 2293 
Q 1191 2003 1191 1497 
Q 1191 994 1439 701 
Q 1688 409 2113 409 
Q 2538 409 2786 701 
Q 3034 994 3034 1497 
Q 3034 2003 2786 2293 
Q 2538 2584 2113 2584 
z
M 3366 4563 
L 3366 3988 
Q 3128 4100 2886 4159 
Q 2644 4219 2406 4219 
Q 1781 4219 1451 3797 
Q 1122 3375 1075 2522 
Q 1259 2794 1537 2939 
Q 1816 3084 2150 3084 
Q 2853 3084 3261 2657 
Q 3669 2231 3669 1497 
Q 3669 778 3244 343 
Q 2819 -91 2113 -91 
Q 1303 -91 875 529 
Q 447 1150 447 2328 
Q 447 3434 972 4092 
Q 1497 4750 2381 4750 
Q 2619 4750 2861 4703 
Q 3103 4656 3366 4563 
z
" transform="scale(0.015625)"/>
       </defs>
       <use xlink:href="#DejaVuSans-36"/>
       <use xlink:href="#DejaVuSans-30" x="63.623047"/>
      </g>
     </g>
    </g>
    <g id="xtick_5">
     <g id="line2d_9">
      <path d="M 558.147727 390.04 
L 558.147727 10.8 
" clip-path="url(#p2ededfddf0)" style="fill: none; stroke: #dddddd; stroke-width: 0.9; stroke-linecap: square"/>
     </g>
     <g id="line2d_10">
      <g>
       <use xlink:href="#ma0c9a782bb" x="558.147727" y="390.04" style="stroke: #000000; stroke-width: 0.8"/>
      </g>
     </g>
     <g id="text_5">
      <!-- 80 -->
      <g transform="translate(551.785227 404.638438) scale(0.1 -0.1)">
       <defs>
        <path id="DejaVuSans-38" d="M 2034 2216 
Q 1584 2216 1326 1975 
Q 1069 1734 1069 1313 
Q 1069 891 1326 650 
Q 1584 409 2034 409 
Q 2484 409 2743 651 
Q 3003 894 3003 1313 
Q 3003 1734 2745 1975 
Q 2488 2216 2034 2216 
z
M 1403 2484 
Q 997 2584 770 2862 
Q 544 3141 544 3541 
Q 544 4100 942 4425 
Q 1341 4750 2034 4750 
Q 2731 4750 3128 4425 
Q 3525 4100 3525 3541 
Q 3525 3141 3298 2862 
Q 3072 2584 2669 2484 
Q 3125 2378 3379 2068 
Q 3634 1759 3634 1313 
Q 3634 634 3220 271 
Q 2806 -91 2034 -91 
Q 1263 -91 848 271 
Q 434 634 434 1313 
Q 434 1759 690 2068 
Q 947 2378 1403 2484 
z
M 1172 3481 
Q 1172 3119 1398 2916 
Q 1625 2713 2034 2713 
Q 2441 2713 2670 2916 
Q 2900 3119 2900 3481 
Q 2900 3844 2670 4047 
Q 2441 4250 2034 4250 
Q 1625 4250 1398 4047 
Q 1172 3844 1172 3481 
z
" transform="scale(0.015625)"/>
       </defs>
       <use xlink:href="#DejaVuSans-38"/>
       <use xlink:href="#DejaVuSans-30" x="63.623047"/>
      </g>
     </g>
    </g>
    <g id="xtick_6">
     <g id="line2d_11">
      <path d="M 678.989545 390.04 
L 678.989545 10.8 
" clip-path="url(#p2ededfddf0)" style="fill: none; stroke: #dddddd; stroke-width: 0.9; stroke-linecap: square"/>
     </g>
     <g id="line2d_12">
      <g>
       <use xlink:href="#ma0c9a782bb" x="678.989545" y="390.04" style="stroke: #000000; stroke-width: 0.8"/>
      </g>
     </g>
     <g id="text_6">
      <!-- 100 -->
      <g transform="translate(669.445795 404.638438) scale(0.1 -0.1)">
       <defs>
        <path id="DejaVuSans-31" d="M 794 531 
L 1825 531 
L 1825 4091 
L 703 3866 
L 703 4441 
L 1819 4666 
L 2450 4666 
L 2450 531 
L 3481 531 
L 3481 0 
L 794 0 
L 794 531 
z
" transform="scale(0.015625)"/>
       </defs>
       <use xlink:href="#DejaVuSans-31"/>
       <use xlink:href="#DejaVuSans-30" x="63.623047"/>
       <use xlink:href="#DejaVuSans-30" x="127.246094"/>
      </g>
     </g>
    </g>
    <g id="xtick_7">
     <g id="line2d_13">
      <path d="M 104.990909 390.04 
L 104.990909 10.8 
" clip-path="url(#p2ededfddf0)" style="fill: none; stroke-dasharray: 0.9,1.485; stroke-dashoffset: 0; stroke: #eeeeee; stroke-width: 0.9"/>
     </g>
     <g id="line2d_14">
      <defs>
       <path id="mc7aa3f7ea4" d="M 0 0 
L 0 2 
" style="stroke: #000000; stroke-width: 0.6"/>
      </defs>
      <g>
       <use xlink:href="#mc7aa3f7ea4" x="104.990909" y="390.04" style="stroke: #000000; stroke-width: 0.6"/>
      </g>
     </g>
    </g>
    <g id="xtick_8">
     <g id="line2d_15">
      <path d="M 135.201364 390.04 
L 135.201364 10.8 
" clip-path="url(#p2ededfddf0)" style="fill: none; stroke-dasharray: 0.9,1.485; stroke-dashoffset: 0; stroke: #eeeeee; stroke-width: 0.9"/>
     </g>
     <g id="line2d_16">
      <g>
       <use xlink:href="#mc7aa3f7ea4" x="135.201364" y="390.04" style="stroke: #000000; stroke-width: 0.6"/>
      </g>
     </g>
    </g>
    <g id="xtick_9">
     <g id="line2d_17">
      <path d="M 165.411818 390.04 
L 165.411818 10.8 
" clip-path="url(#p2ededfddf0)" style="fill: none; stroke-dasharray: 0.9,1.485; stroke-dashoffset: 0; stroke: #eeeeee; stroke-width: 0.9"/>
     </g>
     <g id="line2d_18">
      <g>
       <use xlink:href="#mc7aa3f7ea4" x="165.411818" y="390.04" style="stroke: #000000; stroke-width: 0.6"/>
      </g>
     </g>
    </g>
    <g id="xtick_10">
     <g id="line2d_19">
      <path d="M 225.832727 390.04 
L 225.832727 10.8 
" clip-path="url(#p2ededfddf0)" style="fill: none; stroke-dasharray: 0.9,1.485; stroke-dashoffset: 0; stroke: #eeeeee; stroke-width: 0.9"/>
     </g>
     <g id="line2d_20">
      <g>
       <use xlink:href="#mc7aa3f7ea4" x="225.832727" y="390.04" style="stroke: #000000; stroke-width: 0.6"/>
      </g>
     </g>
    </g>
    <g id="xtick_11">
     <g id="line2d_21">
      <path d="M 256.043182 390.04 
L 256.043182 10.8 
" clip-path="url(#p2ededfddf0)" style="fill: none; stroke-dasharray: 0.9,1.485; stroke-dashoffset: 0; stroke: #eeeeee; stroke-width: 0.9"/>
     </g>
     <g id="line2d_22">
      <g>
       <use xlink:href="#mc7aa3f7ea4" x="256.043182" y="390.04" style="stroke: #000000; stroke-width: 0.6"/>
      </g>
     </g>
    </g>
    <g id="xtick_12">
     <g id="line2d_23">
      <path d="M 286.253636 390.04 
L 286.253636 10.8 
" clip-path="url(#p2ededfddf0)" style="fill: none; stroke-dasharray: 0.9,1.485; stroke-dashoffset: 0; stroke: #eeeeee; stroke-width: 0.9"/>
     </g>
     <g id="line2d_24">
      <g>
       <use xlink:href="#mc7aa3f7ea4" x="286.253636" y="390.04" style="stroke: #000000; stroke-width: 0.6"/>
      </g>
     </g>
    </g>
    <g id="xtick_13">
     <g id="line2d_25">
      <path d="M 346.674545 390.04 
L 346.674545 10.8 
" clip-path="url(#p2ededfddf0)" style="fill: none; stroke-dasharray: 0.9,1.485; stroke-dashoffset: 0; stroke: #eeeeee; stroke-width: 0.9"/>
     </g>
     <g id="line2d_26">
      <g>
       <use xlink:href="#mc7aa3f7ea4" x="346.674545" y="390.04" style="stroke: #000000; stroke-width: 0.6"/>
      </g>
     </g>
    </g>
    <g id="xtick_14">
     <g id="line2d_27">
      <path d="M 376.885 390.04 
L 376.885 10.8 
" clip-path="url(#p2ededfddf0)" style="fill: none; stroke-dasharray: 0.9,1.485; stroke-dashoffset: 0; stroke: #eeeeee; stroke-width: 0.9"/>
     </g>
     <g id="line2d_28">
      <g>
       <use xlink:href="#mc7aa3f7ea4" x="376.885" y="390.04" style="stroke: #000000; stroke-width: 0.6"/>
      </g>
     </g>
    </g>
    <g id="xtick_15">
     <g id="line2d_29">
      <path d="M 407.095455 390.04 
L 407.095455 10.8 
" clip-path="url(#p2ededfddf0)" style="fill: none; stroke-dasharray: 0.9,1.485; stroke-dashoffset: 0; stroke: #eeeeee; stroke-width: 0.9"/>
     </g>
     <g id="line2d_30">
      <g>
       <use xlink:href="#mc7aa3f7ea4" x="407.095455" y="390.04" style="stroke: #000000; stroke-width: 0.6"/>
      </g>
     </g>
    </g>
    <g id="xtick_16">
     <g id="line2d_31">
      <path d="M 467.516364 390.04 
L 467.516364 10.8 
" clip-path="url(#p2ededfddf0)" style="fill: none; stroke-dasharray: 0.9,1.485; stroke-dashoffset: 0; stroke: #eeeeee; stroke-width: 0.9"/>
     </g>
     <g id="line2d_32">
      <g>
       <use xlink:href="#mc7aa3f7ea4" x="467.516364" y="390.04" style="stroke: #000000; stroke-width: 0.6"/>
      </g>
     </g>
    </g>
    <g id="xtick_17">
     <g id="line2d_33">
      <path d="M 497.726818 390.04 
L 497.726818 10.8 
" clip-path="url(#p2ededfddf0)" style="fill: none; stroke-dasharray: 0.9,1.485; stroke-dashoffset: 0; stroke: #eeeeee; stroke-width: 0.9"/>
     </g>
     <g id="line2d_34">
      <g>
       <use xlink:href="#mc7aa3f7ea4" x="497.726818" y="390.04" style="stroke: #000000; stroke-width: 0.6"/>
      </g>
     </g>
    </g>
    <g id="xtick_18">
     <g id="line2d_35">
      <path d="M 527.937273 390.04 
L 527.937273 10.8 
" clip-path="url(#p2ededfddf0)" style="fill: none; stroke-dasharray: 0.9,1.485; stroke-dashoffset: 0; stroke: #eeeeee; stroke-width: 0.9"/>
     </g>
     <g id="line2d_36">
      <g>
       <use xlink:href="#mc7aa3f7ea4" x="527.937273" y="390.04" style="stroke: #000000; stroke-width: 0.6"/>
      </g>
     </g>
    </g>
    <g id="xtick_19">
     <g id="line2d_37">
      <path d="M 588.358182 390.04 
L 588.358182 10.8 
" clip-path="url(#p2ededfddf0)" style="fill: none; stroke-dasharray: 0.9,1.485; stroke-dashoffset: 0; stroke: #eeeeee; stroke-width: 0.9"/>
     </g>
     <g id="line2d_38">
      <g>
       <use xlink:href="#mc7aa3f7ea4" x="588.358182" y="390.04" style="stroke: #000000; stroke-width: 0.6"/>
      </g>
     </g>
    </g>
    <g id="xtick_20">
     <g id="line2d_39">
      <path d="M 618.568636 390.04 
L 618.568636 10.8 
" clip-path="url(#p2ededfddf0)" style="fill: none; stroke-dasharray: 0.9,1.485; stroke-dashoffset: 0; stroke: #eeeeee; stroke-width: 0.9"/>
     </g>
     <g id="line2d_40">
      <g>
       <use xlink:href="#mc7aa3f7ea4" x="618.568636" y="390.04" style="stroke: #000000; stroke-width: 0.6"/>
      </g>
     </g>
    </g>
    <g id="xtick_21">
     <g id="line2d_41">
      <path d="M 648.779091 390.04 
L 648.779091 10.8 
" clip-path="url(#p2ededfddf0)" style="fill: none; stroke-dasharray: 0.9,1.485; stroke-dashoffset: 0; stroke: #eeeeee; stroke-width: 0.9"/>
     </g>
     <g id="line2d_42">
      <g>
       <use xlink:href="#mc7aa3f7ea4" x="648.779091" y="390.04" style="stroke: #000000; stroke-width: 0.6"/>
      </g>
     </g>
    </g>
    <g id="xtick_22">
     <g id="line2d_43">
      <path d="M 709.2 390.04 
L 709.2 10.8 
" clip-path="url(#p2ededfddf0)" style="fill: none; stroke-dasharray: 0.9,1.485; stroke-dashoffset: 0; stroke: #eeeeee; stroke-width: 0.9"/>
     </g>
     <g id="line2d_44">
      <g>
       <use xlink:href="#mc7aa3f7ea4" x="709.2" y="390.04" style="stroke: #000000; stroke-width: 0.6"/>
      </g>
     </g>
    </g>
    <g id="text_7">
     <!-- Time -->
     <g transform="translate(364.651406 418.316562) scale(0.1 -0.1)">
      <defs>
       <path id="DejaVuSans-54" d="M -19 4666 
L 3928 4666 
L 3928 4134 
L 2272 4134 
L 2272 0 
L 1638 0 
L 1638 4134 
L -19 4134 
L -19 4666 
z
" transform="scale(0.015625)"/>
       <path id="DejaVuSans-69" d="M 603 3500 
L 1178 3500 
L 1178 0 
L 603 0 
L 603 3500 
z
M 603 4863 
L 1178 4863 
L 1178 4134 
L 603 4134 
L 603 4863 
z
" transform="scale(0.015625)"/>
       <path id="DejaVuSans-6d" d="M 3328 2828 
Q 3544 3216 3844 3400 
Q 4144 3584 4550 3584 
Q 5097 3584 5394 3201 
Q 5691 2819 5691 2113 
L 5691 0 
L 5113 0 
L 5113 2094 
Q 5113 2597 4934 2840 
Q 4756 3084 4391 3084 
Q 3944 3084 3684 2787 
Q 3425 2491 3425 1978 
L 3425 0 
L 2847 0 
L 2847 2094 
Q 2847 2600 2669 2842 
Q 2491 3084 2119 3084 
Q 1678 3084 1418 2786 
Q 1159 2488 1159 1978 
L 1159 0 
L 581 0 
L 581 3500 
L 1159 3500 
L 1159 2956 
Q 1356 3278 1631 3431 
Q 1906 3584 2284 3584 
Q 2666 3584 2933 3390 
Q 3200 3197 3328 2828 
z
" transform="scale(0.015625)"/>
       <path id="DejaVuSans-65" d="M 3597 1894 
L 3597 1613 
L 953 1613 
Q 991 1019 1311 708 
Q 1631 397 2203 397 
Q 2534 397 2845 478 
Q 3156 559 3463 722 
L 3463 178 
Q 3153 47 2828 -22 
Q 2503 -91 2169 -91 
Q 1331 -91 842 396 
Q 353 884 353 1716 
Q 353 2575 817 3079 
Q 1281 3584 2069 3584 
Q 2775 3584 3186 3129 
Q 3597 2675 3597 1894 
z
M 3022 2063 
Q 3016 2534 2758 2815 
Q 2500 3097 2075 3097 
Q 1594 3097 1305 2825 
Q 1016 2553 972 2059 
L 3022 2063 
z
" transform="scale(0.015625)"/>
      </defs>
      <use xlink:href="#DejaVuSans-54"/>
      <use xlink:href="#DejaVuSans-69" x="57.958984"/>
      <use xlink:href="#DejaVuSans-6d" x="85.742188"/>
      <use xlink:href="#DejaVuSans-65" x="183.154297"/>
     </g>
    </g>
   </g>
   <g id="matplotlib.axis_2">
    <g id="ytick_1">
     <g id="line2d_45">
      <path d="M 44.57 377.243178 
L 709.2 377.243178 
" clip-path="url(#p2ededfddf0)" style="fill: none; stroke: #dddddd; stroke-width: 0.9; stroke-linecap: square"/>
     </g>
     <g id="line2d_46">
      <defs>
       <path id="mcee558c151" d="M 0 0 
L -3.5 0 
" style="stroke: #000000; stroke-width: 0.8"/>
      </defs>
      <g>
       <use xlink:href="#mcee558c151" x="44.57" y="377.243178" style="stroke: #000000; stroke-width: 0.8"/>
      </g>
     </g>
     <g id="text_8">
      <!-- 0 -->
      <g transform="translate(31.2075 381.042397) scale(0.1 -0.1)">
       <use xlink:href="#DejaVuSans-30"/>
      </g>
     </g>
    </g>
    <g id="ytick_2">
     <g id="line2d_47">
      <path d="M 44.57 309.595541 
L 709.2 309.595541 
" clip-path="url(#p2ededfddf0)" style="fill: none; stroke: #dddddd; stroke-width: 0.9; stroke-linecap: square"/>
     </g>
     <g id="line2d_48">
      <g>
       <use xlink:href="#mcee558c151" x="44.57" y="309.595541" style="stroke: #000000; stroke-width: 0.8"/>
      </g>
     </g>
     <g id="text_9">
      <!-- 2 -->
      <g transform="translate(31.2075 313.39476) scale(0.1 -0.1)">
       <use xlink:href="#DejaVuSans-32"/>
      </g>
     </g>
    </g>
    <g id="ytick_3">
     <g id="line2d_49">
      <path d="M 44.57 241.947904 
L 709.2 241.947904 
" clip-path="url(#p2ededfddf0)" style="fill: none; stroke: #dddddd; stroke-width: 0.9; stroke-linecap: square"/>
     </g>
     <g id="line2d_50">
      <g>
       <use xlink:href="#mcee558c151" x="44.57" y="241.947904" style="stroke: #000000; stroke-width: 0.8"/>
      </g>
     </g>
     <g id="text_10">
      <!-- 4 -->
      <g transform="translate(31.2075 245.747123) scale(0.1 -0.1)">
       <use xlink:href="#DejaVuSans-34"/>
      </g>
     </g>
    </g>
    <g id="ytick_4">
     <g id="line2d_51">
      <path d="M 44.57 174.300267 
L 709.2 174.300267 
" clip-path="url(#p2ededfddf0)" style="fill: none; stroke: #dddddd; stroke-width: 0.9; stroke-linecap: square"/>
     </g>
     <g id="line2d_52">
      <g>
       <use xlink:href="#mcee558c151" x="44.57" y="174.300267" style="stroke: #000000; stroke-width: 0.8"/>
      </g>
     </g>
     <g id="text_11">
      <!-- 6 -->
      <g transform="translate(31.2075 178.099486) scale(0.1 -0.1)">
       <use xlink:href="#DejaVuSans-36"/>
      </g>
     </g>
    </g>
    <g id="ytick_5">
     <g id="line2d_53">
      <path d="M 44.57 106.65263 
L 709.2 106.65263 
" clip-path="url(#p2ededfddf0)" style="fill: none; stroke: #dddddd; stroke-width: 0.9; stroke-linecap: square"/>
     </g>
     <g id="line2d_54">
      <g>
       <use xlink:href="#mcee558c151" x="44.57" y="106.65263" style="stroke: #000000; stroke-width: 0.8"/>
      </g>
     </g>
     <g id="text_12">
      <!-- 8 -->
      <g transform="translate(31.2075 110.451849) scale(0.1 -0.1)">
       <use xlink:href="#DejaVuSans-38"/>
      </g>
     </g>
    </g>
    <g id="ytick_6">
     <g id="line2d_55">
      <path d="M 44.57 39.004993 
L 709.2 39.004993 
" clip-path="url(#p2ededfddf0)" style="fill: none; stroke: #dddddd; stroke-width: 0.9; stroke-linecap: square"/>
     </g>
     <g id="line2d_56">
      <g>
       <use xlink:href="#mcee558c151" x="44.57" y="39.004993" style="stroke: #000000; stroke-width: 0.8"/>
      </g>
     </g>
     <g id="text_13">
      <!-- 10 -->
      <g transform="translate(24.845 42.804212) scale(0.1 -0.1)">
       <use xlink:href="#DejaVuSans-31"/>
       <use xlink:href="#DejaVuSans-30" x="63.623047"/>
      </g>
     </g>
    </g>
    <g id="ytick_7">
     <g id="line2d_57">
      <path d="M 44.57 360.331269 
L 709.2 360.331269 
" clip-path="url(#p2ededfddf0)" style="fill: none; stroke-dasharray: 0.9,1.485; stroke-dashoffset: 0; stroke: #eeeeee; stroke-width: 0.9"/>
     </g>
     <g id="line2d_58">
      <defs>
       <path id="m6d74af687a" d="M 0 0 
L -2 0 
" style="stroke: #000000; stroke-width: 0.6"/>
      </defs>
      <g>
       <use xlink:href="#m6d74af687a" x="44.57" y="360.331269" style="stroke: #000000; stroke-width: 0.6"/>
      </g>
     </g>
    </g>
    <g id="ytick_8">
     <g id="line2d_59">
      <path d="M 44.57 343.41936 
L 709.2 343.41936 
" clip-path="url(#p2ededfddf0)" style="fill: none; stroke-dasharray: 0.9,1.485; stroke-dashoffset: 0; stroke: #eeeeee; stroke-width: 0.9"/>
     </g>
     <g id="line2d_60">
      <g>
       <use xlink:href="#m6d74af687a" x="44.57" y="343.41936" style="stroke: #000000; stroke-width: 0.6"/>
      </g>
     </g>
    </g>
    <g id="ytick_9">
     <g id="line2d_61">
      <path d="M 44.57 326.50745 
L 709.2 326.50745 
" clip-path="url(#p2ededfddf0)" style="fill: none; stroke-dasharray: 0.9,1.485; stroke-dashoffset: 0; stroke: #eeeeee; stroke-width: 0.9"/>
     </g>
     <g id="line2d_62">
      <g>
       <use xlink:href="#m6d74af687a" x="44.57" y="326.50745" style="stroke: #000000; stroke-width: 0.6"/>
      </g>
     </g>
    </g>
    <g id="ytick_10">
     <g id="line2d_63">
      <path d="M 44.57 292.683632 
L 709.2 292.683632 
" clip-path="url(#p2ededfddf0)" style="fill: none; stroke-dasharray: 0.9,1.485; stroke-dashoffset: 0; stroke: #eeeeee; stroke-width: 0.9"/>
     </g>
     <g id="line2d_64">
      <g>
       <use xlink:href="#m6d74af687a" x="44.57" y="292.683632" style="stroke: #000000; stroke-width: 0.6"/>
      </g>
     </g>
    </g>
    <g id="ytick_11">
     <g id="line2d_65">
      <path d="M 44.57 275.771723 
L 709.2 275.771723 
" clip-path="url(#p2ededfddf0)" style="fill: none; stroke-dasharray: 0.9,1.485; stroke-dashoffset: 0; stroke: #eeeeee; stroke-width: 0.9"/>
     </g>
     <g id="line2d_66">
      <g>
       <use xlink:href="#m6d74af687a" x="44.57" y="275.771723" style="stroke: #000000; stroke-width: 0.6"/>
      </g>
     </g>
    </g>
    <g id="ytick_12">
     <g id="line2d_67">
      <path d="M 44.57 258.859813 
L 709.2 258.859813 
" clip-path="url(#p2ededfddf0)" style="fill: none; stroke-dasharray: 0.9,1.485; stroke-dashoffset: 0; stroke: #eeeeee; stroke-width: 0.9"/>
     </g>
     <g id="line2d_68">
      <g>
       <use xlink:href="#m6d74af687a" x="44.57" y="258.859813" style="stroke: #000000; stroke-width: 0.6"/>
      </g>
     </g>
    </g>
    <g id="ytick_13">
     <g id="line2d_69">
      <path d="M 44.57 225.035995 
L 709.2 225.035995 
" clip-path="url(#p2ededfddf0)" style="fill: none; stroke-dasharray: 0.9,1.485; stroke-dashoffset: 0; stroke: #eeeeee; stroke-width: 0.9"/>
     </g>
     <g id="line2d_70">
      <g>
       <use xlink:href="#m6d74af687a" x="44.57" y="225.035995" style="stroke: #000000; stroke-width: 0.6"/>
      </g>
     </g>
    </g>
    <g id="ytick_14">
     <g id="line2d_71">
      <path d="M 44.57 208.124086 
L 709.2 208.124086 
" clip-path="url(#p2ededfddf0)" style="fill: none; stroke-dasharray: 0.9,1.485; stroke-dashoffset: 0; stroke: #eeeeee; stroke-width: 0.9"/>
     </g>
     <g id="line2d_72">
      <g>
       <use xlink:href="#m6d74af687a" x="44.57" y="208.124086" style="stroke: #000000; stroke-width: 0.6"/>
      </g>
     </g>
    </g>
    <g id="ytick_15">
     <g id="line2d_73">
      <path d="M 44.57 191.212176 
L 709.2 191.212176 
" clip-path="url(#p2ededfddf0)" style="fill: none; stroke-dasharray: 0.9,1.485; stroke-dashoffset: 0; stroke: #eeeeee; stroke-width: 0.9"/>
     </g>
     <g id="line2d_74">
      <g>
       <use xlink:href="#m6d74af687a" x="44.57" y="191.212176" style="stroke: #000000; stroke-width: 0.6"/>
      </g>
     </g>
    </g>
    <g id="ytick_16">
     <g id="line2d_75">
      <path d="M 44.57 157.388358 
L 709.2 157.388358 
" clip-path="url(#p2ededfddf0)" style="fill: none; stroke-dasharray: 0.9,1.485; stroke-dashoffset: 0; stroke: #eeeeee; stroke-width: 0.9"/>
     </g>
     <g id="line2d_76">
      <g>
       <use xlink:href="#m6d74af687a" x="44.57" y="157.388358" style="stroke: #000000; stroke-width: 0.6"/>
      </g>
     </g>
    </g>
    <g id="ytick_17">
     <g id="line2d_77">
      <path d="M 44.57 140.476449 
L 709.2 140.476449 
" clip-path="url(#p2ededfddf0)" style="fill: none; stroke-dasharray: 0.9,1.485; stroke-dashoffset: 0; stroke: #eeeeee; stroke-width: 0.9"/>
     </g>
     <g id="line2d_78">
      <g>
       <use xlink:href="#m6d74af687a" x="44.57" y="140.476449" style="stroke: #000000; stroke-width: 0.6"/>
      </g>
     </g>
    </g>
    <g id="ytick_18">
     <g id="line2d_79">
      <path d="M 44.57 123.564539 
L 709.2 123.564539 
" clip-path="url(#p2ededfddf0)" style="fill: none; stroke-dasharray: 0.9,1.485; stroke-dashoffset: 0; stroke: #eeeeee; stroke-width: 0.9"/>
     </g>
     <g id="line2d_80">
      <g>
       <use xlink:href="#m6d74af687a" x="44.57" y="123.564539" style="stroke: #000000; stroke-width: 0.6"/>
      </g>
     </g>
    </g>
    <g id="ytick_19">
     <g id="line2d_81">
      <path d="M 44.57 89.740721 
L 709.2 89.740721 
" clip-path="url(#p2ededfddf0)" style="fill: none; stroke-dasharray: 0.9,1.485; stroke-dashoffset: 0; stroke: #eeeeee; stroke-width: 0.9"/>
     </g>
     <g id="line2d_82">
      <g>
       <use xlink:href="#m6d74af687a" x="44.57" y="89.740721" style="stroke: #000000; stroke-width: 0.6"/>
      </g>
     </g>
    </g>
    <g id="ytick_20">
     <g id="line2d_83">
      <path d="M 44.57 72.828812 
L 709.2 72.828812 
" clip-path="url(#p2ededfddf0)" style="fill: none; stroke-dasharray: 0.9,1.485; stroke-dashoffset: 0; stroke: #eeeeee; stroke-width: 0.9"/>
     </g>
     <g id="line2d_84">
      <g>
       <use xlink:href="#m6d74af687a" x="44.57" y="72.828812" style="stroke: #000000; stroke-width: 0.6"/>
      </g>
     </g>
    </g>
    <g id="ytick_21">
     <g id="line2d_85">
      <path d="M 44.57 55.916902 
L 709.2 55.916902 
" clip-path="url(#p2ededfddf0)" style="fill: none; stroke-dasharray: 0.9,1.485; stroke-dashoffset: 0; stroke: #eeeeee; stroke-width: 0.9"/>
     </g>
     <g id="line2d_86">
      <g>
       <use xlink:href="#m6d74af687a" x="44.57" y="55.916902" style="stroke: #000000; stroke-width: 0.6"/>
      </g>
     </g>
    </g>
    <g id="ytick_22">
     <g id="line2d_87">
      <path d="M 44.57 22.093084 
L 709.2 22.093084 
" clip-path="url(#p2ededfddf0)" style="fill: none; stroke-dasharray: 0.9,1.485; stroke-dashoffset: 0; stroke: #eeeeee; stroke-width: 0.9"/>
     </g>
     <g id="line2d_88">
      <g>
       <use xlink:href="#m6d74af687a" x="44.57" y="22.093084" style="stroke: #000000; stroke-width: 0.6"/>
      </g>
     </g>
    </g>
    <g id="text_14">
     <!-- Standard Deviation (%) -->
     <g transform="translate(18.765312 258.914531) rotate(-90) scale(0.1 -0.1)">
      <defs>
       <path id="DejaVuSans-53" d="M 3425 4513 
L 3425 3897 
Q 3066 4069 2747 4153 
Q 2428 4238 2131 4238 
Q 1616 4238 1336 4038 
Q 1056 3838 1056 3469 
Q 1056 3159 1242 3001 
Q 1428 2844 1947 2747 
L 2328 2669 
Q 3034 2534 3370 2195 
Q 3706 1856 3706 1288 
Q 3706 609 3251 259 
Q 2797 -91 1919 -91 
Q 1588 -91 1214 -16 
Q 841 59 441 206 
L 441 856 
Q 825 641 1194 531 
Q 1563 422 1919 422 
Q 2459 422 2753 634 
Q 3047 847 3047 1241 
Q 3047 1584 2836 1778 
Q 2625 1972 2144 2069 
L 1759 2144 
Q 1053 2284 737 2584 
Q 422 2884 422 3419 
Q 422 4038 858 4394 
Q 1294 4750 2059 4750 
Q 2388 4750 2728 4690 
Q 3069 4631 3425 4513 
z
" transform="scale(0.015625)"/>
       <path id="DejaVuSans-74" d="M 1172 4494 
L 1172 3500 
L 2356 3500 
L 2356 3053 
L 1172 3053 
L 1172 1153 
Q 1172 725 1289 603 
Q 1406 481 1766 481 
L 2356 481 
L 2356 0 
L 1766 0 
Q 1100 0 847 248 
Q 594 497 594 1153 
L 594 3053 
L 172 3053 
L 172 3500 
L 594 3500 
L 594 4494 
L 1172 4494 
z
" transform="scale(0.015625)"/>
       <path id="DejaVuSans-61" d="M 2194 1759 
Q 1497 1759 1228 1600 
Q 959 1441 959 1056 
Q 959 750 1161 570 
Q 1363 391 1709 391 
Q 2188 391 2477 730 
Q 2766 1069 2766 1631 
L 2766 1759 
L 2194 1759 
z
M 3341 1997 
L 3341 0 
L 2766 0 
L 2766 531 
Q 2569 213 2275 61 
Q 1981 -91 1556 -91 
Q 1019 -91 701 211 
Q 384 513 384 1019 
Q 384 1609 779 1909 
Q 1175 2209 1959 2209 
L 2766 2209 
L 2766 2266 
Q 2766 2663 2505 2880 
Q 2244 3097 1772 3097 
Q 1472 3097 1187 3025 
Q 903 2953 641 2809 
L 641 3341 
Q 956 3463 1253 3523 
Q 1550 3584 1831 3584 
Q 2591 3584 2966 3190 
Q 3341 2797 3341 1997 
z
" transform="scale(0.015625)"/>
       <path id="DejaVuSans-6e" d="M 3513 2113 
L 3513 0 
L 2938 0 
L 2938 2094 
Q 2938 2591 2744 2837 
Q 2550 3084 2163 3084 
Q 1697 3084 1428 2787 
Q 1159 2491 1159 1978 
L 1159 0 
L 581 0 
L 581 3500 
L 1159 3500 
L 1159 2956 
Q 1366 3272 1645 3428 
Q 1925 3584 2291 3584 
Q 2894 3584 3203 3211 
Q 3513 2838 3513 2113 
z
" transform="scale(0.015625)"/>
       <path id="DejaVuSans-64" d="M 2906 2969 
L 2906 4863 
L 3481 4863 
L 3481 0 
L 2906 0 
L 2906 525 
Q 2725 213 2448 61 
Q 2172 -91 1784 -91 
Q 1150 -91 751 415 
Q 353 922 353 1747 
Q 353 2572 751 3078 
Q 1150 3584 1784 3584 
Q 2172 3584 2448 3432 
Q 2725 3281 2906 2969 
z
M 947 1747 
Q 947 1113 1208 752 
Q 1469 391 1925 391 
Q 2381 391 2643 752 
Q 2906 1113 2906 1747 
Q 2906 2381 2643 2742 
Q 2381 3103 1925 3103 
Q 1469 3103 1208 2742 
Q 947 2381 947 1747 
z
" transform="scale(0.015625)"/>
       <path id="DejaVuSans-72" d="M 2631 2963 
Q 2534 3019 2420 3045 
Q 2306 3072 2169 3072 
Q 1681 3072 1420 2755 
Q 1159 2438 1159 1844 
L 1159 0 
L 581 0 
L 581 3500 
L 1159 3500 
L 1159 2956 
Q 1341 3275 1631 3429 
Q 1922 3584 2338 3584 
Q 2397 3584 2469 3576 
Q 2541 3569 2628 3553 
L 2631 2963 
z
" transform="scale(0.015625)"/>
       <path id="DejaVuSans-20" transform="scale(0.015625)"/>
       <path id="DejaVuSans-44" d="M 1259 4147 
L 1259 519 
L 2022 519 
Q 2988 519 3436 956 
Q 3884 1394 3884 2338 
Q 3884 3275 3436 3711 
Q 2988 4147 2022 4147 
L 1259 4147 
z
M 628 4666 
L 1925 4666 
Q 3281 4666 3915 4102 
Q 4550 3538 4550 2338 
Q 4550 1131 3912 565 
Q 3275 0 1925 0 
L 628 0 
L 628 4666 
z
" transform="scale(0.015625)"/>
       <path id="DejaVuSans-76" d="M 191 3500 
L 800 3500 
L 1894 563 
L 2988 3500 
L 3597 3500 
L 2284 0 
L 1503 0 
L 191 3500 
z
" transform="scale(0.015625)"/>
       <path id="DejaVuSans-6f" d="M 1959 3097 
Q 1497 3097 1228 2736 
Q 959 2375 959 1747 
Q 959 1119 1226 758 
Q 1494 397 1959 397 
Q 2419 397 2687 759 
Q 2956 1122 2956 1747 
Q 2956 2369 2687 2733 
Q 2419 3097 1959 3097 
z
M 1959 3584 
Q 2709 3584 3137 3096 
Q 3566 2609 3566 1747 
Q 3566 888 3137 398 
Q 2709 -91 1959 -91 
Q 1206 -91 779 398 
Q 353 888 353 1747 
Q 353 2609 779 3096 
Q 1206 3584 1959 3584 
z
" transform="scale(0.015625)"/>
       <path id="DejaVuSans-28" d="M 1984 4856 
Q 1566 4138 1362 3434 
Q 1159 2731 1159 2009 
Q 1159 1288 1364 580 
Q 1569 -128 1984 -844 
L 1484 -844 
Q 1016 -109 783 600 
Q 550 1309 550 2009 
Q 550 2706 781 3412 
Q 1013 4119 1484 4856 
L 1984 4856 
z
" transform="scale(0.015625)"/>
       <path id="DejaVuSans-25" d="M 4653 2053 
Q 4381 2053 4226 1822 
Q 4072 1591 4072 1178 
Q 4072 772 4226 539 
Q 4381 306 4653 306 
Q 4919 306 5073 539 
Q 5228 772 5228 1178 
Q 5228 1588 5073 1820 
Q 4919 2053 4653 2053 
z
M 4653 2450 
Q 5147 2450 5437 2106 
Q 5728 1763 5728 1178 
Q 5728 594 5436 251 
Q 5144 -91 4653 -91 
Q 4153 -91 3862 251 
Q 3572 594 3572 1178 
Q 3572 1766 3864 2108 
Q 4156 2450 4653 2450 
z
M 1428 4353 
Q 1159 4353 1004 4120 
Q 850 3888 850 3481 
Q 850 3069 1003 2837 
Q 1156 2606 1428 2606 
Q 1700 2606 1854 2837 
Q 2009 3069 2009 3481 
Q 2009 3884 1853 4118 
Q 1697 4353 1428 4353 
z
M 4250 4750 
L 4750 4750 
L 1831 -91 
L 1331 -91 
L 4250 4750 
z
M 1428 4750 
Q 1922 4750 2215 4408 
Q 2509 4066 2509 3481 
Q 2509 2891 2217 2550 
Q 1925 2209 1428 2209 
Q 931 2209 642 2551 
Q 353 2894 353 3481 
Q 353 4063 643 4406 
Q 934 4750 1428 4750 
z
" transform="scale(0.015625)"/>
       <path id="DejaVuSans-29" d="M 513 4856 
L 1013 4856 
Q 1481 4119 1714 3412 
Q 1947 2706 1947 2009 
Q 1947 1309 1714 600 
Q 1481 -109 1013 -844 
L 513 -844 
Q 928 -128 1133 580 
Q 1338 1288 1338 2009 
Q 1338 2731 1133 3434 
Q 928 4138 513 4856 
z
" transform="scale(0.015625)"/>
      </defs>
      <use xlink:href="#DejaVuSans-53"/>
      <use xlink:href="#DejaVuSans-74" x="63.476562"/>
      <use xlink:href="#DejaVuSans-61" x="102.685547"/>
      <use xlink:href="#DejaVuSans-6e" x="163.964844"/>
      <use xlink:href="#DejaVuSans-64" x="227.34375"/>
      <use xlink:href="#DejaVuSans-61" x="290.820312"/>
      <use xlink:href="#DejaVuSans-72" x="352.099609"/>
      <use xlink:href="#DejaVuSans-64" x="391.462891"/>
      <use xlink:href="#DejaVuSans-20" x="454.939453"/>
      <use xlink:href="#DejaVuSans-44" x="486.726562"/>
      <use xlink:href="#DejaVuSans-65" x="563.728516"/>
      <use xlink:href="#DejaVuSans-76" x="625.251953"/>
      <use xlink:href="#DejaVuSans-69" x="684.431641"/>
      <use xlink:href="#DejaVuSans-61" x="712.214844"/>
      <use xlink:href="#DejaVuSans-74" x="773.494141"/>
      <use xlink:href="#DejaVuSans-69" x="812.703125"/>
      <use xlink:href="#DejaVuSans-6f" x="840.486328"/>
      <use xlink:href="#DejaVuSans-6e" x="901.667969"/>
      <use xlink:href="#DejaVuSans-20" x="965.046875"/>
      <use xlink:href="#DejaVuSans-28" x="996.833984"/>
      <use xlink:href="#DejaVuSans-25" x="1035.847656"/>
      <use xlink:href="#DejaVuSans-29" x="1130.867188"/>
     </g>
    </g>
   </g>
   <g id="line2d_89">
    <path d="M 74.780455 372.801818 
L 80.822545 330.288661 
L 86.864636 317.005686 
L 92.906727 260.087743 
L 98.948818 278.766268 
L 104.990909 233.160814 
L 111.033 217.559716 
L 117.075091 193.592364 
L 123.117182 161.589788 
L 129.159273 228.026154 
L 135.201364 130.905619 
L 141.243455 174.014616 
L 147.285545 184.707666 
L 153.327636 137.778499 
L 159.369727 270.35178 
L 165.411818 86.898375 
L 171.453909 241.557223 
L 177.496 128.729443 
L 183.538091 187.731918 
L 189.580182 266.732256 
L 195.622273 234.172216 
L 201.664364 196.893512 
L 207.706455 68.098437 
L 213.748545 181.012792 
L 219.790636 164.868838 
L 225.832727 192.915316 
L 231.874818 72.139227 
L 237.916909 241.539857 
L 243.959 42.674461 
L 250.001091 212.186888 
L 256.043182 119.179871 
L 262.085273 247.176907 
L 268.127364 191.158403 
L 274.169455 225.481176 
L 280.211545 219.732416 
L 286.253636 197.350069 
L 292.295727 233.714126 
L 298.337818 130.636893 
L 304.379909 295.599044 
L 310.422 207.227258 
L 316.464091 298.421347 
L 322.506182 174.104775 
L 328.548273 107.641833 
L 334.590364 175.816983 
L 340.632455 131.701438 
L 346.674545 227.039987 
L 352.716636 183.539992 
L 358.758727 265.307557 
L 364.800818 279.260668 
L 370.842909 311.601116 
L 376.885 147.363286 
L 382.927091 231.226508 
L 388.969182 201.670836 
L 395.011273 249.965297 
L 401.053364 164.679028 
L 407.095455 175.237255 
L 413.137545 114.802519 
L 419.179636 184.551034 
L 425.221727 128.580988 
L 431.263818 165.557108 
L 437.305909 93.717866 
L 443.348 155.701472 
L 449.390091 138.918022 
L 455.432182 285.179463 
L 461.474273 111.710424 
L 467.516364 191.479017 
L 473.558455 196.705065 
L 479.600545 217.382549 
L 485.642636 235.545133 
L 491.684727 80.157623 
L 497.726818 253.099248 
L 503.768909 166.412914 
L 509.811 195.260734 
L 515.853091 262.625231 
L 521.895182 178.241428 
L 527.937273 246.643404 
L 533.979364 214.792163 
L 540.021455 184.205077 
L 546.063545 170.809738 
L 552.105636 264.900918 
L 558.147727 79.795163 
L 564.189818 207.935258 
L 570.231909 133.645841 
L 576.274 248.322033 
L 582.316091 168.557588 
L 588.358182 155.200331 
L 594.400273 166.656023 
L 600.442364 37.226241 
L 606.484455 149.702577 
L 612.526545 225.707169 
L 618.568636 187.953256 
L 624.610727 230.116601 
L 630.652818 177.822899 
L 636.694909 237.341725 
L 642.737 231.022928 
L 648.779091 262.870041 
L 654.821182 192.67448 
L 660.863273 275.445984 
L 666.905364 64.931896 
L 672.947455 183.112907 
L 678.989545 28.038182 
" clip-path="url(#p2ededfddf0)" style="fill: none; stroke: #1f77b4; stroke-width: 1.5; stroke-linecap: square"/>
   </g>
   <g id="line2d_90">
    <path d="M 74.780455 368.993333 
L 80.822545 241.194707 
L 86.864636 216.219426 
L 92.906727 213.071246 
L 98.948818 215.639428 
L 104.990909 196.540284 
L 111.033 170.839723 
L 117.075091 201.893395 
L 123.117182 176.691184 
L 129.159273 240.014015 
L 135.201364 165.944484 
L 141.243455 179.506139 
L 147.285545 184.641358 
L 153.327636 193.041925 
L 159.369727 142.902962 
L 165.411818 127.294588 
L 171.453909 143.010217 
L 177.496 140.647466 
L 183.538091 166.894346 
L 189.580182 165.260677 
L 195.622273 196.054054 
L 201.664364 153.132696 
L 207.706455 199.952739 
L 213.748545 180.097874 
L 219.790636 148.865703 
L 225.832727 136.05786 
L 231.874818 190.39822 
L 237.916909 149.92658 
L 243.959 211.362886 
L 250.001091 155.105019 
L 256.043182 184.878948 
L 262.085273 139.988386 
L 268.127364 164.056206 
L 274.169455 176.695055 
L 280.211545 162.198616 
L 286.253636 214.407228 
L 292.295727 159.649058 
L 298.337818 149.522136 
L 304.379909 155.662562 
L 310.422 195.485521 
L 316.464091 167.227624 
L 322.506182 162.008771 
L 328.548273 166.521583 
L 334.590364 196.350657 
L 340.632455 174.804248 
L 346.674545 194.211918 
L 352.716636 163.430358 
L 358.758727 202.17423 
L 364.800818 185.042297 
L 370.842909 148.717785 
L 376.885 177.582115 
L 382.927091 197.659244 
L 388.969182 123.362848 
L 395.011273 148.396568 
L 401.053364 115.079249 
L 407.095455 109.711342 
L 413.137545 174.620176 
L 419.179636 182.035766 
L 425.221727 153.916978 
L 431.263818 164.571698 
L 437.305909 162.615421 
L 443.348 161.359052 
L 449.390091 170.391827 
L 455.432182 161.347826 
L 461.474273 117.430852 
L 467.516364 187.990061 
L 473.558455 144.158495 
L 479.600545 138.461452 
L 485.642636 185.661974 
L 491.684727 150.015279 
L 497.726818 159.269247 
L 503.768909 124.327612 
L 509.811 117.339643 
L 515.853091 122.237039 
L 521.895182 129.171792 
L 527.937273 172.100721 
L 533.979364 170.847508 
L 540.021455 164.734702 
L 546.063545 124.881874 
L 552.105636 138.654612 
L 558.147727 111.349133 
L 564.189818 148.294432 
L 570.231909 120.271091 
L 576.274 182.034184 
L 582.316091 105.419914 
L 588.358182 207.49421 
L 594.400273 160.241503 
L 600.442364 193.907443 
L 606.484455 167.636936 
L 612.526545 211.064836 
L 618.568636 177.365271 
L 624.610727 177.798961 
L 630.652818 176.743571 
L 636.694909 114.868811 
L 642.737 164.400273 
L 648.779091 108.178678 
L 654.821182 130.014939 
L 660.863273 160.953156 
L 666.905364 110.319876 
L 672.947455 186.549682 
L 678.989545 171.792601 
" clip-path="url(#p2ededfddf0)" style="fill: none; stroke: #ff7f0e; stroke-width: 1.5; stroke-linecap: square"/>
   </g>
   <g id="line2d_91">
    <path d="M 74.780455 371.124766 
L 80.822545 225.632395 
L 86.864636 192.219795 
L 92.906727 231.314159 
L 98.948818 189.431991 
L 104.990909 186.260335 
L 111.033 209.765485 
L 117.075091 195.867654 
L 123.117182 172.183298 
L 129.159273 145.095429 
L 135.201364 186.951349 
L 141.243455 167.344572 
L 147.285545 158.553251 
L 153.327636 148.419244 
L 159.369727 144.341639 
L 165.411818 169.928793 
L 171.453909 156.595063 
L 177.496 188.92959 
L 183.538091 142.704207 
L 189.580182 177.928094 
L 195.622273 159.933329 
L 201.664364 193.954079 
L 207.706455 153.934083 
L 213.748545 195.123143 
L 219.790636 164.142024 
L 225.832727 164.665055 
L 231.874818 170.93433 
L 237.916909 176.876183 
L 243.959 172.744076 
L 250.001091 155.414715 
L 256.043182 160.012626 
L 262.085273 151.696364 
L 268.127364 124.163815 
L 274.169455 116.287169 
L 280.211545 132.452893 
L 286.253636 147.690433 
L 292.295727 147.437183 
L 298.337818 158.800297 
L 304.379909 169.315282 
L 310.422 161.911918 
L 316.464091 156.37791 
L 322.506182 131.44477 
L 328.548273 175.337093 
L 334.590364 152.705354 
L 340.632455 170.571976 
L 346.674545 148.899591 
L 352.716636 187.972424 
L 358.758727 130.518756 
L 364.800818 147.181076 
L 370.842909 157.550803 
L 376.885 111.475828 
L 382.927091 171.386824 
L 388.969182 162.793146 
L 395.011273 205.192725 
L 401.053364 153.868251 
L 407.095455 198.092986 
L 413.137545 152.480005 
L 419.179636 178.650988 
L 425.221727 142.869102 
L 431.263818 159.747071 
L 437.305909 168.569281 
L 443.348 167.766422 
L 449.390091 161.946792 
L 455.432182 176.17154 
L 461.474273 130.216611 
L 467.516364 158.917573 
L 473.558455 155.930613 
L 479.600545 170.94073 
L 485.642636 146.439937 
L 491.684727 187.661235 
L 497.726818 135.668779 
L 503.768909 177.812105 
L 509.811 136.457281 
L 515.853091 156.549291 
L 521.895182 144.367895 
L 527.937273 157.291652 
L 533.979364 166.538176 
L 540.021455 161.006328 
L 546.063545 175.589047 
L 552.105636 165.73489 
L 558.147727 229.239155 
L 564.189818 168.668618 
L 570.231909 185.688054 
L 576.274 151.285875 
L 582.316091 183.246985 
L 588.358182 134.737402 
L 594.400273 170.448173 
L 600.442364 163.71119 
L 606.484455 153.994947 
L 612.526545 160.495229 
L 618.568636 158.962509 
L 624.610727 137.708949 
L 630.652818 138.102506 
L 636.694909 155.122664 
L 642.737 135.621637 
L 648.779091 154.443964 
L 654.821182 142.521047 
L 660.863273 128.671367 
L 666.905364 169.905994 
L 672.947455 169.749034 
L 678.989545 199.662327 
" clip-path="url(#p2ededfddf0)" style="fill: none; stroke: #2ca02c; stroke-width: 1.5; stroke-linecap: square"/>
   </g>
   <g id="line2d_92">
    <path d="M 74.780455 369.889122 
L 80.822545 221.184604 
L 86.864636 219.046375 
L 92.906727 209.530866 
L 98.948818 209.33288 
L 104.990909 211.26936 
L 111.033 183.320989 
L 117.075091 201.244213 
L 123.117182 191.499553 
L 129.159273 197.477821 
L 135.201364 172.243357 
L 141.243455 185.984622 
L 147.285545 153.496257 
L 153.327636 189.936172 
L 159.369727 145.599134 
L 165.411818 165.670566 
L 171.453909 124.751977 
L 177.496 151.001538 
L 183.538091 149.725467 
L 189.580182 135.2127 
L 195.622273 133.540548 
L 201.664364 160.490239 
L 207.706455 161.099085 
L 213.748545 149.481495 
L 219.790636 160.739537 
L 225.832727 140.773518 
L 231.874818 149.378722 
L 237.916909 141.226469 
L 243.959 160.858703 
L 250.001091 116.845697 
L 256.043182 154.225511 
L 262.085273 155.08816 
L 268.127364 160.818646 
L 274.169455 164.471328 
L 280.211545 147.610611 
L 286.253636 160.702464 
L 292.295727 155.97931 
L 298.337818 145.605057 
L 304.379909 139.481161 
L 310.422 147.623855 
L 316.464091 157.45262 
L 322.506182 178.238496 
L 328.548273 151.466167 
L 334.590364 151.865123 
L 340.632455 153.511394 
L 346.674545 156.504449 
L 352.716636 158.791325 
L 358.758727 132.764718 
L 364.800818 141.557982 
L 370.842909 137.074196 
L 376.885 147.766059 
L 382.927091 159.245298 
L 388.969182 152.087849 
L 395.011273 172.691072 
L 401.053364 158.878144 
L 407.095455 155.530963 
L 413.137545 165.878332 
L 419.179636 158.114426 
L 425.221727 152.48651 
L 431.263818 165.206123 
L 437.305909 127.260864 
L 443.348 130.486164 
L 449.390091 149.198226 
L 455.432182 170.710151 
L 461.474273 180.012515 
L 467.516364 133.496948 
L 473.558455 186.215311 
L 479.600545 179.12568 
L 485.642636 195.351386 
L 491.684727 137.803578 
L 497.726818 145.870975 
L 503.768909 156.793495 
L 509.811 158.753247 
L 515.853091 138.60661 
L 521.895182 148.063966 
L 527.937273 136.636282 
L 533.979364 146.363842 
L 540.021455 144.999824 
L 546.063545 170.453659 
L 552.105636 169.644992 
L 558.147727 173.029402 
L 564.189818 138.63514 
L 570.231909 165.686814 
L 576.274 161.453453 
L 582.316091 143.51884 
L 588.358182 131.226188 
L 594.400273 163.975824 
L 600.442364 132.614898 
L 606.484455 173.592719 
L 612.526545 139.761422 
L 618.568636 179.858743 
L 624.610727 141.758591 
L 630.652818 143.753615 
L 636.694909 155.856943 
L 642.737 167.437378 
L 648.779091 165.849178 
L 654.821182 154.519164 
L 660.863273 145.910844 
L 666.905364 139.82387 
L 672.947455 162.404277 
L 678.989545 155.946168 
" clip-path="url(#p2ededfddf0)" style="fill: none; stroke: #d62728; stroke-width: 1.5; stroke-linecap: square"/>
   </g>
   <g id="line2d_93">
    <path d="M 74.780455 369.11637 
L 80.822545 219.729906 
L 86.864636 206.567552 
L 92.906727 211.742259 
L 98.948818 193.423321 
L 104.990909 188.259831 
L 111.033 196.80053 
L 117.075091 181.895128 
L 123.117182 191.074115 
L 129.159273 196.421556 
L 135.201364 174.203454 
L 141.243455 175.374134 
L 147.285545 165.573324 
L 153.327636 171.135929 
L 159.369727 147.44666 
L 165.411818 160.19005 
L 171.453909 163.776558 
L 177.496 155.691979 
L 183.538091 141.665814 
L 189.580182 159.314932 
L 195.622273 151.050686 
L 201.664364 147.8144 
L 207.706455 147.47074 
L 213.748545 142.487904 
L 219.790636 170.840536 
L 225.832727 130.728798 
L 231.874818 161.299734 
L 237.916909 148.230428 
L 243.959 157.086667 
L 250.001091 157.490303 
L 256.043182 153.394259 
L 262.085273 146.882701 
L 268.127364 171.703151 
L 274.169455 160.777397 
L 280.211545 157.917984 
L 286.253636 170.716162 
L 292.295727 154.728902 
L 298.337818 173.013206 
L 304.379909 140.410017 
L 310.422 172.834383 
L 316.464091 141.90165 
L 322.506182 153.89728 
L 328.548273 139.389715 
L 334.590364 154.599333 
L 340.632455 169.632208 
L 346.674545 149.636601 
L 352.716636 164.790574 
L 358.758727 152.302086 
L 364.800818 148.786274 
L 370.842909 164.220594 
L 376.885 152.685166 
L 382.927091 151.727455 
L 388.969182 149.031229 
L 395.011273 151.439311 
L 401.053364 151.578956 
L 407.095455 147.027399 
L 413.137545 152.60627 
L 419.179636 145.583292 
L 425.221727 159.273078 
L 431.263818 143.755038 
L 437.305909 148.879363 
L 443.348 158.342657 
L 449.390091 136.33865 
L 455.432182 156.623008 
L 461.474273 151.198631 
L 467.516364 135.39186 
L 473.558455 134.27964 
L 479.600545 154.450615 
L 485.642636 140.475572 
L 491.684727 148.686233 
L 497.726818 157.325696 
L 503.768909 154.541961 
L 509.811 156.212591 
L 515.853091 161.416685 
L 521.895182 165.095537 
L 527.937273 168.226152 
L 533.979364 146.430532 
L 540.021455 155.144 
L 546.063545 145.939377 
L 552.105636 137.774287 
L 558.147727 146.431209 
L 564.189818 130.924964 
L 570.231909 147.028745 
L 576.274 155.227615 
L 582.316091 149.804257 
L 588.358182 148.660296 
L 594.400273 154.423219 
L 600.442364 158.088946 
L 606.484455 146.948349 
L 612.526545 141.973413 
L 618.568636 171.185871 
L 624.610727 178.492928 
L 630.652818 159.042385 
L 636.694909 152.102915 
L 642.737 164.902778 
L 648.779091 180.069474 
L 654.821182 154.171184 
L 660.863273 153.904649 
L 666.905364 148.432049 
L 672.947455 144.578366 
L 678.989545 127.430412 
" clip-path="url(#p2ededfddf0)" style="fill: none; stroke: #9467bd; stroke-width: 1.5; stroke-linecap: square"/>
   </g>
   <g id="line2d_94">
    <path d="M 74.780455 369.611897 
L 80.822545 219.545562 
L 86.864636 196.073832 
L 92.906727 210.113239 
L 98.948818 201.766355 
L 104.990909 195.605734 
L 111.033 192.897036 
L 117.075091 193.640959 
L 123.117182 195.84899 
L 129.159273 185.997257 
L 135.201364 178.433475 
L 141.243455 176.687399 
L 147.285545 167.622385 
L 153.327636 155.971871 
L 159.369727 164.84737 
L 165.411818 137.103463 
L 171.453909 150.51673 
L 177.496 145.583027 
L 183.538091 158.330356 
L 189.580182 147.998301 
L 195.622273 149.638359 
L 201.664364 130.194691 
L 207.706455 152.848131 
L 213.748545 148.577889 
L 219.790636 173.685161 
L 225.832727 154.726311 
L 231.874818 155.456189 
L 237.916909 157.982234 
L 243.959 134.555641 
L 250.001091 162.918215 
L 256.043182 133.822497 
L 262.085273 145.947585 
L 268.127364 145.779229 
L 274.169455 151.453239 
L 280.211545 153.304983 
L 286.253636 141.830921 
L 292.295727 149.589111 
L 298.337818 145.325086 
L 304.379909 158.21292 
L 310.422 153.701648 
L 316.464091 157.85896 
L 322.506182 149.643606 
L 328.548273 160.784742 
L 334.590364 155.727867 
L 340.632455 155.792629 
L 346.674545 150.983027 
L 352.716636 157.277885 
L 358.758727 150.597099 
L 364.800818 153.611339 
L 370.842909 146.596758 
L 376.885 158.268615 
L 382.927091 163.802704 
L 388.969182 161.850568 
L 395.011273 146.904278 
L 401.053364 157.265359 
L 407.095455 160.892604 
L 413.137545 159.769384 
L 419.179636 153.912866 
L 425.221727 165.527806 
L 431.263818 154.276407 
L 437.305909 155.925594 
L 443.348 155.700474 
L 449.390091 161.112379 
L 455.432182 153.147227 
L 461.474273 149.577284 
L 467.516364 145.774106 
L 473.558455 144.16932 
L 479.600545 164.292981 
L 485.642636 147.048003 
L 491.684727 153.740368 
L 497.726818 154.321702 
L 503.768909 155.857706 
L 509.811 154.552961 
L 515.853091 159.406438 
L 521.895182 148.60392 
L 527.937273 165.036915 
L 533.979364 157.50315 
L 540.021455 160.645444 
L 546.063545 151.487391 
L 552.105636 145.189986 
L 558.147727 154.53906 
L 564.189818 162.125736 
L 570.231909 161.702429 
L 576.274 157.030028 
L 582.316091 147.189259 
L 588.358182 159.74972 
L 594.400273 156.180671 
L 600.442364 154.58024 
L 606.484455 158.093882 
L 612.526545 139.040581 
L 618.568636 150.095418 
L 624.610727 154.764443 
L 630.652818 150.874455 
L 636.694909 155.004608 
L 642.737 158.002909 
L 648.779091 150.02689 
L 654.821182 143.082771 
L 660.863273 146.910909 
L 666.905364 162.724924 
L 672.947455 159.580971 
L 678.989545 160.703871 
" clip-path="url(#p2ededfddf0)" style="fill: none; stroke: #8c564b; stroke-width: 1.5; stroke-linecap: square"/>
   </g>
   <g id="line2d_95">
    <path d="M 74.780455 369.524697 
L 80.822545 226.899339 
L 86.864636 205.247734 
L 92.906727 222.497647 
L 98.948818 188.939718 
L 104.990909 187.40488 
L 111.033 191.759101 
L 117.075091 198.281978 
L 123.117182 180.051558 
L 129.159273 180.889669 
L 135.201364 164.596318 
L 141.243455 178.032354 
L 147.285545 168.430403 
L 153.327636 168.265801 
L 159.369727 168.159036 
L 165.411818 162.613254 
L 171.453909 164.518476 
L 177.496 154.462921 
L 183.538091 152.541796 
L 189.580182 155.607922 
L 195.622273 157.61094 
L 201.664364 157.264553 
L 207.706455 145.06014 
L 213.748545 157.756042 
L 219.790636 149.604551 
L 225.832727 151.360604 
L 231.874818 160.567396 
L 237.916909 150.985652 
L 243.959 160.157929 
L 250.001091 151.796069 
L 256.043182 154.325885 
L 262.085273 152.772246 
L 268.127364 157.376636 
L 274.169455 149.447456 
L 280.211545 161.142945 
L 286.253636 158.255958 
L 292.295727 150.838962 
L 298.337818 159.05264 
L 304.379909 148.698651 
L 310.422 155.499892 
L 316.464091 152.099371 
L 322.506182 157.713705 
L 328.548273 153.508374 
L 334.590364 158.629317 
L 340.632455 160.942712 
L 346.674545 151.191193 
L 352.716636 158.254054 
L 358.758727 150.73553 
L 364.800818 154.145053 
L 370.842909 158.95318 
L 376.885 152.132464 
L 382.927091 155.351278 
L 388.969182 144.996087 
L 395.011273 153.835226 
L 401.053364 148.051121 
L 407.095455 150.892968 
L 413.137545 149.324575 
L 419.179636 155.584686 
L 425.221727 151.07195 
L 431.263818 153.351514 
L 437.305909 142.641569 
L 443.348 148.432704 
L 449.390091 152.992297 
L 455.432182 154.843635 
L 461.474273 146.224507 
L 467.516364 152.127221 
L 473.558455 154.710989 
L 479.600545 153.307227 
L 485.642636 156.114322 
L 491.684727 144.453582 
L 497.726818 146.913797 
L 503.768909 150.857916 
L 509.811 149.53796 
L 515.853091 145.609808 
L 521.895182 152.923476 
L 527.937273 150.933418 
L 533.979364 151.98287 
L 540.021455 149.34335 
L 546.063545 158.06753 
L 552.105636 143.984044 
L 558.147727 151.979056 
L 564.189818 143.820947 
L 570.231909 150.679205 
L 576.274 147.104015 
L 582.316091 151.261234 
L 588.358182 148.431122 
L 594.400273 149.934152 
L 600.442364 154.708199 
L 606.484455 148.987893 
L 612.526545 150.859364 
L 618.568636 149.196639 
L 624.610727 151.941777 
L 630.652818 138.690343 
L 636.694909 150.632792 
L 642.737 144.126234 
L 648.779091 150.050919 
L 654.821182 151.411934 
L 660.863273 160.245538 
L 666.905364 152.207344 
L 672.947455 147.373724 
L 678.989545 151.051888 
" clip-path="url(#p2ededfddf0)" style="fill: none; stroke: #e377c2; stroke-width: 1.5; stroke-linecap: square"/>
   </g>
   <g id="line2d_96">
    <path d="M 74.780455 369.597789 
L 80.822545 226.385456 
L 86.864636 202.284743 
L 92.906727 213.105744 
L 98.948818 188.249128 
L 104.990909 192.160169 
L 111.033 194.724825 
L 117.075091 193.255698 
L 123.117182 186.220083 
L 129.159273 178.132944 
L 135.201364 172.27078 
L 141.243455 172.85737 
L 147.285545 176.878413 
L 153.327636 167.295749 
L 159.369727 158.033372 
L 165.411818 153.029419 
L 171.453909 158.142859 
L 177.496 154.541595 
L 183.538091 157.93998 
L 189.580182 162.558257 
L 195.622273 158.597794 
L 201.664364 153.597063 
L 207.706455 157.096155 
L 213.748545 157.236824 
L 219.790636 155.971533 
L 225.832727 153.935925 
L 231.874818 156.36898 
L 237.916909 157.830876 
L 243.959 152.111849 
L 250.001091 157.814966 
L 256.043182 155.435479 
L 262.085273 152.054444 
L 268.127364 152.42933 
L 274.169455 151.607413 
L 280.211545 150.083883 
L 286.253636 153.937034 
L 292.295727 159.560755 
L 298.337818 155.779624 
L 304.379909 147.034937 
L 310.422 153.002139 
L 316.464091 158.167513 
L 322.506182 154.089145 
L 328.548273 156.353366 
L 334.590364 151.634282 
L 340.632455 151.035097 
L 346.674545 153.201596 
L 352.716636 155.919355 
L 358.758727 154.574281 
L 364.800818 153.611788 
L 370.842909 154.238947 
L 376.885 149.305574 
L 382.927091 154.27642 
L 388.969182 148.775777 
L 395.011273 151.852268 
L 401.053364 153.518411 
L 407.095455 154.374984 
L 413.137545 149.319325 
L 419.179636 155.692644 
L 425.221727 155.414196 
L 431.263818 157.987126 
L 437.305909 159.995644 
L 443.348 158.210302 
L 449.390091 147.558849 
L 455.432182 158.949028 
L 461.474273 149.346098 
L 467.516364 157.67684 
L 473.558455 152.342324 
L 479.600545 150.624775 
L 485.642636 155.028772 
L 491.684727 151.182855 
L 497.726818 156.211612 
L 503.768909 147.900469 
L 509.811 152.421437 
L 515.853091 146.721837 
L 521.895182 155.450127 
L 527.937273 153.054541 
L 533.979364 151.549753 
L 540.021455 153.755728 
L 546.063545 147.281101 
L 552.105636 153.394895 
L 558.147727 152.332223 
L 564.189818 148.230134 
L 570.231909 150.599655 
L 576.274 146.867087 
L 582.316091 150.896963 
L 588.358182 145.798072 
L 594.400273 147.133359 
L 600.442364 145.393293 
L 606.484455 150.791566 
L 612.526545 142.4214 
L 618.568636 156.06886 
L 624.610727 149.816829 
L 630.652818 148.608929 
L 636.694909 152.918634 
L 642.737 150.096002 
L 648.779091 156.550595 
L 654.821182 148.422986 
L 660.863273 144.928414 
L 666.905364 159.572629 
L 672.947455 153.365569 
L 678.989545 156.889802 
" clip-path="url(#p2ededfddf0)" style="fill: none; stroke: #7f7f7f; stroke-width: 1.5; stroke-linecap: square"/>
   </g>
   <g id="patch_3">
    <path d="M 44.57 390.04 
L 44.57 10.8 
" style="fill: none; stroke: #000000; stroke-width: 0.8; stroke-linejoin: miter; stroke-linecap: square"/>
   </g>
   <g id="patch_4">
    <path d="M 709.2 390.04 
L 709.2 10.8 
" style="fill: none; stroke: #000000; stroke-width: 0.8; stroke-linejoin: miter; stroke-linecap: square"/>
   </g>
   <g id="patch_5">
    <path d="M 44.57 390.04 
L 709.2 390.04 
" style="fill: none; stroke: #000000; stroke-width: 0.8; stroke-linejoin: miter; stroke-linecap: square"/>
   </g>
   <g id="patch_6">
    <path d="M 44.57 10.8 
L 709.2 10.8 
" style="fill: none; stroke: #000000; stroke-width: 0.8; stroke-linejoin: miter; stroke-linecap: square"/>
   </g>
   <g id="legend_1">
    <g id="patch_7">
     <path d="M 50.401 115.279025 
L 136.478534 115.279025 
Q 138.144534 115.279025 138.144534 113.613025 
L 138.144534 16.631 
Q 138.144534 14.965 136.478534 14.965 
L 50.401 14.965 
Q 48.735 14.965 48.735 16.631 
L 48.735 113.613025 
Q 48.735 115.279025 50.401 115.279025 
z
" style="fill: #ffffff; opacity: 0.8; stroke: #cccccc; stroke-linejoin: miter"/>
    </g>
    <g id="line2d_97">
     <path d="M 52.067 21.710998 
L 60.397 21.710998 
L 68.727 21.710998 
" style="fill: none; stroke: #1f77b4; stroke-width: 1.5; stroke-linecap: square"/>
    </g>
    <g id="text_15">
     <!-- 5 Samples -->
     <g transform="translate(75.391 24.626498) scale(0.0833 -0.0833)">
      <defs>
       <path id="DejaVuSans-35" d="M 691 4666 
L 3169 4666 
L 3169 4134 
L 1269 4134 
L 1269 2991 
Q 1406 3038 1543 3061 
Q 1681 3084 1819 3084 
Q 2600 3084 3056 2656 
Q 3513 2228 3513 1497 
Q 3513 744 3044 326 
Q 2575 -91 1722 -91 
Q 1428 -91 1123 -41 
Q 819 9 494 109 
L 494 744 
Q 775 591 1075 516 
Q 1375 441 1709 441 
Q 2250 441 2565 725 
Q 2881 1009 2881 1497 
Q 2881 1984 2565 2268 
Q 2250 2553 1709 2553 
Q 1456 2553 1204 2497 
Q 953 2441 691 2322 
L 691 4666 
z
" transform="scale(0.015625)"/>
       <path id="DejaVuSans-70" d="M 1159 525 
L 1159 -1331 
L 581 -1331 
L 581 3500 
L 1159 3500 
L 1159 2969 
Q 1341 3281 1617 3432 
Q 1894 3584 2278 3584 
Q 2916 3584 3314 3078 
Q 3713 2572 3713 1747 
Q 3713 922 3314 415 
Q 2916 -91 2278 -91 
Q 1894 -91 1617 61 
Q 1341 213 1159 525 
z
M 3116 1747 
Q 3116 2381 2855 2742 
Q 2594 3103 2138 3103 
Q 1681 3103 1420 2742 
Q 1159 2381 1159 1747 
Q 1159 1113 1420 752 
Q 1681 391 2138 391 
Q 2594 391 2855 752 
Q 3116 1113 3116 1747 
z
" transform="scale(0.015625)"/>
       <path id="DejaVuSans-6c" d="M 603 4863 
L 1178 4863 
L 1178 0 
L 603 0 
L 603 4863 
z
" transform="scale(0.015625)"/>
       <path id="DejaVuSans-73" d="M 2834 3397 
L 2834 2853 
Q 2591 2978 2328 3040 
Q 2066 3103 1784 3103 
Q 1356 3103 1142 2972 
Q 928 2841 928 2578 
Q 928 2378 1081 2264 
Q 1234 2150 1697 2047 
L 1894 2003 
Q 2506 1872 2764 1633 
Q 3022 1394 3022 966 
Q 3022 478 2636 193 
Q 2250 -91 1575 -91 
Q 1294 -91 989 -36 
Q 684 19 347 128 
L 347 722 
Q 666 556 975 473 
Q 1284 391 1588 391 
Q 1994 391 2212 530 
Q 2431 669 2431 922 
Q 2431 1156 2273 1281 
Q 2116 1406 1581 1522 
L 1381 1569 
Q 847 1681 609 1914 
Q 372 2147 372 2553 
Q 372 3047 722 3315 
Q 1072 3584 1716 3584 
Q 2034 3584 2315 3537 
Q 2597 3491 2834 3397 
z
" transform="scale(0.015625)"/>
      </defs>
      <use xlink:href="#DejaVuSans-35"/>
      <use xlink:href="#DejaVuSans-20" x="63.623047"/>
      <use xlink:href="#DejaVuSans-53" x="95.410156"/>
      <use xlink:href="#DejaVuSans-61" x="158.886719"/>
      <use xlink:href="#DejaVuSans-6d" x="220.166016"/>
      <use xlink:href="#DejaVuSans-70" x="317.578125"/>
      <use xlink:href="#DejaVuSans-6c" x="381.054688"/>
      <use xlink:href="#DejaVuSans-65" x="408.837891"/>
      <use xlink:href="#DejaVuSans-73" x="470.361328"/>
     </g>
    </g>
    <g id="line2d_98">
     <path d="M 52.067 33.937877 
L 60.397 33.937877 
L 68.727 33.937877 
" style="fill: none; stroke: #ff7f0e; stroke-width: 1.5; stroke-linecap: square"/>
    </g>
    <g id="text_16">
     <!-- 25 Samples -->
     <g transform="translate(75.391 36.853377) scale(0.0833 -0.0833)">
      <use xlink:href="#DejaVuSans-32"/>
      <use xlink:href="#DejaVuSans-35" x="63.623047"/>
      <use xlink:href="#DejaVuSans-20" x="127.246094"/>
      <use xlink:href="#DejaVuSans-53" x="159.033203"/>
      <use xlink:href="#DejaVuSans-61" x="222.509766"/>
      <use xlink:href="#DejaVuSans-6d" x="283.789062"/>
      <use xlink:href="#DejaVuSans-70" x="381.201172"/>
      <use xlink:href="#DejaVuSans-6c" x="444.677734"/>
      <use xlink:href="#DejaVuSans-65" x="472.460938"/>
      <use xlink:href="#DejaVuSans-73" x="533.984375"/>
     </g>
    </g>
    <g id="line2d_99">
     <path d="M 52.067 46.164755 
L 60.397 46.164755 
L 68.727 46.164755 
" style="fill: none; stroke: #2ca02c; stroke-width: 1.5; stroke-linecap: square"/>
    </g>
    <g id="text_17">
     <!-- 50 Samples -->
     <g transform="translate(75.391 49.080255) scale(0.0833 -0.0833)">
      <use xlink:href="#DejaVuSans-35"/>
      <use xlink:href="#DejaVuSans-30" x="63.623047"/>
      <use xlink:href="#DejaVuSans-20" x="127.246094"/>
      <use xlink:href="#DejaVuSans-53" x="159.033203"/>
      <use xlink:href="#DejaVuSans-61" x="222.509766"/>
      <use xlink:href="#DejaVuSans-6d" x="283.789062"/>
      <use xlink:href="#DejaVuSans-70" x="381.201172"/>
      <use xlink:href="#DejaVuSans-6c" x="444.677734"/>
      <use xlink:href="#DejaVuSans-65" x="472.460938"/>
      <use xlink:href="#DejaVuSans-73" x="533.984375"/>
     </g>
    </g>
    <g id="line2d_100">
     <path d="M 52.067 58.391633 
L 60.397 58.391633 
L 68.727 58.391633 
" style="fill: none; stroke: #d62728; stroke-width: 1.5; stroke-linecap: square"/>
    </g>
    <g id="text_18">
     <!-- 100 Samples -->
     <g transform="translate(75.391 61.307133) scale(0.0833 -0.0833)">
      <use xlink:href="#DejaVuSans-31"/>
      <use xlink:href="#DejaVuSans-30" x="63.623047"/>
      <use xlink:href="#DejaVuSans-30" x="127.246094"/>
      <use xlink:href="#DejaVuSans-20" x="190.869141"/>
      <use xlink:href="#DejaVuSans-53" x="222.65625"/>
      <use xlink:href="#DejaVuSans-61" x="286.132812"/>
      <use xlink:href="#DejaVuSans-6d" x="347.412109"/>
      <use xlink:href="#DejaVuSans-70" x="444.824219"/>
      <use xlink:href="#DejaVuSans-6c" x="508.300781"/>
      <use xlink:href="#DejaVuSans-65" x="536.083984"/>
      <use xlink:href="#DejaVuSans-73" x="597.607422"/>
     </g>
    </g>
    <g id="line2d_101">
     <path d="M 52.067 70.618511 
L 60.397 70.618511 
L 68.727 70.618511 
" style="fill: none; stroke: #9467bd; stroke-width: 1.5; stroke-linecap: square"/>
    </g>
    <g id="text_19">
     <!-- 200 Samples -->
     <g transform="translate(75.391 73.534011) scale(0.0833 -0.0833)">
      <use xlink:href="#DejaVuSans-32"/>
      <use xlink:href="#DejaVuSans-30" x="63.623047"/>
      <use xlink:href="#DejaVuSans-30" x="127.246094"/>
      <use xlink:href="#DejaVuSans-20" x="190.869141"/>
      <use xlink:href="#DejaVuSans-53" x="222.65625"/>
      <use xlink:href="#DejaVuSans-61" x="286.132812"/>
      <use xlink:href="#DejaVuSans-6d" x="347.412109"/>
      <use xlink:href="#DejaVuSans-70" x="444.824219"/>
      <use xlink:href="#DejaVuSans-6c" x="508.300781"/>
      <use xlink:href="#DejaVuSans-65" x="536.083984"/>
      <use xlink:href="#DejaVuSans-73" x="597.607422"/>
     </g>
    </g>
    <g id="line2d_102">
     <path d="M 52.067 82.845389 
L 60.397 82.845389 
L 68.727 82.845389 
" style="fill: none; stroke: #8c564b; stroke-width: 1.5; stroke-linecap: square"/>
    </g>
    <g id="text_20">
     <!-- 400 Samples -->
     <g transform="translate(75.391 85.760889) scale(0.0833 -0.0833)">
      <use xlink:href="#DejaVuSans-34"/>
      <use xlink:href="#DejaVuSans-30" x="63.623047"/>
      <use xlink:href="#DejaVuSans-30" x="127.246094"/>
      <use xlink:href="#DejaVuSans-20" x="190.869141"/>
      <use xlink:href="#DejaVuSans-53" x="222.65625"/>
      <use xlink:href="#DejaVuSans-61" x="286.132812"/>
      <use xlink:href="#DejaVuSans-6d" x="347.412109"/>
      <use xlink:href="#DejaVuSans-70" x="444.824219"/>
      <use xlink:href="#DejaVuSans-6c" x="508.300781"/>
      <use xlink:href="#DejaVuSans-65" x="536.083984"/>
      <use xlink:href="#DejaVuSans-73" x="597.607422"/>
     </g>
    </g>
    <g id="line2d_103">
     <path d="M 52.067 95.072267 
L 60.397 95.072267 
L 68.727 95.072267 
" style="fill: none; stroke: #e377c2; stroke-width: 1.5; stroke-linecap: square"/>
    </g>
    <g id="text_21">
     <!-- 800 Samples -->
     <g transform="translate(75.391 97.987767) scale(0.0833 -0.0833)">
      <use xlink:href="#DejaVuSans-38"/>
      <use xlink:href="#DejaVuSans-30" x="63.623047"/>
      <use xlink:href="#DejaVuSans-30" x="127.246094"/>
      <use xlink:href="#DejaVuSans-20" x="190.869141"/>
      <use xlink:href="#DejaVuSans-53" x="222.65625"/>
      <use xlink:href="#DejaVuSans-61" x="286.132812"/>
      <use xlink:href="#DejaVuSans-6d" x="347.412109"/>
      <use xlink:href="#DejaVuSans-70" x="444.824219"/>
      <use xlink:href="#DejaVuSans-6c" x="508.300781"/>
      <use xlink:href="#DejaVuSans-65" x="536.083984"/>
      <use xlink:href="#DejaVuSans-73" x="597.607422"/>
     </g>
    </g>
    <g id="line2d_104">
     <path d="M 52.067 107.299145 
L 60.397 107.299145 
L 68.727 107.299145 
" style="fill: none; stroke: #7f7f7f; stroke-width: 1.5; stroke-linecap: square"/>
    </g>
    <g id="text_22">
     <!-- 1600 Samples -->
     <g transform="translate(75.391 110.214645) scale(0.0833 -0.0833)">
      <use xlink:href="#DejaVuSans-31"/>
      <use xlink:href="#DejaVuSans-36" x="63.623047"/>
      <use xlink:href="#DejaVuSans-30" x="127.246094"/>
      <use xlink:href="#DejaVuSans-30" x="190.869141"/>
      <use xlink:href="#DejaVuSans-20" x="254.492188"/>
      <use xlink:href="#DejaVuSans-53" x="286.279297"/>
      <use xlink:href="#DejaVuSans-61" x="349.755859"/>
      <use xlink:href="#DejaVuSans-6d" x="411.035156"/>
      <use xlink:href="#DejaVuSans-70" x="508.447266"/>
      <use xlink:href="#DejaVuSans-6c" x="571.923828"/>
      <use xlink:href="#DejaVuSans-65" x="599.707031"/>
      <use xlink:href="#DejaVuSans-73" x="661.230469"/>
     </g>
    </g>
   </g>
  </g>
 </g>
 <defs>
  <clipPath id="p2ededfddf0">
   <rect x="44.57" y="10.8" width="664.63" height="379.24"/>
  </clipPath>
 </defs>
</svg>
